<svg xmlns="http://www.w3.org/2000/svg" xmlns:xlink="http://www.w3.org/1999/xlink" width="320" height="450" viewBox="0 0 320 450">
    <defs>
        <path id="prefix__a" d="M0.204 0.24L288.462 0.24 288.462 383.737 0.204 383.737z"/>
    </defs>
    <g fill="none" fill-rule="evenodd">
        <path d="M0 0H319.995V450H0z"/>
        <g>
            <path fill="#C58FFF" d="M282.169 30.968L303.086 44.206 304.545 64.534 303.396 84.879 304.925 105.225 305.425 125.575 304.17 145.919 305.789 166.268 305.447 186.615 304.966 206.968 303.698 227.321 303.881 247.674 305.419 268.034 305.676 288.389 305.33 308.74 303.959 329.08 302.68 349.418 303.902 370.258 281.309 381.855 260.933 383.425 240.546 381.438 220.167 381.195 199.783 383.189 179.402 380.885 159.014 381.186 138.622 382.297 118.234 383.533 97.847 383.651 77.465 380.747 57.099 383.58 38 375.666 24.249 362.703 21.617 343.338 23.46 323.406 20.812 303.471 21.338 283.536 23.54 263.604 21.305 243.669 20.981 223.733 23.15 203.796 24.137 183.855 24.213 163.912 22.423 143.973 20.953 124.035 21.909 104.096 21.635 84.157 23.134 64.219 21.003 44.279 22.99 24.348 25.796 7.068 43.296 4.29 63.28 5.026 83.264 2.142 103.252 3.224 123.242 2.839 143.232 4.808 163.228 5.097 183.231 2.17 203.229 2.616 223.225 2.224 243.214 2.681 263.199 4.188 282.136 18.742z" transform="translate(4.882 4)"/>
            <path fill="#DCFF02" d="M302.999 312.64L287.333 328.396 275.997 322.914 267.654 318.603 252.329 325.78 245.922 337.524 242.407 346.802 250.702 363.954 238.471 378.153 234.396 382.113 260.934 383.425 281.31 381.855 291.367 377.274 303.902 370.258 303.898 363.692zM233.915 33.637L251.207 52.334 246.286 65.409 243.756 72.016 247.833 85.934 258.798 90.714 268.077 94.229 285.228 85.934 299.428 98.165 304.926 105.225 303.926 78.905 303.505 46.57 303.086 44.206 293.804 38.276 284.965 32.737z" transform="translate(4.882 4)"/>
            <g>
                <g transform="translate(4.882 4) translate(0 .885) translate(19.12)">
                    <mask id="prefix__b" fill="#fff">
                        <use xlink:href="#prefix__a"/>
                    </mask>
                    <path fill="#000" d="M284.86 291.293c-.218 12.8-.907 25.436-1.726 38.212-.416 6.47-1.241 13.062-1.198 19.544.045 6.678.762 13.42 1.175 20.094-5.044 2.587-10.085 5.175-15.13 7.764-1.945 1-3.942 2.323-6.003 3.102-.128.011-.345.032-.714.068-1.6.153-3.21.247-4.813.37-4.824.373-11.2 1.217-15.152.988-6.334-.363-12.625-1.479-18.96-1.848-9.328-.542-18.763-.485-28.056.424-4.995.487-10.85 1.6-15.066 1.066-6.02-.764-12.183-1.746-18.244-2.062-20.471-1.07-41.146 1.918-61.58 2.649-10.308.369-21.264-.066-32.043-1.6-4.204-.6-7.816-1.319-11.985-.74l-10.224 1.423c-1.63.226-3.28.394-4.899.682-.744.132-2.149.06-1.671.242-5.575-1.368-11.64-4.685-16.795-7.052-4.052-1.86-7.824-6.564-11.338-9.876-1.044-.983-3.258-2.676-3.721-3.666-1.095-2.333-.86-6.325-1.202-8.84-.75-5.514-1.398-9.808-.906-15.136.464-5.013 1.473-10.296 1.32-15.329-.189-6.149-1.905-12.31-2.45-18.44-.847-9.539.327-20.435 1.414-30.277.49-4.441 1.374-8.84.875-13.289-.64-5.708-1.616-12.076-1.953-17.477-.708-11.304-.042-22.176 1.177-33.382 2.3-21.117 2.097-42.22.203-63.334-.867-9.67-1.884-19.317-1.43-28.785.54-11.244.07-22.385.386-33.62.158-5.558.831-11.146 1.249-16.692.33-4.408-.29-8.585-.762-12.995-.596-5.569-1.14-10.07-.604-15.437.514-5.162.867-10.37 1.592-15.507.736-5.225 1.679-10.43 2.537-15.64 8.824-1.398 16.06-2.473 24.836-2.15 3.842.141 7.812.61 11.644.274 5.601-.49 11.213-1.618 16.777-2.42 6.74-.973 15.422.695 23.033.714 9.249.025 18.185-.452 27.391.454 9.772.962 19.297 1.259 29.126 1.4 7.678.11 16.492-2.61 23.212-2.875 8.997-.356 18.086.454 27.108.278 9.78-.192 19.48-.072 29.26.15 4.319.1 8.614.496 12.922.821 2.989.226 6.09.235 9.056.684.212.032.366.05.476.059.779.457 1.502 1.165 2.207 1.706 4.963 3.815 10.823 7.334 15.269 11.735 1.285 1.272.904 1.501.912 4.316.008 2.74.014 5.482.021 8.222.001.014.006.024.007.037-.042.211.047.421.343.61l16.554 10.477c1.063.672 2.41 1.28 3.35 2.122.818.729.665.488.69.543 1.147 2.433.514 7.151.709 9.867.433 6.03.664 10.971.331 16.864-.288 5.091-.944 10.265-.622 15.36.8 12.638 1.918 25.171 1.873 37.854-.02 5.428-.656 11.845-1.012 17.611-.313 5.083.275 10.042.681 15.123 1.825 22.905-.67 46.39-1.356 69.588-.648 21.907 2.268 43.18 1.898 64.972m3.369-127.236c-.336-6.45-1.473-12.927-1.543-19.384-.064-5.888.964-12.803 1.185-19.04.375-10.599-.405-21.332-1.2-31.903-.938-12.479.794-24.808-.113-37.466-.27-3.749.284-8.706-.88-12.254-.6-1.826-.824-1.77-2.72-2.97-6.09-3.855-12.182-7.71-18.273-11.567l-.018-6.225c-.004-1.49.649-4.596-.081-5.939-.503-.922-2.203-1.757-3.021-2.385l-8.276-6.36c-2.553-1.962-5.562-5.307-8.674-6.26-4.776-1.461-11.141-.841-16.126-1.218-17.353-1.31-34.735-.149-52.102-.535-4.084-.092-8.31-.508-12.386-.2-5.584.42-11.219 1.641-16.759 2.451-6.938 1.016-15.936.58-23.7.01-9.946-.732-19.383-1.84-29.353-1.649-9.547.184-18.964-.812-28.493-.85-9.608-.038-18.53 2.921-27.64 2.586-4.75-.174-9.693-.784-14.428-.354-5.59.507-11.203 1.778-16.75 2.658-.613.097-1.714.41-1.836 1.162C3.202 17.687 1.716 28.841.579 40.253c-.95 9.542 2.113 19.084 1.41 28.432-.87 11.584-.672 22.795-.84 34.396-.151 10.511-.945 20.538-.17 31.028.738 10 2.236 20.606 2.474 30.284.289 11.81-.31 23.588-.893 35.375-.488 9.868-2.395 19.546-2.234 29.44.079 4.882-.07 9.828.306 14.696.484 6.278 2.076 12.647 2.125 18.938.039 5.183-1.245 11.589-1.852 17.073-.533 4.828-.5 9.686-.628 14.542-.126 4.77-.153 9.027.473 13.733.688 5.192 2.031 11.082 1.818 16.004-.266 6.1-1.744 12.257-1.7 18.361.04 5.414 1.462 11.105 2.191 16.47.676 4.969 4.166 6.85 7.834 10.308 3.603 3.396 6.006 5.99 10.487 7.847 4.853 2.01 10.757 5.843 15.984 6.51 1.673.213 3.716-.474 5.374-.705l11.796-1.64c4.457-.62 8.196.224 14.11 1.068 4.573.65 8.906 1.35 13.51 1.324 21.209-.123 43.196-2.239 63.58-2.539 4.99-.072 10.086-.467 15.062-.076 6.295.493 12.646 2.024 18.956 2.142 10.356.193 19.839-1.972 29.78-1.851 10.614.126 21.107 1.968 31.667 2.122 5.814.083 11.81-.893 17.606-1.34 4.47-.344 7.396-2.195 11.432-4.268l15.21-7.806c.496-.255 1.002-.574.966-1.185-.384-6.546-1.02-13.129-1.154-19.685-.114-5.567.645-12.159 1.016-18.06.66-10.516 1.528-20.993 1.707-31.53.406-23.874-1.536-47.392-1.747-71.005-.194-21.485 3.119-43.068 1.993-64.6" mask="url(#prefix__b)"/>
                </g>
                <path fill="#C58FFF" d="M258.939 344.585L267.858 335.8 275.247 341.524 276.09 347.147 268.266 353.567z" transform="translate(4.882 4) translate(0 .885)"/>
                <path fill="#000" d="M236.845 30.152c-10.249.477-16.508.173-26.95-.798-8.387-.778-16.572.568-24.972.87-1.718.063-7.498-.487-10.85-.74-3.548-.266-7.096-.596-10.652-.743-8.35-.343-16.715-.502-25.071-.514-18.566-.023-34.86 1.857-52.758 1.22-4.098-.146-8.193-.702-12.273-1.103-4.665-.46-7.755-.614-11.246-1.664-5.475-1.647-10.994-3.185-16.434-4.94-.004-.018-.005-.03-.011-.048-.332-1.186-.866-2.35-1.292-3.505-.577-1.56-1.152-3.12-1.728-4.682 6.046.171 12.135.433 18.141.035 5.314-.35 10.624-.875 15.932-1.312.813-.067 3.222-.223 2.95-.239 2.034-.008 4.089.171 6.118.254 8.871.366 17.679.853 26.53 1.521 8.533.643 16.715.188 25.278-.254 6.812-.351 15.565-.112 23.822.028 7.225.12 14.448.391 21.673.459 16.894.156 33.666 1.005 50.546 1.626 9.7.357 19.414 1.46 29.104 1.675.448.01 1.332.222 1.498.216.594.309 1.177.687 1.738.987 2.637 1.412 5.671 2.617 8.112 4.341 1.832 1.295 3.905 4.369 5.792 7.146-14.328-.112-28.698-.5-42.997.164m49.872.672c-.002-.228-.124-.423-.366-.565-2.184-3.033-4.269-6.978-6.997-9.422-2.808-2.515-8.014-4.93-11.52-6.271-3.224-1.234-7.232-.911-10.657-1.147-3.852-.265-7.705-.59-11.562-.79-16.67-.862-33.458-1.898-50.147-1.959-17.224-.064-34.445-.776-51.671-.715-3.409.012-6.817.272-10.22.447l-8.298.429c-.915.047-1.835.124-2.752.142-.281.005-.44.01-.534.012h-.001c-8.12-.224-16.22-1.361-24.342-1.696-10.513-.434-20.239-.415-30.713.449-8.596.707-17.117.427-26.892.302-.996-.013-4.19.697-3.568 2.381 1.2 3.254 1.999 8.724 4.19 11.353 1.998 2.397 7.767 2.902 10.638 3.767 3.706 1.115 7.487 2.622 11.3 3.305 4.799.859 9.854.968 14.704 1.444 8.242.81 16.63.929 24.907.759 3.857-.078 7.721-.504 11.568-.787 2.556-.188 5.112-.36 7.665-.565 2.191-.175.76-.12 2.954-.12 18.095.012 36.046.394 54.091 1.75 8.196.615 16.258-.959 24.45-1.065h.019c-.018.006.088.02.505.04.883.043 1.773.165 2.655.246l8.883.826c3.334.31 6.63.753 9.974.644 19.395-.632 37.772-.667 58.029-.636 1.784.22 4.441-1.117 3.708-2.558M66.504 84.82c.307-6.949-.478-14.094-.719-21.049-.047-1.388-4.95-.466-4.887 1.31.23 6.664 1.037 14.585.72 20.64-.367 7.013-2.304 13.958-2.574 20.976-.53 13.756 1.396 28.204 2.19 41.943.082 1.413 4.991.454 4.889-1.31-.778-13.475-2.727-28.696-2.179-41.64.294-6.98 2.25-13.89 2.56-20.87" transform="translate(4.882 4) translate(0 .885)"/>
                <path fill="#C58FFF" d="M257.955 67.893L266.744 58.9 274.966 66.07 274.263 70.428 266.744 77.036 258.798 70.007z" transform="translate(4.882 4) translate(0 .885)"/>
                <path fill="#000" d="M306.861 101.934l-18.522-18.649c-.879-.884-2.225-.942-3.328-.392-2.847 1.424-5.695 2.848-8.542 4.27-.777.39-6.286 2.56-8.474 3.89-.357-.125-.732-.228-.897-.297l-5.348-2.271c-3.142-1.335-6.974-2.392-9.953-4.151-.072-.19-.19-.516-.347-1.087-.518-1.893-1.367-3.76-2.038-5.603-1.067-2.934-3.271-6.732-3.63-9.88.197-.521.606-1.114.886-1.545 1.158-1.778 2.086-3.775 3.113-5.634l4.777-8.644c.197-.356.207-1.077-.108-1.388l-18.325-18.13c-1.599-1.583-6.218.446-4.47 2.176 5.541 5.48 10.82 11.85 16.894 16.713.321.258.591.581.882.875-.678 1.35-1.493 2.655-2.22 3.973-1.805 3.263-5.476 7.645-6.247 11.304-.519 2.458 1.43 5.636 2.272 7.95 1.144 3.147 1.938 8.104 3.934 10.812 1.547 2.1 5.377 2.894 7.723 3.89 3.576 1.52 7.622 4.045 11.43 4.855 3.075.653 6.181-1.774 8.868-3.117l10.044-5.02 17.157 17.276c1.588 1.597 6.208-.425 4.469-2.176" transform="translate(4.882 4) translate(0 .885)"/>
                <path fill="#000" d="M260.26 67.568c2.036-2.045 4.072-4.094 6.107-6.14l6.788 6.825-6.105 6.114c-2.264-2.266-4.527-4.531-6.79-6.799m18.077-.68l-9.377-9.43c-1.114-1.12-3.26-.564-4.26.44-3.127 3.144-6.254 6.287-9.383 9.43-.381.385-.708 1.142-.241 1.61l9.38 9.391c1.12 1.12 3.258.565 4.262-.44 3.125-3.13 6.25-6.263 9.376-9.393.032-.03.045-.057.073-.085.505-.46.68-1.01.17-1.523M268.182 338.1l6.14 6.109-6.825 6.786c-2.039-2.035-4.075-4.07-6.114-6.104l6.8-6.792m.68 18.08l9.43-9.378c1.12-1.113.564-3.26-.44-4.26l-9.431-9.382c-.386-.383-1.142-.709-1.61-.242l-9.39 9.38c-1.12 1.119-.565 3.258.44 4.261 3.13 3.127 6.261 6.252 9.393 9.378.029.03.056.045.085.073.459.504 1.009.68 1.523.17" transform="translate(4.882 4) translate(0 .885)"/>
                <path fill="#000" d="M302.136 308.074l-16.748 16.864c-2.775-1.607-5.554-3.212-8.331-4.82-2.588-1.494-5.579-4.273-8.721-3.715-3.44.612-7.04 2.615-10.293 3.836-2.667 1-7.495 1.77-9.642 3.813-2.073 1.972-3 6.588-4.076 9.144-1.145 2.72-4.432 7.54-4.433 10.525-.002 2.753 3.365 7.11 4.566 9.525l3.144 6.332c.214.43.73 1.503.793 2.705-.897 1.438-2.28 2.646-2.77 3.137l-6.386 6.418-8.716 8.76c-1.946 1.957 2.83 1.678 3.873.63l19.018-19.111c.176-.178.677-.627.507-.971l-7.336-14.767c-.727-1.464-1.653-2.975-1.566-3.944.232-2.59 2.535-6.02 3.534-8.392 1.121-2.657 3.143-5.842 3.66-8.688.034-.184.075-.332.116-.46.548-.208 1.093-.449 1.622-.649 4.537-1.701 9.075-3.403 13.612-5.106 5.29 3.06 10.58 6.117 15.87 9.176.969.56 3.172-.074 3.9-.806l18.675-18.807c1.947-1.958-2.83-1.679-3.872-.629" transform="translate(4.882 4) translate(0 .885)"/>
                <path fill="#C58FFF" d="M235.884 237.257L235.448 230.911 236.319 224.539 238.312 218.465 239.226 212.163 239.105 205.787 238.905 199.405 239.012 192.521 237.371 185.835 235.083 179.398 232.617 173.035 228.264 167.762 223.563 162.822 219.766 158.737 215.711 154.893 210.748 152.294 205.888 149.754 199.782 147.137 193.17 146.313 186.714 144.71 179.974 144.03 173.229 144.559 166.397 144.748 160.106 146.29 153.967 148.387 147.516 148.638 139.663 148.337 133.394 146.995 129.558 150.365 129.637 155.549 130.244 161.227 130.956 166.944 130.19 172.666 127.562 179.354 126.566 186.466 125.146 193.412 125.307 200.131 125.833 206.883 128.137 213.255 130.503 218.972 133.4 224.423 136.154 230.037 140.685 234.353 144.374 239.453 149.244 243.396 154.948 246.033 159.984 248.94 165.566 250.589 171.185 252.099 176.893 253.6 182.785 253.169 188.624 253.288 194.44 252.753 200.33 252.82 206.204 251.608 212.077 251.039 221.279 250.264 226.289 252.209 231.62 252.493 235.906 249.69 237.829 243.654z" transform="translate(4.882 4) translate(0 .885)"/>
                <path fill="#000" d="M234.426 246.107c-.755 3.16-1.208 3.693-3.06 4.878-2.487-.296-4.345-.863-7.067-1.635-2.898-.824-6.017-.102-9.011.153-6.542.552-12.699 1.769-18.795 1.898-3.004.065-6.092.523-8.583.488-1.414-.02-2.833-.106-4.245-.063-.897.027-1.797.132-2.692.197-.478.035-3.55.136-2.088.294-5.658-.611-13.42-2.894-18.368-5.583-5.32-2.895-11.083-5.021-14.8-10.025-2.014-2.71-4.573-4.731-6.61-7.345-1.663-2.137-2.628-5.091-3.917-7.526-2.6-4.912-5.575-10.658-6.622-16.144-1.26-6.609-.401-13.054.73-19.544.575-3.294.714-6.442 1.941-9.563 1.317-3.35 2.451-6.542 2.478-10.22.027-3.505-.944-7.166-1.215-10.674-.126-1.628-.37-3.428-.16-5.042.118-.882-.727-.028.9-1.33.22-.174.429-.364.641-.548 5.05.933 9.956 1.325 15.188 1.121 6.402-.247 11.009-2.723 16.74-3.813-.612.19 2.764-.063 3.374-.08 1.032-.028 2.067-.04 3.1-.095 3.67-.195 6.035-.533 9.316-.203 3.016.303 5.447.974 8.517 1.626 2.692.57 5.778.608 8.199 1.356 4.953 1.53 11.363 4.679 15.437 7.828 4.339 3.352 8.285 8.17 11.92 12.268 7.483 8.44 10.381 20.133 10.463 31.174.046 6.311.883 12.696-.577 18.921-.794 3.391-2.026 6.315-2.502 9.79-.42 3.08-.181 5.938.035 9.035-.015.098-.01.198.021.298.901 2.963 2.017 5.156 1.312 8.108m6.754-28.849c1.305-6.41.52-12.833.505-19.31-.014-6.995-1.363-12.624-3.8-19.204-2.389-6.449-5.685-10.574-10.398-15.538-4.596-4.843-8.446-8.963-14.396-12.074-2.821-1.476-5.6-2.867-8.526-4.12-3.113-1.337-6.238-1.4-9.378-1.971-7.085-1.292-12.87-2.331-20.122-1.898-6.589.393-12.243.963-18.55 3.117-.792.271-1.74.47-2.521.83l-.137-.017c-1.765-.153-3.613.197-5.39.196-4.087-.004-7.084-.269-10.716-1.047-3.708-.794-5.583-.344-8.45 2.175-2.942 2.583-2.676 3.97-2.42 8.016.223 3.557 1.145 7.148 1.234 10.704.088 3.508-.927 6.594-2.186 9.799-2.095 5.327-3.406 12.807-3.523 18.533-.136 6.674.62 12.542 3.043 18.744 2.105 5.39 4.71 12.445 8.271 17.012 2.153 2.762 4.896 5.158 7.107 7.945 1.722 2.17 3.968 4.15 6.375 5.555 5.818 3.394 11.935 5.974 18.419 7.718 3.152.848 6.596 2.249 9.834 2.523 3.379.288 7.22-.311 10.654-.325 6.89-.028 12.807-.677 19.78-1.726 4.165-.626 6.509-.618 10.702-.971.865-.073 1.77-.232 2.638-.222.135.003.236.002.322-.002.067.024.15.052.274.086 1.605.448 3.077 1.44 4.722 1.755 2.945.568 6.588.64 9.248-.764 3.672-1.94 4.778-3.233 5.984-7.017 1.122-3.52-.044-5.691-1.125-9.245-.257-3.739-.447-7.025.193-10.735.502-2.923 1.744-5.625 2.333-8.522" transform="translate(4.882 4) translate(0 .885)"/>
                <path fill="#FFF" d="M212.038 199.963L210.432 207.338 208.092 214.5 203.093 220.141 197.394 225.044 190.316 227.583 182.915 229.133 175.37 228.115 168.503 224.925 162.663 220.214 157.969 214.365 155.286 207.367 154.467 199.963 154.454 192.337 157.992 185.573 162.493 179.541 168.644 175.244 175.454 172.117 182.915 171.346 190.369 172.144 197.503 174.696 202.894 179.985 207.952 185.508 210.338 192.615z" transform="translate(4.882 4) translate(0 .885)"/>
                <path fill="#000" d="M204.928 215.572c-1.578 2.256-3.598 4.113-5.473 5.773-1.12.99-4.058 3.259-6.999 4.314-5.515 1.977-13.465 1.84-15.379 1.282-4.285-1.25-9.288-4.683-12.54-8.144-4.61-4.906-6.607-10.286-7.338-16.884-.292-2.63-.46-5.288-.297-7.94.183-3.015 1.577-5.496 3.212-8.166 1.226-2 2.812-4.491 4.526-6.167.564-.553 2.328-1.61 3.272-2.27.704-.49 1.396-1.02 2.122-1.48.084-.055.131-.087.157-.109.146-.064.4-.177.841-.386 1.525-.718 3.057-1.528 4.63-2.126l.138-.054c.815-.138 1.674-.171 2.494-.256 1.078-.112 2.187-.3 3.28-.38-.01.047 1.292.12 1.42.137 1.403.18 2.838.22 4.234.453 2.37.395 5.958 1.193 8.118 2.557 2.37 1.496 4.416 4.282 6.357 6.36 3.057 3.271 4.328 5.397 5.676 9.65.91 2.874 1.511 5.83 2.19 8.77-1.043 4.858-1.815 11.026-4.641 15.066m9.554-16.264c-1.52-6.575-2.517-12.818-7.15-17.877-4.598-5.022-8.21-8.66-14.991-10.377-11.577-2.932-26.446.953-33.748 10.738-2.081 2.789-3.662 5.34-5.274 8.423-1.6 3.056-1.403 5.479-1.3 9.01.177 6.05 1.02 12.532 4.802 17.46 8.326 10.858 19.755 15.557 33.128 12.071 6.737-1.756 11.564-4.588 16.308-9.687 2.899-3.114 4.299-5.026 5.596-8.994 1.116-3.42 1.834-6.87 2.599-10.387.04-.124.06-.251.03-.38" transform="translate(4.882 4) translate(0 .885)"/>
                <path fill="#000" d="M199.133 199.692c-1.17-6.162-3.73-12.008-10.43-13.64-6.067-1.478-11.505.102-15.86 4.547-9.816 10.019-.798 27.252 13.2 23.581 3.139-.823 6.33-1.962 8.73-4.312 3.027-2.965 3.584-6.097 4.349-10.04.003-.017-.012-.025-.011-.042.003-.031.028-.061.022-.094" transform="translate(4.882 4) translate(0 .885)"/>
                <path fill="#FFF" d="M199.046 190.877c-.38-1.427-2.354-3.117-3.308-4.312-.007-.1-.09-.182-.28-.233-.138-.062-.306-.089-.493-.084-1.604-.23-3.265-.604-4.872-.632-1.529-.027-2.311.875-3.447 1.803-1.213.988-2.462 1.603-2.839 3.114-.316 1.265-1.08 3.672-.686 4.921.313.996 2.306 3.607 3.16 4.208 1.144.803 3.498.632 4.861.8 1.477.185 2.246-.012 3.415-.94 1.093-.868 3.135-1.908 3.737-3.188.384-.813.324-2.27.449-3.148.089-.62.468-1.686.303-2.309" transform="translate(4.882 4) translate(0 .885)"/>
                <path fill="#DCFF02" d="M154.384 359.674l-4.642 8.447-8.098 5.149-8.84 3.132-2.75-1.303.742-10.363 3.736-9.82 5.954-8.263 9.371-4.616 3.63 8.66.897 8.977zm3.563-17.301l-8.853-5.74-10.667-1.679-9.422 1.734-7.978 5.327-4.918 8.058-2.749 8.972.068 9.706-10.128-2.017-9.6-2.62-9.938-.204-9.888-1.23-9.263 1.19-9.209 1.01-9.258.8-8.912 2.604-8.757 2.92-8.376 3.789-8.665 3.664-6.17 7.123-2.31 8.898-.504 12.507 3.606 8.384 5.603 7.354 7.98 4.843 8.425 4.006 8.927 2.705 9.113 1.912 9.242 1.033 9.267.465 9.26 1.505 9.303-.74 9.202-1.391 9.084-1.842 9.34-.773 8.749-3.24 8.147-4.445 7.85-4.735 6.304-6.556 3.38-8.485-.548-12.507-4.295-10.548 8.82-1.318 6.618-5.567 5.516-7.827 1.377-9.404-1.018-9.195-3.755-8.446z" transform="translate(4.882 4) translate(0 .885)"/>
                <path fill="#000" d="M155.494 374.304c-1.445 2.049-2.026 3.256-4.321 4.683-4.417 2.745-8.066 3.103-10.568 3.476-.845.127-3.098.936-2.545 2.292 2.313 5.678 4.244 9.57 4.497 15.327.245 5.608.22 10.543-2.752 15.041-3.36 5.082-8.049 7.557-13.142 10.508-3.501 2.03-9.185 4.83-13.884 6.57-.584.216-3.196.896-2.582.875-.945.103-1.918.13-2.853.207-2.536.21-5.03.37-7.526.828-6.042 1.112-10.045 2.1-16.291 2.853-5.733.692-9.253.701-14.454-.142-4.898-.797-9.817-.754-14.744-1.265-10.534-1.087-19.611-2.805-29.126-7.33-4.04-1.92-9.262-4.172-12.167-7.312-3.47-3.752-7.43-9.768-8.212-14.347-.837-4.892.26-11.211 1.51-16.015 1.042-4.016.63-3.835 2.671-6.191 1.047-1.21 2.143-2.389 3.147-3.634.22-.272.476-.617.744-.919.122-.054.31-.138.582-.25 5.28-2.16 10.397-4.732 15.68-6.868 3.7-1.496 10.543-3.37 15.39-4.866 4.24-1.31 11.32-1.352 16.807-1.955 6.09-.668 11.188-1.595 16.647-.917 5.782.719 12.273.137 17.144 1.467 5.803 1.583 11.567 2.815 17.466 3.99.978.195 3.182-.554 3.172-1.847-.044-6.338.058-10.893 2.136-16.899.797-2.305 2.168-4.605 3.893-7.053 1.457-2.067 4.139-3.83 5.586-4.797.733-.489 5.402-2.192 6.733-2.436 1.25-.231 6.38-.31 6.855-.234 1.869.293 3.745.657 5.625.884.316.039.662.08.992.14.07.05.183.12.365.226 2.697 1.556 5.263 3.395 7.873 5.101 1.832 4.094 3.485 7.527 3.982 12.017.488 4.408 1.26 11.017-1.775 15.164-.874 1.194-1.704 2.418-2.555 3.628zm8.298-24.646c-.824-2.628-2.287-5.189-3.424-7.71-.013-.312-6.302-5.246-9.361-6.567-2.763-1.193-6.338-1.233-9.29-1.696-5.022-.79-11.572.225-15.83 3.032-2.453 1.616-5.412 3.048-7.254 5.333-1.82 2.262-3.757 5.534-4.882 8.211-2.343 5.581-2.674 10.49-2.688 16.164-5.16-1.129-9.424-2.292-14.878-3.542-4.994-1.144-10.376-.478-15.5-1.116-5.687-.707-10.296-.224-16.011.453-5.9.7-11.933.89-17.802 1.75-10.543 1.543-20.616 6.654-30.321 10.758-5.585 2.362-9.89 4.747-13.139 10.29-2.484 4.238-2.83 10.23-3.025 15.064-.1 2.48-.674 5.423-.205 7.868.493 2.576 2.25 5.979 3.545 8.244 3.104 5.423 6.626 8.355 11.785 11.485 9.071 5.503 19.218 8.591 29.644 10.34 5.46.917 11.033 1.122 16.55 1.423 5.138.279 9.971 1.774 15.138 1.362 5.412-.43 10.754-1.053 16.104-2.018 2.932-.528 5.83-1.358 8.778-1.78 1.32-.189 6.197-.2 8.725-.683 6.031-1.151 11.868-4.46 17.167-7.425 5.723-3.205 10.3-6.276 14.753-11.088 4.08-4.409 5.242-10.26 4.99-16.03-.115-2.64.151-5.628-.533-8.179-.749-2.796-2.117-5.56-3.326-8.27 3.792-.538 6.87-1.178 10.17-3.953 3.693-3.107 7.48-6.78 9.571-11.243 1.671-3.569 1.999-8.867 1.577-12.822-.268-2.506-.277-5.261-1.028-7.655z" transform="translate(4.882 4) translate(0 .885)"/>
                <path fill="#000" d="M148.069 366.876c-.224.394-.264.57-.246.643-.128.025-.387.121-.898.388-1.54.804-2.988 1.9-4.456 2.834-.533.338-2.465 1.406-1.961 1.255-1.21.478-2.485.854-3.7 1.284-1.143.405-2.287.857-3.445 1.229-.054-.034-.105-.068-.174-.107-.23-.13-.472-.243-.716-.356.494-6.88.99-12.66 4.154-18.667.482-.912 1.981-2.766 2.825-3.937.633-.88 1.384-1.744 1.932-2.68.046-.08.492-.639.739-.995.366-.204.897-.532 1.028-.59 1.032-.45 2.032-1 3.042-1.497l2.202-1.085c1.019 2.182 2.143 4.416 2.739 6.663.7 2.646.645 5.683.872 8.455-1.309 2.39-2.589 4.797-3.937 7.163m7.722-16.865c-.78-2.924-2.433-5.801-3.605-8.597-.535-1.277-2.282-1.236-3.35-.71-3.086 1.52-7.232 2.728-9.885 4.92-2.403 1.984-4.835 5.925-6.361 8.633-3.815 6.776-4.353 13.485-4.892 21.03-.052.73.409 1.072 1.004 1.353 3.42 1.62 4.478 1.334 8 .085 2.565-.91 5.096-1.662 7.434-3.034 2.532-1.488 5.916-3.074 7.828-5.324 1.957-2.305 3.178-5.785 4.641-8.448.329-2.543-.08-7.16-.814-9.908" transform="translate(4.882 4) translate(0 .885)"/>
                <path fill="#000" d="M135.55 407.562c-3.19 2.742-8.871 5.493-13.497 7.765-7.8 3.837-21.555 6.853-29.936 8.217-20.865 3.397-42.829.528-62.086-6.17-5.653-1.967-8.881-3.198-13.218-6.7-3.876-3.128-8.104-6.625-9.729-11.41-.504-1.488-1.33-3.122-1.585-4.676-.018-.112-.035-.19-.052-.255.085-.387.322-.896.466-1.245 1.257-3.039 1.69-5.495 3.46-7.592 3.516-4.171 8.014-8.337 12.335-10.366 9.568-4.49 21.09-7.013 32.21-9.26 8.945-1.809 19.377-1.02 28.96-.361 12.69.872 23.604 2.884 35.028 6.993 6.104 2.196 10.79 3.473 15.898 7.639 4.49 3.664 6.478 9.093 8.521 14.9 1.079 2.789-1.676 8.058-1.698 8.168-.271.238-.561.469-.803.64-1.518 1.075-2.859 2.497-4.274 3.713m11.579-13.25c.031-.37-.069-.665-.272-.88-2.06-5.835-3.829-10.403-8.343-14.995-3.57-3.63-8.67-5.944-13.418-7.61-10.517-3.692-20.814-7.4-32.007-8.51-11.34-1.125-22.62-1.658-33.98-.642-5.21.466-10.392 1.485-15.418 2.95-5.582 1.628-11.54 2.686-16.98 4.668-5.9 2.148-11.268 4.812-16.041 8.978-4.815 4.203-7.145 8.337-9.236 14.19-3.327 9.313 9.527 21.094 16.986 24.913 9.887 5.063 22.056 7.628 32.953 9.167 10.478 1.479 21.38 2.346 31.968 1.684 11.777-.735 23.62-4.393 34.936-7.52 5.444-1.505 10.53-4.734 15.41-7.544 3.892-2.24 9.848-5.668 11.541-9.859.988-2.445 1.247-5.463 1.752-8.118.145-.26.2-.556.149-.872M149.661 344.439c2.758-.178 5.515-.357 8.272-.537 1.012-.065-.105-.382.014-1.53.123-1.171 1.321-1.928.404-1.868-2.76.178-2.88-1.99-5.636-1.811-1.011.065-5.085 3.08-5.204 4.225-.123 1.172 1.233 1.582 2.15 1.52" transform="translate(4.882 4) translate(0 .885)"/>
                <path fill="#FFF" d="M51.988 394.519L51.173 384.841 51.309 374.952 51.086 365.06 51.782 355.169 51.6 345.275 51.838 335.379 50.72 325.484 51.858 315.59 51.712 305.698 50.878 295.77 57.704 287.691 67.519 283.412 78.294 283.977 86.825 284.467 94.562 287.99 98.944 294.571 99.094 304.586 99.689 314.598 99.292 324.614 98.896 334.626 99.859 344.643 99.002 354.663 99.762 364.682 98.835 374.701 98.846 384.719 99.716 394.855 92.045 399.578 83.958 402.951 75.377 405.437 66.524 403.942 58.218 400.58z" transform="translate(4.882 4) translate(0 .885)"/>
                <path fill="#000" d="M75.464 403.613c1.072-.208-1.003-.259-1.769-.389-1.465-.246-2.932-.484-4.394-.742-1.913-.338-2.868-.767-5.13-1.683-4.434-1.796-6.371-3.75-9.872-7.166-1.333-16.142-.535-32.993-.303-49.672.06-4.267.267-8.36-.211-12.595-.618-5.463-.25-8.761.26-14.357.354-3.853.219-7.83.017-11.694-.112-2.089-.352-4.177-.527-6.261-.082-.983-.256-2.025-.274-3.022.242-.319.514-.647.786-.907 1.951-1.856 3.322-4.319 5.243-6.208.11-.033.266-.088.498-.182 1.474-.596 2.919-1.272 4.377-1.908 1.008-.438 2.351-1.292 3.612-1.559 2.49.088 5.494.282 8.054.418 3.626.193 8.184.053 10.881.986 5.513 1.91 7.233 3.08 9.784 8.47.02.042.036.072.052.101.002.103.013.262.043.515.157 1.288.04 2.674.06 3.966.027 1.832.031 3.665.105 5.495.153 3.907.634 7.79.478 11.701-.337 8.506-.814 16.805.002 25.286.386 4.009-.57 8.114-.597 12.666-.026 4.394.878 8.62.472 13.017-.822 8.896-.545 17.457.174 26.316-7.05 4.316-13.947 8.222-21.82 9.408m26.338-35.549c.402-4.342-.282-8.433-.375-12.783-.08-3.755.85-7.51.76-11.261-.103-4.29-.969-8.424-.821-12.135.175-4.471.353-8.944.53-13.415.174-4.368-.17-8.62-.373-12.988-.168-3.597.744-8.114-.25-11.535-.995-3.422-4.234-7.085-7.398-8.524-1.975-.9-4.134-2.297-6.273-2.753-2.373-.506-5.126-.298-7.549-.434-3.83-.213-7.945-.933-11.756-.622-3.606.296-9.3 2.728-12.166 4.91-1.603 1.219-2.868 3.316-4.154 4.837-1.188 1.406-3.088 2.951-3.449 4.793-.774 3.933.804 8.922.857 12.574.077 5.14-.288 9.828-.808 14.94-.403 3.95.786 8.752.89 12 .625 19.874-1.48 39.605.192 59.476.049.592.403.948.895 1.116 3.67 3.567 6.17 5.905 10.972 7.848 4.038 1.635 8.977 3.275 13.373 3.138 4.154-.128 8.938-2.312 12.79-3.92 4.71-1.963 8.734-4.3 13.089-6.982.848-.522 1.353-1.096 1.266-2.113-.772-8.99-1.097-16.928-.242-26.167" transform="translate(4.882 4) translate(0 .885)"/>
                <path fill="#000" d="M97.124 294.595c-1.533 1.895-4.287 5.082-5.303 5.513-1.173.417-2.341.85-3.512 1.273-3.768 1.365-7.433 2.45-11.728 2.604.365-.04-5.507-.413-7.097-.561-1.942-.184-9.319-2.593-10.778-3.861-1.89-1.641-3.482-2.746-5.171-4.6-.916-1.003-5.318.645-4.36 1.696 1.8 1.973 3.59 4.731 5.739 6.293 1.857 1.35 4.61 1.845 6.782 2.604 4.176 1.459 9.107 1.945 13.52 1.645 5.145-.35 10.004-1.556 14.81-3.298 1.93-.7 4.15-1.183 5.745-2.502 2.15-1.775 3.36-4.128 5.121-6.306 1.097-1.356-2.952-1.508-3.768-.5" transform="translate(4.882 4) translate(0 .885)"/>
                <path fill="#5CFFE4" d="M75.348 275.084L66.729 270.285 58.271 265.092 52.567 256.906 51.478 247.074 52.403 237.215 55.733 227.877 59.57 218.763 63.689 209.768 68.97 201.379 73.89 192.809 78.753 184.001 83.103 193.221 88.13 201.935 91.95 211.234 95.853 220.471 99.493 229.815 101.852 239.539 103.126 249.475 100.271 259.117 92.995 265.925 84.745 271.593z" transform="translate(4.882 4) translate(0 .885)"/>
                <path fill="#000" d="M100.059 252.27c-.622 2.095-1.053 4.393-1.898 6.406-.103.244-.148.378-.161.445-.754.994-1.935 1.81-2.845 2.663-3.527 3.3-6.153 5.27-10.405 8.132-1.98 1.332-5.314 2.442-8.458 3.55-5.24-2.802-12.746-6.013-16.353-9.992-2.273-2.508-4.803-5.968-5.259-9.141-.57-3.982-.877-7.527-.51-11.434 1.29-13.741 8.516-28.05 15.674-39.422 3.046-4.838 5.82-9.853 8.57-14.869 2.446 4.718 5.103 9.295 7.436 14.069 2.99 6.118 5.422 12.808 7.952 19.13 2.583 6.454 4.838 12.841 5.9 19.744.582 3.785 1.388 7.236.357 10.719m.82-25.502c-2.783-7.142-5.789-14.183-8.7-21.273-3.124-7.605-7.578-14.658-11.097-22.119-.676-1.432-3.879-.536-4.495.58-6.78 12.282-14.627 23.983-20.106 36.908-2.985 7.043-6.15 13.922-6.87 21.575-.358 3.828-.283 6.866.141 10.698.495 4.467 1.498 5.892 4.11 9.643 4.459 6.4 12.909 9.684 19.63 13.425.404.225 1.085.2 1.781.027.332-.02.67-.08.993-.2 12.41-4.611 28.567-12.423 29.129-27.664.25-6.78-2.079-15.343-4.516-21.6" transform="translate(4.882 4) translate(0 .885)"/>
                <path fill="#5CFFE4" d="M74.96 273.782L67.549 266.895 63.173 257.93 63.362 247.906 67.128 238.507 72.348 229.791 78.647 221.552 83.801 230.756 87.97 240.209 90.602 250.19 89.944 260.475 84.034 268.822 75.052 273.857" transform="translate(4.882 4) translate(0 .885)"/>
                <path fill="#000" d="M87.742 258.47c-.146 2.54-.981 3.227-2.657 5.594-.913 1.288-1.746 2.78-2.8 3.952l-.16.178c-.374.234-.844.463-1.166.616-1.746.836-3.435 1.837-5.12 2.83-3.446-3.17-6.065-5.576-8.15-9.851-1.338-2.742-2.174-3.898-2.12-6.686.039-2.126-.226-5.82.11-7.318 1.901-8.495 7.265-15.784 12.402-22.465 4.425 7.785 9.25 16.273 10.16 25.367.189 1.892-.363 5.413-.499 7.783m5.202-8.444c-.855-10.45-7.16-20.54-12.151-29.447-.682-1.217-3.415-.418-4.058.424-6.011 7.862-13.592 16.931-15.644 26.934-1.048 5.105-.507 10.082 1.708 14.623 1.032 2.114 1.846 4.279 3.373 6.025 1.96 2.238 4.46 4.144 6.642 6.17.478.445 1.323.506 2.159.347.572 0 1.144-.107 1.579-.35 2.65-1.487 5.539-2.803 8.047-4.513 1.915-1.306 2.934-3.085 4.295-5.005 1.327-1.874 2.949-3.567 3.446-5.772.612-2.706.831-6.66.604-9.436M52.541 324.378l6.49-3.8c1.476-.865 3.15-2.169 3.899-3.695.608-1.24.908-2.818 1.318-4.133.706-2.256 4.243-5.576 5.881-7.006 1.884-1.644-2.706-1.216-3.638-.402-1.703 1.486-3.761 2.889-5.25 4.582-1.376 1.566-1.705 3.838-2.343 5.834-.155.49-.373 2.236-2.644 3.266-2.188.992-4.145 2.428-6.217 3.642-2.68 1.57.236 2.424 1.503 1.682l1.001.03z" transform="translate(4.882 4) translate(0 .885)"/>
                <path fill="#000" d="M86.455 333.679c-.666.733-1.33 1.468-1.995 2.202-1.438-1.911-3.023-3.942-3.73-5.949-1.013-2.883-.028-6.933-1.116-9.953-.899-2.492-4.391-3.797-5.272-6.21-.782-2.15.042-6.109.043-8.487 0-1.271-4.658-.45-4.658 1.247-.001 2.554-.848 6.575.155 8.876 1.104 2.536 4.303 3.737 5.143 6.41.967 3.074.168 6.745 1.286 9.763 1.06 2.855 3.692 5.67 5.362 8.238.78 1.198 3.656.92 4.324.183 1.59-1.753 3.178-3.506 4.766-5.26 1.247-1.376-3.362-2.105-4.308-1.06" transform="translate(4.882 4) translate(0 .885)"/>
                <path fill="#000" d="M95.571 357.733c-1.29-2.372-2.686-4.78-3.166-7.364-.743-3.98-.808-8.243-1.051-12.287-.452-7.522-.511-15.037-1.022-22.561-.068-1.001-4.754-.159-4.658 1.248.51 7.523.57 15.04 1.022 22.561.237 3.949.421 7.965 1.01 11.88.509 3.38 2.388 8.337 4.078 10.492 1.629 2.076 5.938.477 6.669 0 1.744-1.139.954-1.89 2.7-3.028-.747-3.913-2.669-2.842-3.608-2.23l-1.974 1.29zM97.972 377.316c5.967.868 10.416 1.473 15.805 3.37 5.139 1.807 8.989 4.602 13.509 7.681 1.27.866 5.567-1 3.701-2.272-4.896-3.337-8.9-6.063-14.458-8.016-5.215-1.835-10.223-2.52-15.713-3.32-1.5-.22-5.472 2.174-2.844 2.557M35.126 375.384c-5.636 2.07-10.888 4.003-15.943 7.315-1.955 1.281-3.183 2.962-4.706 4.778-2.506 2.982-2.558 2.964-2.093 6.877.426 3.581.278 4.484 2.691 6.963 1.888 1.937 3.638 4.033 5.844 5.573 5.366 3.746 10.673 5.435 16.848 7.362 1.289.403 4.588-1.477 4.403-1.534-5.343-1.668-9.739-3.135-14.523-5.98-3.94-2.344-9.302-6.108-10.247-10.625-.562-2.689-1.221-5.522.179-7.75 1.222-1.945 4.008-4.894 4.86-5.509 1.337-.97 2.944-1.696 4.377-2.522.831-.477 3.18-1.717 1.883-1.146 2.582-1.134 5.338-1.96 7.987-2.935 3.117-1.146.159-1.499-1.56-.867M58.575 296.02c5.072 2.645 9.736 5.108 15.664 5.056 6.273-.056 11.495-2.544 17.016-5.119 2.882-1.344.322-3.913-2.076-2.794-2.445 1.14-7.302 3.443-9.444 3.673-1.554.164-3.224.744-4.788.733-3.653-.025-8.436-1.994-9.034-2.307l-3.754-1.957c-1.821-.949-5.883 1.517-3.584 2.715" transform="translate(4.882 4) translate(0 .885)"/>
                <path fill="#000" d="M77.777 298.622c-.08-8.24-.045-15.52.108-23.768.036-1.959-4.632-1.012-4.663.567-.151 8.16-.183 16.289-.102 24.449.015 1.493 4.676.592 4.657-1.248" transform="translate(4.882 4) translate(0 .885)"/>
                <path fill="#FFF" d="M77.13 243.018L73.512 253.837 77.017 264.334 80.483 253.829z" transform="translate(4.882 4) translate(0 .885)"/>
                <path fill="#000" d="M77.19 259.25c-.07.218-.142.435-.213.652-.937-2.264-1.857-4.63-1.881-6.305-.024-1.554 1.295-3.877 1.784-5.339l.233-.696c.889 2.28 1.75 4.654 1.79 6.56.028 1.298-1.261 3.763-1.712 5.129m3.294-10.84l-1.771-5.709c.019-.21-.09-.36-.283-.453-.784-.587-2.881.064-2.879.995l-1.79 5.353c-.51 1.526-1.775 3.779-1.809 5.41-.03 1.452 1.047 3.364 1.497 4.71.672 2.01 1.343 4.023 2.016 6.033.415 1.244 2.811.322 3.11-.587l1.734-5.25c.51-1.547 1.715-3.73 1.73-5.377.013-1.56-1.102-3.66-1.555-5.125" transform="translate(4.882 4) translate(0 .885)"/>
            </g>
        </g>
    </g>
</svg>
