<svg width="90" height="93" viewBox="0 0 90 93" fill="none" xmlns="http://www.w3.org/2000/svg">
<path d="M73.4348 76.5491C72.0687 73.1751 70.6211 69.8304 69.1522 66.4949C68.9513 66.0389 68.7498 65.5829 68.5477 65.1269C68.2067 64.3547 67.8646 63.5825 67.5214 62.8103C67.3205 62.3574 67.1198 61.9045 66.9192 61.4516C66.5922 60.7138 66.2659 59.976 65.9404 59.2382C65.8446 59.0212 65.749 58.8042 65.6535 58.5872C65.5293 58.3049 65.2815 58.1277 64.9732 58.0361C63.84 57.6976 61.8967 58.5146 62.3227 59.48C62.3343 59.5055 62.3455 59.5311 62.3566 59.5567C62.5395 59.9715 62.7224 60.3863 62.9053 60.801C63.2739 61.6359 63.6431 62.4705 64.013 63.305C64.1924 63.708 64.3716 64.1127 64.5505 64.5192C64.9206 65.3562 65.2902 66.1932 65.6591 67.0302C65.8212 67.3994 65.9833 67.7686 66.1455 68.1378C67.2949 70.7608 68.4282 73.3923 69.5186 76.0349C68.2268 76.4896 67.0076 78.0808 68.9322 78.0808H71.1596C71.7724 78.0799 73.8715 77.6275 73.4348 76.5491Z" fill="#C58FFF"/>
<path d="M55.1133 6.06505C53.6792 4.92906 51.8192 3.26993 50.0569 2.76773C48.1383 2.22089 45.5292 2.173 43.5269 2.34551C41.3967 2.53151 38.9806 2.61056 37.0982 3.67727C34.9806 4.87558 33.0876 6.04273 31.3918 7.76928C29.8349 9.35307 28.5315 10.8439 27.2226 12.636C25.6346 14.8089 25.4988 16.1039 25.1226 18.8172C25.0875 19.0688 25.0674 19.3222 25.0622 19.5761C25.0572 19.8327 25.0673 20.0894 25.0924 20.3448C25.1966 21.4087 25.5453 22.3875 25.9294 23.437C26.0308 23.7123 26.1349 23.9922 26.2377 24.2801C26.2842 24.4089 26.3307 24.5391 26.3772 24.6711C26.6785 25.5495 26.9659 26.4511 27.27 27.3472C27.3788 27.668 27.4906 27.988 27.6053 28.307C27.9024 29.1323 28.2237 29.9452 28.5939 30.7217C29.3792 32.3697 31.3108 32.9909 32.4724 34.2604C32.6303 34.4316 32.772 34.6172 32.8956 34.8146C32.9035 34.8272 32.9118 34.8388 32.9193 34.8514C32.896 34.8979 32.8728 35.0044 32.8542 35.2294C32.797 35.9585 32.4715 36.7588 32.2962 37.4614C32.1841 37.9102 32.1009 38.2487 32.0139 38.5421C31.9304 38.8374 31.8215 39.1249 31.6884 39.4014C31.5745 39.6339 31.4322 39.8878 31.2397 40.2003C30.1883 41.904 29.3983 43.6413 28.6948 45.4004C28.6253 45.574 28.5568 45.7474 28.4892 45.9207C27.6234 48.1397 26.8673 50.3954 25.8745 52.6716C25.0692 54.5181 23.4979 56.8715 22.6902 59.1118C21.8035 61.5722 20.654 63.4438 19.5496 65.9618C18.4452 68.4798 17.9063 70.6141 16.7308 72.9586C15.619 75.1748 14.3811 77.3083 13.1503 79.4617C12.7671 80.1313 13.4758 80.3694 14.0421 80.3996C24.1112 80.9408 34.3315 80.647 44.3764 79.7695L44.8414 79.7286C45.1632 79.6982 45.4756 79.6041 45.7607 79.4519C46.0765 79.284 46.329 79.0613 46.4745 78.8386C46.5884 78.6637 46.6363 78.4884 46.5973 78.3392C46.5233 78.0602 46.1425 77.8686 45.312 77.9425C40.3407 78.3866 36.0552 78.5307 30.6473 78.7298C26.001 78.9009 21.3678 78.84 16.7298 78.6233C18.3425 75.724 19.764 72.7964 21.1222 69.8687C21.2571 69.5782 21.3915 69.2875 21.5254 68.9964C22.6512 66.55 23.742 64.106 24.8734 61.6805C25.5393 60.253 25.9452 58.7147 26.5293 57.2518C27.0338 55.988 28.1735 54.3289 28.9008 52.8278C30.2753 50.0002 30.9737 46.7828 32.2329 43.877C32.2404 43.8598 32.2483 43.8431 32.2557 43.8264C32.3417 43.6325 32.4417 43.4362 32.5487 43.2377C33.2462 41.9608 34.3412 40.582 35.0104 39.1373C35.1795 38.7661 35.324 38.3841 35.4428 37.9939C35.5386 37.6842 35.6237 37.3675 35.7014 37.0471C35.9339 36.0822 36.1073 35.0876 36.3389 34.1641C36.3605 34.0893 36.3613 34.01 36.3412 33.9347C36.321 33.8595 36.2807 33.7912 36.2245 33.7372C34.7063 32.4873 33.3173 31.6103 32.3571 30.3037C32.0138 29.8366 31.7371 29.3241 31.535 28.7808C31.2969 28.1416 31.0616 27.5024 30.8291 26.8631C30.7091 26.5336 30.5896 26.2041 30.4706 25.8745C30.0812 24.797 29.6984 23.7172 29.322 22.6353C29.2142 22.3253 29.1069 22.0161 29.0003 21.7077C28.9538 21.5682 28.904 21.4287 28.8566 21.2892C28.599 20.5391 28.4464 19.5789 28.4013 18.5898C28.3841 18.2202 28.3827 17.8458 28.3958 17.479C28.4357 16.3774 28.6111 15.3241 28.9273 14.5741C29.9428 12.1635 32.0395 10.3175 33.6647 8.66394C34.7342 7.57677 35.1527 7.04062 36.0729 6.48634C36.7639 6.07063 37.4516 5.64702 38.1403 5.22712C38.4714 5.02531 38.8457 4.84908 39.1517 4.61146C39.1763 4.59193 39.4986 4.44871 39.579 4.43894C40.7796 4.292 42.5829 4.20319 42.8452 4.15622C43.0228 4.12507 43.2051 4.10972 43.3869 4.08833C44.2922 4.14832 45.2004 4.26503 46.1025 4.35106C46.6465 4.40267 47.265 4.39756 47.823 4.49056C47.6835 4.51009 48.4401 4.8514 48.733 5.05647C49.8402 5.83069 51.0175 6.55795 52.0726 7.40193C54.5371 9.37539 55.8391 10.7499 57.1667 13.4544C59.7219 18.6721 58.3627 23.5565 56.7305 28.8357C56.6766 29.0108 56.6223 29.1863 56.5678 29.362C56.3818 29.9665 57.2783 30.1107 58.192 29.94C58.9597 29.7964 59.7391 29.4285 59.8953 28.9282C60.4947 26.9943 61.1801 25.0919 61.5335 23.0976C61.985 20.5521 62.045 18.9856 61.686 16.4299C61.0532 11.9361 58.5947 8.8225 55.1133 6.06505ZM43.18 4.07206C43.2265 4.07485 43.273 4.08182 43.3195 4.08415C42.6926 4.126 42.8879 4.05625 43.18 4.07206Z" fill="#C58FFF"/>
<path d="M57.2079 77.7253C57.0935 77.3928 56.8773 77.4128 56.6992 77.4142C56.5211 77.4156 56.277 77.3816 56.1816 77.5072C55.8943 77.882 55.4223 77.7764 55.0382 77.8964C54.6978 78.0015 54.4002 78.2131 54.0989 78.4056C53.9018 78.5325 53.9338 78.8371 54.0585 79.0952C54.1831 79.3533 54.3988 79.3854 54.5816 79.331C54.6236 79.318 54.6647 79.3025 54.7048 79.2845L56.4927 78.506L56.4737 78.467C56.6532 78.3879 56.8378 78.3172 57.0112 78.2284C57.1716 78.1461 57.3079 78.0154 57.2079 77.7253Z" fill="#5CFFE4"/>
<path d="M57.3574 77.4164C57.8178 77.8238 58.0633 77.6777 58.2795 77.5559C58.5241 77.4253 58.7338 77.2216 58.9356 77.0198C58.9766 76.9793 58.9473 76.7821 58.8952 76.6943C58.8431 76.6064 58.6985 76.5004 58.6376 76.5143C58.1163 76.6231 57.7038 76.911 57.3574 77.4164Z" fill="#5CFFE4"/>
<path d="M60.442 75.9866C60.389 75.8662 60.1862 75.7248 60.0653 75.7025C59.5184 75.6002 59.2669 75.9382 59.1162 76.5706C59.7031 76.8533 60.0876 76.7436 60.3769 76.4102C60.4513 76.3246 60.4954 76.1089 60.442 75.9866Z" fill="#5CFFE4"/>
<path d="M54.7861 64.5713C54.4229 64.6499 54.0649 64.7308 54.2816 65.5613C54.9228 65.8562 55.1846 65.5083 55.3794 65.0661C55.2134 64.6494 55.0139 64.5216 54.7861 64.5713Z" fill="#5CFFE4"/>
<path d="M58.0599 81.3136C57.9106 81.4066 57.8706 81.6107 58.0217 81.8195C58.1064 81.9362 58.3161 82.052 58.4003 82.0204C58.5463 81.9632 58.6383 81.7879 58.7699 81.6456C58.4491 81.2272 58.244 81.1983 58.0599 81.3136Z" fill="#5CFFE4"/>
<path d="M56.6838 82.0725C56.4341 82.0758 56.2793 82.2353 56.3825 82.612C56.6052 82.8445 56.7931 82.8319 56.9405 82.7175C57.0112 82.6617 57.073 82.4594 57.0335 82.392C56.9517 82.2544 56.7778 82.0698 56.6838 82.0725Z" fill="#5CFFE4"/>
<path d="M60.0024 80.1483C59.956 80.1966 59.9146 80.2494 59.8788 80.306C59.8444 80.3706 59.7965 80.4455 59.8086 80.5245C59.8309 80.6612 59.8676 80.8501 59.948 80.9268C59.9925 80.9629 60.0458 80.9863 60.1025 80.9945C60.1591 81.0027 60.217 80.9953 60.2698 80.9733C60.5752 80.7998 60.4943 80.5594 60.0024 80.1483Z" fill="#5CFFE4"/>
<path d="M54.129 69.9784C54.7065 70.1244 54.8507 70.0407 54.9367 69.451C54.5866 69.2143 54.3587 69.2455 54.182 69.4264C54.0704 69.5413 53.982 69.6933 54.129 69.9784Z" fill="#5CFFE4"/>
<path d="M57.0415 72.7726C56.5333 72.6219 56.1645 72.7261 55.972 73.2245C55.9413 73.2985 55.793 73.271 55.686 73.2664C55.0122 73.2376 54.7765 73.5249 54.849 74.3754C55.0025 74.4149 55.195 74.5312 55.307 74.4833C55.6263 74.3428 55.9369 74.1833 56.2371 74.0057C56.5255 73.8206 56.827 73.6566 57.1392 73.5152C57.4042 73.4026 57.3577 73.2692 57.0415 72.7726Z" fill="#5CFFE4"/>
<path d="M54.3403 74.5991C54.2189 74.3391 54.0334 74.2047 53.8334 74.2145C53.4382 74.2331 53.2224 74.4772 53.2178 75.0659C53.6828 75.4258 53.9525 75.2403 54.2203 75.0659C54.3491 74.9836 54.4612 74.8571 54.3403 74.5991Z" fill="#5CFFE4"/>
<path d="M58.7281 72.2219C58.1078 72.0647 58.1102 72.0638 58.1288 72.594C58.5886 72.7386 58.5909 72.7377 58.7281 72.2219Z" fill="#5CFFE4"/>
<path d="M35.9116 37.8725C36.1567 37.7413 36.3664 37.5386 36.5682 37.3368C36.6092 37.2954 36.5799 37.0987 36.5273 37.0089C36.4748 36.9192 36.3311 36.8155 36.2697 36.8289C36.0703 36.871 35.8788 36.9444 35.7024 37.0466C35.6247 37.367 35.5396 37.6837 35.4438 37.9934C35.6382 38.0306 35.7814 37.9473 35.9116 37.8725Z" fill="#5CFFE4"/>
<path d="M38.0096 36.7285C38.0835 36.6424 38.1277 36.4267 38.0742 36.3044C38.0208 36.1821 37.8185 36.0435 37.6981 36.0207C37.1512 35.9184 36.8992 36.2565 36.7485 36.8889C37.3358 37.1716 37.7204 37.0605 38.0096 36.7285Z" fill="#5CFFE4"/>
<path d="M30.5851 25.6736C30.5547 25.7447 30.5164 25.8121 30.4707 25.8745C30.5897 26.204 30.7092 26.5336 30.8292 26.8631L31.6239 26.4181C31.6749 26.3879 31.7187 26.3469 31.7522 26.2981C31.8569 26.1521 31.775 25.8698 31.582 25.6899C31.2017 25.337 30.7697 25.2412 30.5851 25.6736Z" fill="#5CFFE4"/>
<path d="M32.4189 24.8891C32.0553 24.9686 31.6972 25.0496 31.9139 25.8791C32.5551 26.1739 32.8174 25.8265 33.0122 25.3848C32.8457 24.9677 32.6463 24.8403 32.4189 24.8891Z" fill="#5CFFE4"/>
<path d="M33.7169 25.0059C34.0094 24.9529 34.3982 24.8459 34.541 24.3242C34.2415 24.0094 34.0067 23.7922 33.7002 23.9145C33.4142 24.0359 33.3626 24.2819 33.3659 24.5981C33.3673 24.8068 33.5616 25.0417 33.7169 25.0059Z" fill="#5CFFE4"/>
<path d="M40.1133 48.4995C40.1426 48.639 40.1663 48.7837 40.2063 48.9287C40.2265 48.9872 40.2667 49.0366 40.3197 49.0682C40.4439 49.1198 40.5894 49.2022 40.6917 49.178C40.9335 49.1163 41.1675 49.0274 41.3892 48.9129C41.924 48.6251 42.4122 48.1689 43.0033 48.0206C43.8789 47.7988 44.5452 47.2468 45.2729 46.7893C45.4589 46.6716 45.6338 46.5303 45.8286 46.427C46.0672 46.3001 46.3215 46.1945 46.5684 46.0806C46.7848 45.9768 46.9863 45.8446 47.1678 45.6877C48.1239 44.8204 49.2775 44.2903 50.3521 43.6259C50.7162 43.3934 51.1575 43.2799 51.5063 43.0353C52.041 42.6456 52.8148 42.5754 52.9673 41.7333C53.4835 41.8588 53.7871 41.8728 53.9815 41.6998C54.4347 41.287 54.9532 40.9521 55.516 40.7089C55.7485 40.5987 55.8382 40.4011 55.7094 40.0579C55.403 39.7208 55.123 39.6394 54.8831 39.8426C54.453 40.1681 53.8885 40.2499 53.437 40.5494C53.1361 40.7494 52.8692 40.9344 52.7646 41.2934L50.6256 41.677C50.6037 41.6812 50.5791 41.691 50.5707 41.7124C50.3703 42.3113 49.7407 42.2313 49.344 42.5224C49.1199 42.6893 48.7893 42.6991 48.5842 42.8874C47.9797 43.4399 47.4366 44.0685 46.7912 44.5614C46.4568 44.807 46.1964 45.0636 45.8193 45.3273C45.4561 45.5905 45.092 45.8532 44.7168 46.1001C44.3127 46.367 43.8882 46.6061 43.379 46.6814C43.1693 46.7125 43.007 46.9106 42.8289 47.0385C42.7298 47.1078 42.6466 47.205 42.5406 47.2589C41.7864 47.6407 41.0061 48.0494 40.2937 48.3521C40.2351 48.3796 40.1895 48.4372 40.1133 48.4995Z" fill="#5CFFE4"/>
<path d="M34.5098 51.6815C34.4665 51.6908 34.4066 51.6866 34.3856 51.721C34.2424 51.9628 34.0285 52.0893 33.8011 52.1939L33.4566 52.345C33.4041 52.36 33.3562 52.3876 33.3171 52.4255C33.2487 52.4957 33.1948 52.5748 33.2785 52.8096C33.292 52.8421 33.3064 52.8779 33.3222 52.917C33.3454 52.9343 33.3672 52.9534 33.3873 52.9742C33.6886 53.2221 33.6974 53.2248 33.8346 53.1602C33.8653 53.1509 34.1317 52.997 34.3289 52.8812L34.9446 52.5092C35.1943 52.3562 35.2482 52.1563 35.1268 51.9312C35.0055 51.7061 34.779 51.6192 34.5098 51.6815Z" fill="#5CFFE4"/>
<path d="M36.6764 50.4474C36.665 50.4734 36.6549 50.5 36.6462 50.527C36.6071 50.6451 36.8289 51.092 36.9405 51.1529C36.9909 51.1808 37.0442 51.2031 37.0995 51.2194C37.1655 51.2427 37.2347 51.2556 37.3046 51.2575C37.4153 51.2473 37.3715 51.0654 37.2911 50.6827C37.1149 50.56 36.9605 50.3363 36.8638 50.3331C36.7671 50.3298 36.721 50.373 36.6764 50.4474Z" fill="#5CFFE4"/>
<path d="M37.7611 50.2484C37.7876 50.4809 37.9606 50.6297 38.095 50.6135C38.4498 50.5716 38.8027 50.4893 38.8822 49.9387C38.6804 49.6132 38.4935 49.3751 38.208 49.4467C37.9504 49.5109 37.7225 49.909 37.7611 50.2484Z" fill="#5CFFE4"/>
<path d="M39.0831 49.7183C39.8498 49.9601 39.92 49.9238 40.0423 49.2067C39.7889 48.8891 39.5062 48.6869 39.2365 48.8696C39.0045 49.0277 38.865 49.29 39.0831 49.7183Z" fill="#5CFFE4"/>
<path d="M36.6597 51.4616C36.688 51.4008 36.7055 51.3355 36.7113 51.2686C36.7174 51.2184 36.7054 51.1676 36.6773 51.1254C36.5811 50.9626 36.33 50.7813 36.2463 50.8069C35.9873 50.892 35.7283 51.0366 35.891 51.6113C36.2574 51.7513 36.5123 51.7239 36.6597 51.4616Z" fill="#5CFFE4"/>
<path d="M56.2883 40.2225C56.445 40.1858 56.6393 40.0579 56.6551 39.8928C56.6844 39.5845 56.4226 39.4389 56.1553 39.3236L55.7744 39.7003C55.859 40.0955 56.0557 40.275 56.2883 40.2225Z" fill="#5CFFE4"/>
<path d="M34.6949 18.7349C34.2429 18.6582 33.9174 18.82 33.6035 19.0181L32.2011 19.8974C31.7412 20.182 31.2362 20.5191 30.861 20.7L29.001 21.7076C29.1079 22.0176 29.2152 22.3269 29.3228 22.6353C29.7905 22.4028 30.2528 22.154 30.7094 21.9029L31.439 21.5026C31.5631 21.4333 31.6771 21.378 31.811 21.2966L32.2295 21.0339C32.7619 20.7046 33.3278 20.4294 33.8444 20.076C34.2299 19.81 34.6749 19.6151 34.9325 19.1329C34.8437 18.9837 34.766 18.8535 34.6949 18.7349Z" fill="#5CFFE4"/>
<path d="M39.756 53.8344C39.6379 53.9772 39.7899 54.3125 39.9773 54.3311C40.4135 54.3776 40.8236 54.3455 40.945 53.7535C40.6781 53.4248 40.4493 53.3624 40.2475 53.4564C40.058 53.545 39.8902 53.674 39.756 53.8344Z" fill="#5CFFE4"/>
<path d="M48.4797 49.9642C48.622 49.9177 48.7722 49.8484 48.8573 49.7424C48.9424 49.6364 48.987 49.4824 48.9786 49.2532C48.7224 49.1332 48.5313 49.077 48.3821 49.0937C48.3057 49.0997 48.2328 49.1285 48.1729 49.1763C48.113 49.2241 48.0687 49.2888 48.0459 49.362C47.9994 49.4857 48.0385 49.7089 48.1147 49.8493C48.1589 49.9307 48.383 49.9967 48.4797 49.9642Z" fill="#5CFFE4"/>
<path d="M44.5669 52.1805L47.0439 50.7855C47.1341 50.7372 47.2156 50.6744 47.2853 50.5995C47.4657 50.3879 47.3783 50.1001 47.1035 49.9173C46.7975 49.7141 46.5701 49.809 46.366 49.982C46.2135 50.1113 46.1033 50.3651 45.9275 50.3847C45.1737 50.4665 44.6422 50.9627 44.0066 51.2635C43.6439 51.4333 43.3091 51.676 42.9794 51.8866C42.6636 52.0778 42.3391 52.2587 41.9638 52.347C41.5681 52.44 41.2231 52.7451 41.3547 53.536C41.7127 53.5774 41.9973 53.5588 42.2516 53.4286L43.3742 52.8497C43.7536 52.6497 44.1698 52.4009 44.5669 52.1805Z" fill="#5CFFE4"/>
<path d="M38.5922 54.3032C38.5457 54.252 38.5289 54.2102 38.4443 54.2255C38.3081 54.2399 38.1862 54.3153 38.0579 54.3804C37.8254 54.4962 37.6994 54.6775 37.8035 55.1151C38.2732 55.1728 38.5587 55.1686 38.7238 55.0686C38.7644 55.0433 38.7997 55.0103 38.8275 54.9713C38.8554 54.9324 38.8753 54.8883 38.8861 54.8417C38.8628 54.7715 38.821 54.6701 38.7624 54.5361C38.7101 54.4553 38.6533 54.3775 38.5922 54.3032Z" fill="#5CFFE4"/>
<path d="M53.4706 46.6725C53.6385 46.5535 53.7706 46.381 53.9631 46.1861C53.4009 45.6746 53.167 45.6216 52.9828 45.9415C52.9187 46.0545 52.9363 46.3135 53.0098 46.4777C53.1154 46.7069 53.3321 46.7702 53.4706 46.6725Z" fill="#5CFFE4"/>
<path d="M38.8144 53.9889C38.7521 54.0288 38.7554 54.1097 38.7856 54.2334C38.8219 54.3808 39.0121 54.7054 39.0888 54.7737C39.1497 54.8328 39.2009 54.862 39.2455 54.8202C39.2684 54.7904 39.2788 54.7529 39.2748 54.7156C39.2823 54.6584 39.3381 54.5542 39.3469 54.4445C38.8456 54.0037 38.8898 53.94 38.8144 53.9889Z" fill="#5CFFE4"/>
<path d="M50.3416 48.639C50.3987 48.4953 50.4033 48.3361 50.3546 48.1893C50.2719 47.9633 50.0096 47.8466 49.8432 47.914C49.5763 48.0214 49.54 48.2786 49.7004 48.7213C50.1212 48.8198 50.2537 48.825 50.3416 48.639Z" fill="#5CFFE4"/>
<path d="M52.5308 47.283C52.6177 47.2151 52.6861 47.0259 52.6498 46.8924C52.6135 46.759 52.4457 46.5725 52.3243 46.5023C51.9882 46.3112 51.865 46.553 51.7329 46.8329C52.1286 47.3416 52.3159 47.4532 52.5308 47.283Z" fill="#5CFFE4"/>
<path d="M37.046 55.8144C37.1022 55.761 37.1078 55.5503 37.0557 55.4657C36.9892 55.3601 36.8149 55.2402 36.7302 55.249C36.4234 55.2797 36.216 55.4457 36.2922 55.9167C36.6582 56.1585 36.8623 55.9897 37.046 55.8144Z" fill="#5CFFE4"/>
<path d="M51.2414 48.0344C51.3972 47.9261 51.3596 47.7401 51.2684 47.5783C51.1043 47.3086 50.9592 47.2063 50.8034 47.3119C50.6476 47.4174 50.6109 47.6671 50.7285 47.8726C50.8387 48.0702 51.0801 48.1488 51.2414 48.0344Z" fill="#5CFFE4"/>
<path d="M41.5012 38.3909C40.9432 38.2607 40.7056 38.628 40.8102 39.411C41.2636 39.6459 41.5607 39.4138 41.8667 39.2357C42.0062 39.1544 42.1359 38.9939 41.9699 38.7596C41.8546 38.5987 41.65 38.4262 41.5012 38.3909Z" fill="#5CFFE4"/>
<path d="M39.3859 40.4842C39.5064 40.4954 39.6184 40.4554 39.6984 40.4433C39.7835 40.381 39.8467 40.3503 39.8932 40.2982C40.0085 40.1703 40.1122 39.9867 39.9332 39.7835C39.8165 39.6496 39.5766 39.5408 39.4557 39.5742C39.2943 39.6207 39.1693 39.7895 39.0744 39.9523C38.9661 40.1392 39.1595 40.4633 39.3859 40.4842Z" fill="#5CFFE4"/>
<path d="M32.8906 43.5402C32.7511 43.3468 32.6428 43.2612 32.5498 43.2371C32.4414 43.4356 32.3429 43.6318 32.2568 43.8257C32.2666 43.8457 32.2768 43.8662 32.288 43.8871C32.7758 44.0276 32.759 44.0355 32.8906 43.5402Z" fill="#5CFFE4"/>
<path d="M36.0329 42.3392C36.1789 42.2816 36.2705 42.1067 36.4021 41.9644C36.0817 41.5459 35.8762 41.5171 35.6925 41.6315C35.5428 41.7245 35.5028 41.9286 35.6544 42.1379C35.739 42.2546 35.9487 42.3722 36.0329 42.3392Z" fill="#5CFFE4"/>
<path d="M34.3168 42.3899C34.0671 42.3936 33.9118 42.5527 34.0155 42.9293C34.2378 43.1595 34.4261 43.1497 34.5735 43.0353C34.6442 42.9786 34.7065 42.7763 34.6665 42.7098C34.5847 42.5731 34.4103 42.3885 34.3168 42.3899Z" fill="#5CFFE4"/>
<path d="M37.6348 40.4662C37.5889 40.5149 37.5475 40.5676 37.5111 40.6238C37.4767 40.6889 37.4293 40.7661 37.4414 40.8428C37.4637 40.9791 37.5004 41.1655 37.5809 41.2446C37.6253 41.2807 37.6786 41.3041 37.7353 41.3123C37.792 41.3205 37.8498 41.3132 37.9026 41.2911C38.2081 41.1181 38.1272 40.8772 37.6348 40.4662Z" fill="#5CFFE4"/>
<path d="M33.0711 48.353C32.993 48.074 32.8637 47.8805 32.6665 47.8982C32.2331 47.9373 31.9369 48.1642 31.9258 48.8115C32.4945 48.9542 32.8376 48.7566 33.0711 48.353Z" fill="#5CFFE4"/>
<path d="M34.1541 46.9864C34.022 47.0794 33.9369 47.2729 34.1122 47.5519C34.4084 47.6016 34.5897 47.6054 34.6311 47.5677C34.6934 47.5179 34.6967 47.3775 34.6892 47.1106C34.3642 46.7204 34.2754 46.8957 34.1541 46.9864Z" fill="#5CFFE4"/>
<path d="M41.8267 43.2195C41.9522 43.4985 42.1434 43.4673 42.3075 43.452C42.5284 43.4311 42.5237 43.2739 42.2829 42.688C41.8053 42.814 41.7011 42.9437 41.8267 43.2195Z" fill="#5CFFE4"/>
<path d="M36.038 27.3754C35.8454 27.4731 35.666 27.7939 35.4893 28.2589C36.1356 28.4538 36.5439 28.1971 36.7331 27.6289C36.4476 27.3685 36.2319 27.2736 36.038 27.3754Z" fill="#5CFFE4"/>
<path d="M32.5699 29.7698C32.2956 29.5838 32.0966 29.5633 31.938 29.6498C32.0641 29.8752 32.2038 30.0926 32.3565 30.3008C32.4718 30.225 32.5267 30.0572 32.5699 29.7698Z" fill="#5CFFE4"/>
<path d="M37.3935 32.3515C37.6725 32.3394 37.8729 32.1845 37.8636 31.7418C37.3856 31.4038 37.1331 31.3698 36.988 31.6633C36.9369 31.7674 36.9336 31.9962 37.0029 32.1152C37.0722 32.2343 37.2842 32.3552 37.3935 32.3515Z" fill="#5CFFE4"/>
<path d="M38.7629 31.1085C38.6457 30.9076 38.3579 30.7807 38.2323 30.8737C38.0956 30.9746 38.0575 31.42 38.203 31.5498C38.33 31.6642 38.502 31.6786 38.5704 31.7051C38.8564 31.5065 38.8927 31.3271 38.7629 31.1085Z" fill="#5CFFE4"/>
<path d="M35.7614 32.9104C36.2213 33.0574 36.2236 33.056 36.3612 32.5384C35.7409 32.3836 35.7433 32.3817 35.7614 32.9104Z" fill="#5CFFE4"/>
<path d="M43.5601 57.0689C43.8016 56.9617 44.0281 56.8235 44.2339 56.6579C45.2039 55.9218 46.6054 55.3661 47.8679 54.7909C48.3022 54.59 48.7798 54.4626 49.1899 54.2208C49.753 53.8883 50.3059 53.5438 50.8597 53.195L52.1733 52.2483L54.0905 50.8998L55.0517 50.2283L56.0421 49.6164C56.6382 49.2532 57.2483 48.9119 57.8635 48.5794C58.1128 48.4455 58.3992 48.373 58.6577 48.2539C58.9567 48.1144 59.2474 47.9605 59.5412 47.8141C59.8351 47.6676 60.1374 47.4886 60.4545 47.3639C61.1055 47.1035 61.6375 46.6855 62.1159 46.1796C62.2917 45.9936 62.4335 45.7997 62.7 45.7397C62.9422 45.6848 63.0459 45.4533 62.9074 45.1022C62.6456 44.8822 62.4424 44.8455 62.2647 45.0092C62.1829 45.0864 62.0894 45.2352 62.0034 45.2035C61.4333 44.9948 61.2868 45.6179 60.8586 45.6727C60.474 46.3163 59.8081 46.506 59.1976 46.7887C58.5838 47.0394 57.9612 47.2537 57.3841 47.5616C56.4016 48.0833 55.4892 48.7241 54.5439 49.3025C53.5916 49.9591 52.6476 50.6366 51.7172 51.3215C51.4512 51.5168 51.1787 51.7 50.9025 51.8749L50.484 52.1334L50.2692 52.2604L50.0074 52.3999C49.3099 52.7649 48.6086 53.1202 47.9242 53.5061C47.7228 53.6205 47.5689 53.8181 47.3629 53.9218C46.5403 54.3333 45.6889 54.6816 44.8854 55.1248C44.259 55.447 43.7113 55.8404 43.1282 56.211C42.8692 56.3751 42.8403 56.6648 43.0063 57.1322C43.1951 57.1126 43.3993 57.1368 43.5601 57.0689Z" fill="#5CFFE4"/>
<path d="M35.1769 61.3456C35.0958 61.4921 35.0249 61.6441 34.9648 61.8004C35.224 61.7468 35.4791 61.6755 35.7284 61.5869C35.8612 61.5688 35.9883 61.5211 36.1004 61.4474C36.4431 61.2149 36.8351 61.0396 37.1141 60.7337C37.3536 60.4709 38.0297 60.0306 38.0264 60.0394C38.0264 60.0394 39.4861 59.4847 39.9213 59.175L41.008 58.3701C41.0076 58.3593 41.0054 58.3486 41.0015 58.3385C41.0015 58.3147 41.7311 57.9432 42.0654 57.8702C42.2049 57.84 42.3198 57.7414 42.4439 57.6717C42.6118 57.5754 42.6616 57.4122 42.556 57.1643C41.7604 56.6947 41.6916 56.7166 40.9945 57.68C40.9071 57.6484 40.5463 57.6 40.5421 57.6L40.4086 57.6698L40.1059 57.8135C39.9697 57.8749 39.8311 57.953 39.7423 58.0753C39.4526 58.4766 39.0397 58.6654 38.5872 58.7951C38.4593 58.8318 38.3198 58.8504 38.212 58.9202L36.8258 59.8697L36.2603 60.3105C36.0897 60.4412 35.9381 60.6072 35.7391 60.6886C35.5842 60.7479 35.4557 60.8607 35.3768 61.0066C35.3629 61.0624 35.2471 61.2117 35.1769 61.3456Z" fill="#5CFFE4"/>
<path d="M33.215 63.333L33.3913 63.2665C33.5847 63.1624 33.7754 63.0382 33.9628 62.9127C34.02 62.875 34.0521 62.7834 34.0855 62.7146C34.1595 62.5574 33.9591 62.3812 33.78 62.4504C33.5368 62.5378 33.3194 62.6848 33.1476 62.8778C33.0432 62.9764 32.9522 63.0884 32.877 63.2107C33.0309 63.2702 33.1378 63.3595 33.215 63.333Z" fill="#5CFFE4"/>
<path d="M77.7363 52.4874C74.9997 50.167 72.1516 47.896 69.6085 45.3589C68.9394 44.6916 68.3251 43.9574 67.6913 43.246C67.277 42.781 66.8543 42.3262 66.4028 41.9058C66.1987 41.7161 65.9894 41.5338 65.7714 41.3585C65.3682 41.0372 64.9469 40.7415 64.5196 40.455C63.9644 40.083 63.3989 39.7254 62.8456 39.3497C62.2868 38.9777 61.7538 38.5683 61.2502 38.1244C61.1014 37.9902 60.9536 37.8544 60.807 37.7171C60.4146 37.3507 60.0286 36.9767 59.6492 36.5951C58.9917 35.9375 58.3472 35.2642 57.6999 34.5956C57.3403 34.2236 56.9791 33.8547 56.6164 33.4889C55.9864 32.856 55.3451 32.2375 54.6788 31.6502C54.2245 31.2499 53.7585 30.8649 53.2763 30.4994C53.2131 30.4529 53.1499 30.4031 53.0857 30.3557C52.4037 29.8516 51.7288 29.344 51.0611 28.8328C50.6506 28.5182 50.2427 28.2009 49.8372 27.881C49.1192 27.314 48.4115 26.736 47.714 26.147C47.3628 25.8494 47.0147 25.5482 46.6696 25.2435C46.0065 24.6566 45.3555 24.0531 44.7166 23.4328C44.5204 23.2415 44.3252 23.0485 44.1312 22.8538C43.9483 22.67 43.7632 22.4865 43.576 22.3033C43.0031 21.7419 42.4111 21.1839 41.8001 20.6293C41.4021 20.2684 40.9975 19.9101 40.5865 19.5542C38.7237 17.9402 36.754 16.3982 34.8103 15.0116C34.5588 14.8309 34.3068 14.6532 34.0542 14.4787C33.8817 14.3587 33.6622 14.3262 33.418 14.3546C32.5443 14.4564 31.3581 15.3441 30.8954 15.8356C30.6217 16.0157 30.349 16.1983 30.0775 16.3834C29.6213 16.6921 29.1205 17.0539 28.7787 17.2376C28.649 17.3143 28.5216 17.3961 28.3956 17.4798C28.3826 17.8476 28.384 18.221 28.4012 18.5907L28.815 18.3615C29.0884 18.2155 29.406 18.1434 29.6748 17.9895C30.1003 17.7202 30.5313 17.3334 30.9768 17.0418C31.2604 16.8558 31.5455 16.6698 31.8333 16.4898C33.9123 17.9425 36.0648 19.4877 38.0048 21.1594C37.8128 21.2791 37.6057 21.3729 37.3891 21.4384C36.8851 21.5779 36.5363 21.9113 36.3034 22.4232C36.2569 22.5251 36.169 22.6581 36.0792 22.6423C35.4808 22.5348 35.1627 22.9799 34.7275 23.191C34.6931 23.2072 34.6759 23.2556 34.6475 23.2923C34.7001 23.522 34.7517 23.7508 34.8065 23.9926C35.1465 24.141 35.3576 24.0047 35.5552 23.8903C36.3596 23.4253 37.0725 22.8148 37.9267 22.4251C38.2568 22.2791 38.5823 22.1229 38.906 21.9601C39.1989 22.2289 39.4855 22.5006 39.7658 22.7753C40.1998 23.2031 40.6338 23.6262 41.0678 24.0447C40.8858 24.1685 40.6873 24.2662 40.4781 24.3349C40.0485 24.4683 39.6802 24.7292 39.2989 24.9547C38.8139 25.2253 38.3475 25.5183 37.9969 25.9963C37.8448 26.2028 37.6761 26.4055 37.3343 26.3534C37.0976 26.3172 36.8981 26.4985 36.6833 26.5827C36.7256 26.8784 36.7586 27.1095 36.7953 27.3648C37.238 27.6126 37.5068 27.5536 37.7281 27.3383C37.9006 27.17 38.0569 26.9705 38.2601 26.8542L39.6472 26.0637L40.3484 25.681L41.0831 25.3555C41.3937 25.2235 41.7006 25.0868 41.9987 24.937C42.6655 25.5685 43.3394 26.1885 44.0205 26.797C43.9694 26.8398 43.9187 26.8821 43.8666 26.9231C43.6806 27.0728 43.4537 27.1732 43.2919 27.3509C43.005 27.6638 42.738 27.9958 42.2382 27.9493C41.7332 28.392 41.2194 28.8175 40.6074 29.0979C40.3386 29.2257 40.1485 29.5001 39.8969 29.6661C39.6058 29.8591 39.4268 30.1264 39.5286 30.6961C40.0197 31.0681 40.3284 30.85 40.6069 30.6626C41.2505 30.2287 41.9266 29.8442 42.479 29.2676C42.6994 29.0555 42.9789 28.9184 43.2393 28.7617C43.8438 28.3957 44.5078 28.1055 45.1565 27.7893C45.8618 28.3917 46.5845 28.9807 47.3248 29.5564C47.116 29.6786 46.9063 29.8028 46.7054 29.9339C46.4139 30.1199 46.0967 30.2943 45.8982 30.5849C45.6192 30.9969 45.2304 31.2136 44.8157 31.4108L44.0121 31.8181C43.729 31.9762 43.4597 32.1664 43.15 32.265C42.8687 32.3538 42.613 32.4477 42.4832 32.7616C42.447 32.849 42.387 32.9397 42.3093 32.9634C41.7136 33.142 41.257 33.5493 40.7785 33.9222C40.5209 34.1236 40.2512 34.3091 40.015 34.5402C39.7327 34.8299 39.4268 35.0606 39.0176 35.1447C38.6316 35.2177 38.3252 35.4214 38.2559 36.0138C38.7674 36.2491 39.1459 36.1468 39.4649 35.9641C39.7439 35.8022 40.0341 35.6548 40.3182 35.4991L41.1436 35.0015C41.6899 34.6621 42.22 34.2961 42.6967 33.8348C43.2951 33.2647 44.087 32.9513 44.8161 32.5635C45.1467 32.3961 45.4978 32.2636 45.8173 32.078L48.3948 30.5403L48.5343 30.4636C49.3745 31.0997 50.1725 31.7632 50.9467 32.4463C50.4482 32.7755 49.9274 33.0583 49.421 33.367C48.9146 33.6758 48.4543 34.0264 47.933 34.2896C47.5713 34.4723 47.2662 34.6909 47.1528 35.1629C46.6878 34.9741 46.3874 35.1387 46.1274 35.3902C46.0209 35.5009 45.9317 35.705 45.7977 35.6953C45.2979 35.6567 45.0477 35.9906 44.7631 36.3133C44.5771 36.5258 44.2637 36.5834 44.074 36.795C43.7531 37.1512 43.3551 37.353 42.9231 37.5162C42.7194 37.5916 42.5376 37.7199 42.3623 37.8492C42.2658 37.9145 42.1979 38.0144 42.1726 38.1282C42.1542 38.2736 42.1818 38.4211 42.2517 38.5499C42.3168 38.6564 42.493 38.7768 42.5772 38.7638C42.8194 38.7266 43.0654 38.6685 43.2649 38.5425C44.3902 37.8273 45.5062 37.0977 46.6129 36.3537C46.8649 36.1854 47.1546 36.0329 47.3029 35.7557C47.5108 35.3754 48.0084 35.7655 48.2362 35.5093C48.2506 35.493 48.2767 35.4916 48.2957 35.4805L49.7744 34.6388C50.3534 34.3082 50.9453 34.0111 51.5163 33.6581L51.9711 33.3707C52.6653 34.0129 53.3452 34.6676 54.025 35.3298C53.9238 35.3911 53.8183 35.4448 53.7093 35.4907C53.2666 35.6716 52.9332 36.0775 52.5272 36.3277C52.1589 36.5527 51.7628 36.7281 51.5391 37.1577C51.4824 37.267 51.3289 37.3163 51.1969 37.3209C50.2204 37.3553 49.64 38.0649 48.9184 38.5299C48.8322 38.774 48.6749 38.9866 48.4668 39.1405C48.2684 39.2946 48.0383 39.4029 47.7931 39.4576C47.4648 39.539 47.4211 39.9133 47.6006 40.1667C47.7498 40.3806 47.9939 40.4118 48.3111 40.2225C48.3348 40.2007 48.4199 40.1598 48.4617 40.0784C48.6514 39.6901 48.9597 39.5143 49.3806 39.4981C49.5377 39.4902 49.6693 39.3897 49.7991 39.3121C50.3971 38.9554 51.036 38.655 51.5721 38.2123C51.986 37.8696 52.4817 37.6976 52.9467 37.4581C53.6279 37.114 54.3114 36.7141 54.9248 36.2426L54.9434 36.2282C55.5042 36.7764 56.0696 37.327 56.6467 37.8771C56.8531 38.0733 57.0614 38.2656 57.2716 38.4541C57.0912 38.5583 57.0094 38.8684 56.9364 39.1209C56.9061 39.2256 57.0294 39.4367 57.1177 39.7138C57.3916 39.5711 57.6036 39.4613 57.8152 39.3511L58.1133 39.1851C58.9373 39.8826 59.7794 40.5373 60.6201 41.193C60.2904 41.4148 59.9579 41.6385 59.6375 41.8635C59.3664 42.0551 59.0558 42.1858 58.7606 42.3392C58.3704 42.5406 57.8492 42.6061 57.6199 42.9688C57.3451 43.4106 56.8689 43.4287 56.5551 43.7165C55.9668 44.2745 55.2726 44.6754 54.5137 44.966C54.2566 45.0641 54.1682 45.2761 54.2812 45.5733C54.3686 45.8016 54.6662 45.9918 54.8778 45.8593C55.1749 45.6733 55.5618 45.663 55.8441 45.4831C56.4644 45.086 57.0266 44.6093 57.6143 44.1495C57.7162 44.0639 57.811 43.9504 57.9366 43.917C58.6857 43.7128 59.3971 43.4296 60.0481 43.0297C60.3341 42.854 60.5796 42.6112 60.8614 42.4294C61.1164 42.2715 61.3804 42.1285 61.6519 42.0012C62.3824 42.5796 63.1041 43.1697 63.8044 43.797C63.6554 43.915 63.4889 44.0091 63.311 44.076C63.0437 44.169 63.0074 44.6038 63.1883 44.9479C63.3148 45.1878 63.5928 45.2799 63.8807 45.172C63.9444 45.1483 63.996 45.099 64.0578 45.0692C64.3238 44.9437 64.5693 44.8418 64.8116 44.7437C65.0475 44.9775 65.28 45.2172 65.5091 45.4631C65.9586 45.9501 66.4202 46.4261 66.8939 46.8911C66.4405 47.3059 65.9299 47.6411 65.3952 47.9452L64.4861 48.4749C64.3136 48.5721 64.2071 48.7074 64.0383 48.7344C63.6793 48.7911 63.425 49.0031 63.2064 49.2728C62.9442 49.5983 62.5749 49.7462 62.2587 49.9796C61.6542 50.4246 61.046 50.8566 60.4034 51.2398C60.1802 51.3793 59.9979 51.6346 59.7961 51.8322C59.6594 51.9724 59.5119 52.1016 59.3548 52.2186C58.3932 52.8854 57.3023 53.33 56.2356 53.8149C55.6162 54.1093 55.0123 54.4352 54.4263 54.7915L53.719 54.7975C53.4358 54.7975 50.9871 55.3327 51.3438 55.96C51.4616 56.1665 51.5789 56.3732 51.6958 56.5803C51.4949 56.7152 51.3071 56.8351 51.1522 56.9188C50.4273 57.3471 49.7823 57.9228 48.9797 58.2208C48.804 58.2864 48.6542 58.4068 48.4864 58.491C48.2506 58.6072 48.1925 58.8718 48.1841 59.3159C48.6087 59.5782 48.7538 59.3791 48.9653 59.2694L51.1885 58.0385C51.4619 57.8925 51.7795 57.82 52.0483 57.6665C52.1118 57.6262 52.1755 57.5836 52.2394 57.5387C52.7236 58.3989 53.2027 59.2637 53.6767 60.1329C53.5177 60.2259 53.367 60.3119 53.2336 60.3766L50.8207 61.6837C50.6254 61.7925 50.424 61.8953 50.2329 62.0143C50.0331 62.1416 49.8438 62.2848 49.667 62.4426C49.361 62.7327 49.0323 62.9215 48.6231 63.0071C48.1581 63.1057 47.7963 63.3893 47.5578 63.9585C48.3018 64.1812 48.7998 63.9557 49.2234 63.5507C49.3266 63.4521 49.4145 63.2954 49.5489 63.2856C50.4589 63.2182 50.9555 62.676 51.6112 62.3556C52.1083 62.1101 52.5965 61.8464 53.0829 61.58L53.8125 61.1796C53.9236 61.1173 54.0269 61.0657 54.1436 60.9978C54.6923 62.0236 55.2262 63.057 55.7455 64.098C55.7408 64.1542 55.739 64.2137 55.7399 64.2756C55.7399 64.4616 55.892 64.6629 56.0343 64.6843C56.9419 66.5443 57.7859 68.4355 58.5271 70.3638C59.452 72.7684 60.0263 75.1738 61.1576 77.4974C61.4441 78.0864 61.7263 78.6765 62.0044 79.2677C61.9489 79.2463 61.8886 79.2405 61.83 79.2509C61.6682 79.2974 61.5436 79.4667 61.4487 79.6294C61.3399 79.8154 61.5338 80.1409 61.7603 80.1614C61.8802 80.1726 61.9928 80.1321 62.0723 80.12C62.1574 80.0586 62.2206 80.027 62.2671 79.9754C62.2825 79.9587 62.2969 79.941 62.3136 79.9224C63.0079 81.4104 63.6835 82.9081 64.3568 84.4092C61.9305 85.5769 59.497 86.7275 57.0563 87.8609C56.3802 86.4525 55.7292 85.042 55.1033 83.6294C55.1745 83.5857 55.2038 83.4638 55.2684 83.2183C55.0573 82.9221 54.9127 82.8807 54.7913 82.9207C54.3458 81.9039 53.9118 80.8825 53.4893 79.8564L53.5693 79.8168C53.636 79.7106 53.6889 79.5964 53.7269 79.4769C53.7469 79.4025 53.6972 79.2444 53.639 79.1514C53.5816 79.0604 53.5001 78.9871 53.4034 78.9397C53.3068 78.8923 53.1989 78.8727 53.0917 78.8831C52.7306 77.9894 52.3767 77.0904 52.0301 76.1861C52.1449 76.1374 52.263 76.097 52.3835 76.0652C52.5886 76.0187 52.7011 75.8364 52.6425 75.5072C52.3766 75.1538 52.1222 75.0329 51.8316 75.1659C51.779 75.1896 51.7242 75.2124 51.6688 75.2347C51.5464 74.9101 51.4252 74.5846 51.3052 74.2582C50.5552 72.2201 49.8539 70.3099 48.8379 68.4569L52.0464 67.1339C52.3911 66.9875 52.7261 66.8193 53.0494 66.6304L54.0017 66.097C54.0528 66.0667 54.0966 66.0256 54.1301 65.9766C54.2347 65.8306 54.1529 65.5488 53.9599 65.3683C53.5805 65.0154 53.1475 64.9201 52.9629 65.3525C52.7528 65.844 52.3394 65.8984 51.9553 66.0403C51.7763 66.0933 51.6001 66.1553 51.4275 66.2263L48.7049 67.4501L48.3418 67.6017C48.2968 67.5273 48.2503 67.4529 48.2023 67.3785C47.621 66.455 47.1039 65.5292 46.6213 64.5885L46.6752 64.5964C46.719 64.6119 46.7647 64.6216 46.811 64.6253C46.8901 64.632 46.9695 64.6158 47.0398 64.5788C47.1793 64.5076 47.2918 64.3658 47.4169 64.2068C47.1486 64.0245 46.9695 63.9524 46.8352 64.0026C46.7591 64.0354 46.6975 64.0945 46.6617 64.1691C46.6152 64.2389 46.6041 64.3086 46.539 64.4281C45.9916 63.354 45.4881 62.2617 44.9859 61.1364C45.755 60.7644 46.5515 60.4491 47.3322 60.098C47.4626 60.0427 47.5742 59.9508 47.6536 59.8334C47.7001 59.7595 47.707 59.5707 47.6536 59.4661C47.6001 59.3615 47.4336 59.2248 47.3541 59.2252C47.1526 59.2246 46.9531 59.265 46.7677 59.3438C46.3525 59.527 45.961 59.7577 45.5466 59.9409C45.2639 60.0669 44.9752 60.1803 44.6878 60.2952L44.6222 60.3212L44.6083 60.2891C44.2553 59.4893 42.1196 60.3152 41.6565 60.6505C38.2429 63.1215 35.0632 65.7771 31.9328 68.5024L31.3641 68.9958C30.1598 70.0498 28.9576 71.1106 27.7576 72.1783C27.752 70.2851 27.7424 68.3919 27.7288 66.4988C28.1501 66.2811 28.5886 66.044 29.0173 65.818L30.5053 65.0131C30.6143 64.9566 30.7195 64.8929 30.8201 64.8224C30.8601 64.7922 30.8945 64.7638 30.9238 64.7369C30.9652 64.702 31.0293 64.6541 31.0656 64.6178C31.2274 64.4625 31.2325 64.3481 31.1093 64.2458C31.0169 64.165 30.8996 64.1182 30.7768 64.1133C30.7217 64.1121 30.6666 64.1183 30.6132 64.1319C30.5812 64.1341 30.5498 64.1415 30.5202 64.1538C30.4025 64.2003 30.2998 64.3114 30.1835 64.3584L29.1233 64.801C28.9568 64.8699 28.7806 64.9196 28.6225 65.0033C28.3203 65.1628 28.0147 65.3544 27.7097 65.5278C27.5074 64.9917 24.3775 65.4999 24.3882 66.4764C24.391 66.7322 24.3929 66.9879 24.3957 67.2437L24.4026 68.0161C24.4243 70.4492 24.4361 72.8827 24.438 75.3166C24.438 76.2103 27.3368 75.0166 27.6186 74.7711C31.8147 71.1041 35.7593 67.4883 39.8913 64.1496C40.1075 64.0008 40.3242 63.8534 40.5446 63.7125L41.7071 62.9741L42.0108 62.7853C43.0603 64.9782 44.2116 67.0833 45.3011 69.2246C45.4397 69.4971 45.5772 69.7703 45.7136 70.0444C46.5362 71.6975 47.3099 73.3812 47.9605 75.1524C48.2085 75.8313 48.4616 76.5063 48.7198 77.1775C48.7902 77.361 48.8607 77.5445 48.9314 77.728C49.339 78.782 49.7575 79.8286 50.1869 80.8677C50.2712 81.0714 50.3555 81.2748 50.4398 81.4778C50.9017 82.5839 51.3767 83.6844 51.8646 84.7793C51.9843 85.0475 52.1047 85.3158 52.2259 85.5842C52.8351 86.9306 53.4664 88.2741 54.1199 89.6148C54.4802 90.3547 56.2765 89.6544 56.7573 89.433C60.2293 87.8322 63.6858 86.2021 67.1268 84.5426C67.2882 84.4645 67.9541 84.1297 67.8206 83.8316C66.772 81.4927 65.7281 79.1612 64.6042 76.8566C63.5984 74.7911 63.0018 72.6861 62.2499 70.5563C62.1495 70.2718 62.0458 69.9867 61.9388 69.7012C61.91 69.625 61.881 69.5489 61.8519 69.4729C61.4715 68.4809 61.0654 67.4994 60.6336 66.5285C60.5215 66.2742 60.4071 66.0207 60.2923 65.7678C59.8558 64.8099 59.4009 63.8602 58.9275 62.9187C58.8146 62.693 58.7007 62.4678 58.5857 62.2431C58.0668 61.2263 57.5334 60.2168 56.9856 59.2145C56.843 58.9517 56.6995 58.6894 56.5551 58.4277C56.1583 57.7076 55.7579 56.9906 55.354 56.2767C56.377 56.2929 57.4 56.2841 58.3913 56.1771C59.3827 56.0702 60.3639 55.8312 61.3441 55.5522C62.3796 55.2569 63.4073 54.9179 64.4187 54.6445H64.4415C64.8986 54.6124 65.3566 54.5515 65.8132 54.4925C65.9992 54.4687 66.1852 54.446 66.3712 54.4232C67.3942 54.306 68.4172 54.1539 69.4402 54.0707C69.8844 54.0354 70.3294 54.0054 70.7752 53.981C71.4648 53.9419 72.1558 53.9131 72.8463 53.888L73.7256 53.8554C74.3032 53.8335 74.8807 53.8089 75.4568 53.7838C75.7954 53.7675 78.4328 53.0779 77.7363 52.4874ZM59.7468 54.7194C59.7622 54.6938 59.1242 54.7719 58.8577 54.757C58.2416 54.7226 57.6111 54.757 56.9908 54.7701L57.1935 54.685C57.6511 54.478 58.0426 54.147 58.5141 53.9703C59.4069 53.6369 60.1128 53.0124 60.9056 52.525C62.0081 51.7587 62.9809 50.8045 64.2768 50.3586C64.5136 50.2762 64.7414 50.17 64.9567 50.0415C65.7574 49.5876 66.6772 49.1389 67.4812 48.6088C67.7448 48.4368 68.0392 48.3517 68.3335 48.2684C68.8153 48.7117 69.3033 49.1485 69.7978 49.5788C69.3355 49.869 68.908 50.2113 68.5237 50.599C68.3354 50.8013 68.0796 50.9245 67.849 51.0733C67.1245 51.5495 66.3531 52.014 65.7565 52.4841C65.377 52.7706 65.0148 53.0849 64.6451 53.3862C62.9893 53.7196 61.3897 54.3283 59.7468 54.7208V54.7194ZM68.6841 52.8385C68.8236 52.7617 69.0236 52.7603 69.1254 52.6436C69.6178 52.0814 70.3484 51.8661 71.05 51.5443C71.1431 51.4731 71.231 51.3954 71.3132 51.3119L71.296 51.283C71.3712 51.2075 71.4388 51.1248 71.4978 51.0361C72.0868 51.5321 72.6758 52.027 73.2648 52.5209C71.7368 52.5999 70.207 52.6934 68.6841 52.8398V52.8385Z" fill="#5CFFE4"/>
</svg>
