<svg xmlns="http://www.w3.org/2000/svg" xmlns:xlink="http://www.w3.org/1999/xlink" width="185" height="200" viewBox="0 0 185 200">
    <defs>
        <path id="prefix__a" d="M0 0.112L86.694 0.112 86.694 57.905 0 57.905z"/>
        <path id="prefix__c" d="M0.179 0.212L67.284 0.212 67.284 53.61 0.179 53.61z"/>
        <path id="prefix__e" d="M0.864 0.327L136.907 0.327 136.907 170.597 0.864 170.597z"/>
    </defs>
    <g fill="none" fill-rule="evenodd">
        <path d="M0 0H185V200H0z"/>
        <g>
            <path fill="#C58FFF" d="M133.329 63.352L104.372 70.538 133.924 83.473 155.219 94.478 178.036 88.033 153.899 78.837z" transform="translate(0 20)"/>
            <g transform="translate(0 20) translate(0 .231)">
                <path fill="#000" d="M152.28 91.027c-4.098-2.117-8.196-4.234-12.293-6.353-10.354-5.35-21.233-9.713-31.934-14.343 8.033-1.995 16.064-3.987 24.097-5.98 6.503 4.979 12.952 11.119 20.06 15.07 6.655 3.7 14.692 5.852 21.998 8.45-5.876 1.478-12.037 2.75-17.52 5.015-.179.074-3.102-1.184-4.409-1.86m27.319-4.117c-7.738-2.948-16.94-5.253-24.005-9.127-7.025-3.855-13.868-10.443-20.45-15.397-.199-.152-.494-.212-.831-.21-.32-.057-.716-.057-1.217.066l-28.958 7.187c-.5.125-2.64 1.198-1.327 1.773 12.313 5.39 24.772 10.464 36.715 16.635 4.662 2.41 11.3 7.971 16.712 7.069 7.388-1.232 14.816-4.186 22.035-6.224.434-.122 2.692-1.252 1.326-1.772"/>
                <mask id="prefix__b" fill="#fff">
                    <use xlink:href="#prefix__a"/>
                </mask>
                <path fill="#5CFFE4" d="M58.403 55.828L48.581 56.939 38.89 53.983 29.702 49.59 19.646 48.542 10.649 44.267 3.043 37.867 1.206 28.401 0 19.116 0.339 8.756 6.267 0.112 4.805 10.49 11.279 18.14 19.092 23.406 27.733 29.348 37.83 31.633 48.148 30.068 58.204 28.392 69.823 26.981 76.514 34.881 80.911 43.766 86.694 51.161 77.4 52.811 68.392 57.905z" mask="url(#prefix__b)"/>
                <g transform="translate(115.522 1.343)">
                    <mask id="prefix__d" fill="#fff">
                        <use xlink:href="#prefix__c"/>
                    </mask>
                    <path fill="#5CFFE4" d="M19.084 53.61L29.865 51.341 40.549 49.156 50.488 44.753 60.092 39.997 67.284 32.032 67.107 21.515 66.544 10.827 61.564 0.212 62.349 11.618 56.516 20.639 47.129 25.685 37.01 29.232 26.22 27.291 15.706 30.555 3.798 27.665 0.179 43.057 8.69 49.83z" mask="url(#prefix__d)"/>
                </g>
                <path fill="#C58FFF" d="M61.01 53.736L68.813 29.967 81.689 8.779 117.3 12.311 121.539 30.378 132.085 47.349 131.762 72.075 137.773 109.818 136.671 143.874 112.307 163.572 112.148 176.277 88.877 175.388 70.871 142.64 69.85 123.987 52.453 108.467 55.51 83.245 32.913 97.073 5.437 92.681 35.059 75.73z"/>
                <g transform="translate(2.687 7.06)">
                    <mask id="prefix__f" fill="#fff">
                        <use xlink:href="#prefix__e"/>
                    </mask>
                    <path fill="#000" d="M132.832 111.748l-.492 15.212c-.094 2.878.427 6.794-.289 9.625-.4.343-.92.67-1.25.917-1.624 1.2-3.154 2.55-4.725 3.82-4.579 3.7-9.155 7.4-13.732 11.1-1.514 1.225-3.981 2.548-4.695 4.41-1.065 2.785-.39 7.416-.201 10.904l-9.583-.366-8.053-.307c-.661-.025-1.448.062-2.12-.052-2.398-3.056-4.014-7.343-5.871-10.724-2.931-5.33-5.864-10.66-8.794-15.99-1.595-2.9-2.779-4.868-2.97-6.648-.553-5.087.365-10.895-.869-15.848-.667-2.677-2.397-3.651-4.612-5.628-3.994-3.563-7.894-7.28-12.003-10.708-1.714-1.43-1.046.125-.64-1.867.56-2.724.682-5.613 1.016-8.373.616-5.066 1.23-10.132 1.843-15.2.211-1.737-2.454-1.18-3.249-.692l-11.298 6.914c-2.729 1.668-5.454 3.337-8.184 5.006-.624.383-1.472.76-2.111 1.228-7.65-1.198-15.298-2.437-22.944-3.664 8.788-4.858 17.974-9.427 26.217-15.041 9.278-6.318 17.579-14.756 26.146-22.043.383-.202.688-.487.81-.855 2.55-7.773 4.38-16.349 7.802-23.77 3.171-6.88 7.979-13.362 12.036-19.842 7.124.708 14.25 1.414 21.378 2.12 3.807.378 7.685.575 11.472 1.136.713 1.996.988 4.315 1.468 6.362.814 3.47 1.168 7.669 2.57 10.957 1.231 2.884 3.442 5.603 5.092 8.256 1.633 2.63 4.48 5.783 5.489 8.76-.256-.503-.088 2.056-.094 2.511l-.107 8.122c-.076 5.855-.532 11.692.391 17.48l4.322 27.133c.94 5.909 1.031 9.528.834 15.645m-.313-37.856c-.758-4.754-1.482-8.562-1.424-12.898.083-6.386 1.627-14.535.271-20.772-1.31-6.028-7.642-11.337-10.238-16.959-2.324-5.032-3.19-12.652-4.569-18.534-.129-.548-.765-.808-1.264-.857L79.686.34c-.98-.096-2.022.327-2.54 1.178-4.211 6.932-9.485 13.83-12.875 21.187-3.39 7.354-5.22 15.836-7.735 23.553-8.074 6.89-17.508 16.04-25.072 21.338-9.18 6.431-19.83 11.348-29.566 16.918-1.256.72-1.556 2.21.168 2.486l14.382 2.298c3.955.633 9.578 2.688 13.594 2.098 3.53-.517 7.585-4.276 10.518-6.072l9.945-6.083-1.259 10.367c-.364 3.012-2.476 9.37-1.427 12.32.996 2.796 6.52 6.004 8.655 7.91l6.281 5.603c.684.61 1.466 1.191 2.088 1.862.263.284.4.413.473.466 1.448 4.465.451 11.128.776 15.75.194 2.73.877 3.944 2.226 6.398 2.789 5.07 5.577 10.143 8.366 15.217 2.18 3.962 4.161 9.893 7.263 13.207 2.136 2.28 5.61 1.522 8.773 1.643 5.353.202 10.706.407 16.059.614.835.029 2.638-.369 2.652-1.541.04-3.137.079-6.273.116-9.411.009-.604.351-2.882-.059-2.9.519-.44 1.216-.839 1.631-1.175l18.527-14.977c3.948-3.192 4.293-3.497 4.457-8.543l.772-23.883c.372-11.489-2.555-22.96-4.356-34.276" mask="url(#prefix__f)"/>
                </g>
                <path fill="#000" d="M44.977 79.427C40.673 81.486 36.88 83 32.08 84.934c-2.546 1.026.724 1.911 2.303 1.276 4.809-1.939 9.55-3.874 14.222-6.11 2.833-1.356 5.035-3.227 6.237-5.042-.4 2.857-.8 5.715-1.202 8.572-.159 1.137 3.71.43 3.856-.622.568-4.053 1.137-8.106 1.703-12.158.194-1.385-3.284-.011-3.706.397-4.262 4.108-5.96 6-10.516 8.18zM112.869 162.188c-2.24-.347-5.019-1.304-7.277-.97-2.346.348-4.83 1.874-7.022 2.76-2.468.999-.288 3.124 1.727 2.31l3.127-1.266 1.963-.792.242-.093c.137.008.279.02.403.044.736.153 1.495.231 2.237.347l3.255.5c1.928.298 3.954-2.438 1.345-2.84M109.149 147.434c-1.948-.881-3.967-1.674-5.865-2.654-1.493-.77-2.595-2.172-3.995-3.677-1.034-1.112-1.753-2.109-3.115-2.674-1.906-.792-4.276-1.002-6.295-1.475-1.147-.269-2.693.186-3.118 1.375-.698 1.955-1.395 3.908-2.095 5.861-.541 1.515 3.396 1.057 3.916-.399.472-1.318.944-2.638 1.414-3.956 1.14.242 2.276.494 3.377.83.293.089.653.298.89.507 1.012.896 1.89 2.032 2.81 3.022 2.55 2.742 5.604 3.744 9.024 5.29 1.315.596 4.82-1.25 3.052-2.05M136.737 142.263c-3.048-.144-6.863-1.165-9.328.952-.834.718-1.63 1.487-2.443 2.229l-.829.756c-1.533.746-3.084 1.456-4.625 2.184-2.42 1.142-.243 2.89 1.644 1.998 1.767-.833 3.845-1.505 5.458-2.616 1.28-.882 2.422-2.067 3.56-3.182l5.145.243c1.719.082 4.048-2.44 1.418-2.564M125.875 74.586c-.37-1.367-6.924-1.498-6.55-.125 2.416 8.893 4.941 18.047 6.674 27.073 1.779 9.272 1.686 18.376 2.555 27.733.121 1.291 4.031.451 3.892-1.044-.87-9.38-.771-18.435-2.555-27.732-1.732-9.027-1.6-17.014-4.016-25.905zM90.156 76.615c4.637 14.972 6.41 33.981 1.305 48.97-.743 2.18 3.147 2.274 3.743.529 5.306-15.585 3.672-34.96-1.156-50.541-.58-1.877-4.47-.822-3.892 1.042M132.25 64.431c-5.652-1.769-11.29-3.577-16.953-5.311-4.246-1.302-7.964-.01-12.338.784-4.527.82-9.218 1.195-13.44 3.05-5.618 2.473-11.168 5.12-16.749 7.678-2.416 1.107-.271 3.245 1.733 2.328l14.992-6.874c4.113-1.884 7.758-2.317 12.916-3.25 2.844-.516 5.724-.937 8.547-1.55.159-.034.272-.059.382-.081.884.219 1.774.58 2.631.847 5.345 1.677 10.691 3.352 16.038 5.027 1.691.53 4.582-1.913 2.24-2.648"/>
                <path fill="#FFF" d="M67.743 83.153L74.087 80.426 80.153 77.291 86.048 73.838 92.306 76.163 92.591 83.069 91.081 89.769 88.687 96.308 82.926 100.202 76.124 101.324 71.745 96.276 69.677 89.911z"/>
                <path fill="#000" d="M89.167 90.133c-1.123 3.823-1.882 6.128-5.11 8.311l-.174.108c-1.41.84-2.982 1.375-4.606 1.63-.56.088-1.104.18-1.517.266-2.322-2.663-3.999-4.473-5.103-7.877-1.037-3.195-1.959-6.42-2.884-9.65 5.466-2.392 10.671-5.05 15.837-7.999 1.237.356 2.594.73 3.505 1.378 1.648 1.178 1.29 1.476 1.388 3.837.145 3.477-.344 6.625-1.336 9.996m4.39-15.234c-1.633-.75-4.656-1.756-6.231-1.797-2.214-.06-4.355 1.675-6.135 2.72-4.528 2.652-9.08 4.773-13.85 6.839-.877.268-1.642.673-1.544 1.012 1.31 4.58 2.201 10.333 4.947 14.214 1.3 1.839 2.642 3.812 4.758 4.113 1.965.28 5.64-.64 7.563-1.279 10.163-3.377 11.485-14.525 11.23-23.87-.011-.407-.096-1.656-.738-1.952"/>
                <path fill="#FFF" d="M136.46 84.817c-5.205-3.359-9.309-12.555-13.938-7.01 1.062 5.175 2.616 10.463 3.849 16.434.885 1.061 1.625 1.753 2.895 2.269 9.074 3.682 6.003-5.23 7.194-11.693"/>
                <path fill="#000" d="M127.113 88.385c-.554-2.297-1.145-4.585-1.695-6.882-.49-2.047-1.08-4.713 1.727-2.993 2.787 1.712 4.672 4.91 7.303 6.977-.351 2.733-.103 5.49-.452 8.219-.246 1.915-.547 2.529-2.589 1.95-3.425-.97-3.58-4.301-4.294-7.271zm11.316-4.006c-.03-.353-.253-.588-.58-.723-3.83-2.782-9.818-10.823-15.327-9.818-1.13.206-1.519 1.363-1.166 3.47.478 3.737.867 6.21 1.166 7.418.58 2.348 1.888 5.438 2.423 7.796.79 3.479 1.082 4.699 4.613 5.712 1.949.56 4.19.728 5.977-.417 3.901-2.494 2.301-9.192 2.877-13.091.037-.116.037-.231.017-.347zM82.292 76.201c-.723.029-2.298.353-3.23 1.003-3.903 2.72-5.73 3.733-10.07 5.617-.671.29-1.555 1.367-.896 2.094.113.125.242 2.655.324 3.424.113 1.076-.004 2.251.713 3.09 1.283 1.498 3.993 2.556 5.66 3.624.65.417 1.69.476 2.37.057 1.66-1.02 4.369-2.017 5.598-3.56 1.102-1.386 1.4-3.98 1.895-5.749-.274-5.479-1.533-7.226-2.364-9.6zM67.11 123.899c2.732 2.481 5.499 4.927 8.28 7.355 1.266 1.104 4.683-.755 3.008-2.216-2.782-2.426-5.547-4.873-8.28-7.353-1.244-1.13-4.657.719-3.009 2.214M121.45 29.578c-6.165-.523-12.358-1.315-18.533-1.643-2.755-.145-6.516-.837-9.213-.11-2.787.75-5.584 3.017-8.102 4.42-2.313 1.29-.21 3.182 1.68 2.126l3.798-2.117c.77-.43 3.811-2.006 4.253-2.026 2.285-.097 4.882.28 6.979.407 5.911.352 11.845 1.122 17.75 1.621 1.806.152 4.018-2.456 1.387-2.678M107.321 44.56c-2.822-.93-5.693-2.203-8.591-2.836-2.224-.487-4.453-.084-6.737.086-2.246.167-4.187.069-6.137 1.158-2.496 1.396-4.785 3.376-7.124 5.025-2.15 1.517.969 3.134 2.63 1.962 2.01-1.418 4.105-2.757 6.048-4.265.255-.2.53-.38.802-.567 1.33-.126 2.667-.198 3.999-.296 1.393-.103 2.842-.349 4.238-.315.08.002.137.002.185.001.284.095.568.206.824.294 2.541.873 5.105 1.685 7.655 2.527 1.8.594 4.57-1.995 2.208-2.774"/>
                <path fill="#000" d="M131.243 80.052c-.015-.08-.079-.138-.168-.184l-2.755-2.383c-.513-.445-2.013.063-2.5.24-1.06.387-2.118.773-3.178 1.158-.28.103-1.38.464-1.28.937l1.625 7.834c.159.763.159 1.323.675 1.821.83.798 2.488 1.264 3.525 1.792.717.364 3.514-.083 3.753-1.006.405-1.55 1.229-3.369 1.27-4.966.042-1.663-.663-3.6-.967-5.243"/>
                <path fill="#FFF" d="M75.54 82.002c-3.92 2.68-3.488 7.794 0 6.4 3.489-1.393 3.92-9.081 0-6.4zM127.418 80.242c-2.974 0-2.548 5.692 0 4.675 2.548-1.018 2.973-4.675 0-4.675z"/>
            </g>
        </g>
    </g>
</svg>
