<svg xmlns="http://www.w3.org/2000/svg" width="180" height="200" viewBox="0 0 180 200">
    <g fill="none" fill-rule="evenodd">
        <path d="M0 0H180V200H0z"/>
        <g>
            <g>
                <path fill="#C58FFF" d="M6.266 4.553L15.299 2.489 24.482 3.41 29.884 10.249 24.865 16.85 16.195 18.5 7.375 17.614 1.958 11.577z" transform="translate(1 28) translate(21.515 84.79)"/>
                <path fill="#000" d="M23.46 15.008l-3.7.704-2.876.548c-.336.064-.692.104-1.023.194-.041.012-.16.05-.257.085-.028 0-.053.002-.085-.002l-.998-.1-3.032-.304-3.668-.368-3.463-3.861c1.133-1.85 2.268-3.699 3.401-5.547l8.302-1.897c2.628.263 5.257.527 7.884.792l3.533 4.472-4.018 5.284m7.563-5.837l-3.714-4.7c-1.133-1.434-1.95-2.867-3.908-3.063l-7.258-.73c-.705-.07-1.37-.176-2.067-.054-.764.133-1.522.348-2.277.52L5.348 2.618l-.034.009-.246.055c-.376.086-.569.34-.654.654L.155 10.28c-.454.739.185 1.84.665 2.376 1.697 1.892 3.368 3.814 5.095 5.679 1.702 1.838 4.792 1.508 7.123 1.744 1.134.113 2.27.25 3.407.341.93.074 1.854-.21 2.767-.385l4.64-.883c.783-.149 2.032-.189 2.634-.743 1.037-.957 1.843-2.424 2.695-3.546l2.26-2.971c.704-.925.23-1.903-.418-2.721" transform="translate(1 28) translate(21.515 84.79)"/>
            </g>
            <path fill="#5CFFE4" d="M125.268 91.958L125.924 97.968 125.382 103.946 124.073 109.812 124.297 115.319 127.849 120.073 127.26 124.996 122.742 127.237 114.941 124.991 108.721 127.418 102.409 129.502 95.856 130.761 89.107 130.87 82.864 128.329 76.967 125.329 71.089 121.354 64.647 118.246 58.948 113.991 52.992 110.098 48.019 104.931 42.195 100.825 37.506 95.481 32.981 90.032 29.741 83.755 26.961 77.293 19.537 77.316 12.84 75.513 15.041 68.971 20.243 63.806 24.64 57.928 30.088 53.233 35.947 49.054 41.8 49.091 50.118 46.423 57.329 46.886 64.38 48.392 71.349 50.181 78.007 52.916 84.751 55.401 90.283 59.518 96.198 63.049 101.835 67.004 107.461 71.008 112.648 75.575 117.146 80.826 121.649 86.011z" transform="translate(1 28)"/>
            <path fill="#000" d="M116.237 126.504c-.048.04-.12.07-.178.106.091.013.184-.04.25-.094l-.066-.016-.006.004" transform="translate(1 28)"/>
            <path fill="#000" d="M125.54 123.43c.002.108-.005.178-.017.232-1.278.498-2.785 1.196-3.895 1.948-.008.004-.204.081-.243.118-.676-.235-1.39-.4-2.078-.598-1.607-.462-3.21-.945-4.822-1.39-1.082-.295-1.727.083-2.758.485-1.488.58-2.967 1.2-4.468 1.744-2.147.779-4.386 1.631-6.608 2.152-1.576.37-3.193.614-4.782.92-.453.087-.91.19-1.366.264-.076.008-.179.018-.235.017-.383 0-.768.013-1.15.019-1.574.026-3.337-.174-4.89.08-.048.007-.083.016-.115.025-.72-.313-1.459-.593-2.186-.89-2.566-1.044-4.98-2.176-7.453-3.434-.525-.267-1.047-.544-1.577-.803-.157-.151-.42-.281-.593-.398l-4.285-2.9c-2.19-1.48-4.708-2.476-7.084-3.624-.087-.04-.175-.089-.265-.135-.42-.332-.87-.638-1.293-.953-1.257-.939-2.504-1.892-3.772-2.816-1.832-1.336-3.784-2.697-5.76-3.852.112.074.073.06-.06-.035-.246-.143-.49-.296-.737-.431.345.19.566.32.701.405-.138-.101-.337-.26-.544-.475l-1.978-2.055c-.883-.917-1.726-1.974-2.74-2.757-1.154-.89-.625-3.403-1.815-4.244-.394-.277-4.651-4.078-12.77-11.402-1.734-2.97-2.55-4.336-2.448-4.098-.063-.146-.129-.293-.19-.44-.331-.799-.683-1.59-1.025-2.384l-1.558-3.623c-.414-.964-1.837-2.258-2.953-2.254-2.445.008-4.907-.076-7.349.023-.203-.058-.407-.11-.611-.165l-2.313-.623-.295-.079c.18-.53.357-1.06.536-1.59.32-.951.52-2.291 1.06-3.144.578-.913 1.731-1.718 2.495-2.477.886-.88 1.85-1.72 2.677-2.657 1.592-1.807 2.735-4.016 4.348-5.804 1.535-1.702 3.573-3.2 5.353-4.649 1.846-1.5 3.88-2.805 5.824-4.18 1.724.011 3.449.044 5.173.03 1.376-.012 2.75-.675 4.046-1.09 1.116-.36 2.233-.718 3.35-1.076.366-.117.735-.226 1.098-.352.14-.05.496-.13.457-.15 1.753-.1 3.66.251 5.403.364.41.027.83.079 1.241.08.123 0 .188-.002.222-.005.776.131 1.55.334 2.318.497 1.553.332 3.115.63 4.658 1.002 1.976.476 3.939 1.012 5.907 1.516.257.066.539.18.803.207-.093-.01-.515-.22.048.014.938.388 1.878.77 2.818 1.157 3.28 1.346 6.59 2.58 9.916 3.807 2.76 2.05 5.479 4.037 8.44 5.805.877.523 1.74 1.105 2.646 1.58l.062.03c.318.224.637.446.955.669 1.483 1.04 2.968 2.075 4.446 3.122 1.73 1.223 3.426 2.502 5.182 3.687l.153.104c.195.18.406.347.6.517l2.864 2.523c.347.306.692.618 1.045.919.103.089.17.153.221.205-.034-.043-.07-.087-.118-.16.037.054.082.107.12.162.11.111.108.131.037.05.496.684 1.149 1.312 1.691 1.944 1.06 1.237 2.114 2.476 3.18 3.705l2.683 3.088c.351.404.687.832 1.058 1.219l.042.041c.01.022.014.033.031.067.965 1.852 2.178 3.611 3.278 5.394.266 2.267.722 4.582.515 6.855-.259 2.866-.587 5.501-1.212 8.305-.244 1.088-.545 2.084-.5 3.194.06 1.493-.082 3.154.187 4.624.212 1.159 1.407 2.262 2.09 3.178.453.606.887 1.24 1.365 1.826.005.005.025.035.055.075-.033.123-.025.34-.034.416l-.315 2.633c-.044.371-.143.776-.137 1.149zM18.426 75.883c.141.029.335.1.026.007l-.026-.007zM90.4 58.616c.204.11.503.391.185.138-.06-.048-.123-.092-.185-.138zm16.188 12.69c.055.062.123.116.185.175-.06-.05-.128-.112-.185-.175zm19.27 44.504c.095-.1.137.1.159.276-.108-.158-.173-.263-.16-.276zm2.717 3.639c-.174-.234-1.932-2.466-2.524-3.314l.006-.16c.013-.355-.029-.722-.044-1.079l-.12-2.967c-.096-2.368.922-4.632 1.273-6.959.381-2.526.619-5.146.342-7.682l-.463-4.24c-.033-.3-.171-.582-.363-.843-1.18-1.963-2.261-4.06-3.619-5.897-1.396-1.89-3.108-3.592-4.643-5.372-1.602-1.858-3.09-3.915-4.854-5.622-1.647-1.593-3.447-3.071-5.186-4.566-1.87-1.61-4.036-2.94-6.05-4.365-1.875-1.324-3.753-2.645-5.64-3.956-.986-.686-2.048-1.267-3.08-1.885-.978-.582-2.121-1.556-3.213-1.928l-.296-.22c-.663-.494-1.327-.987-1.99-1.482-.958-.712-1.902-1.443-2.872-2.137-1.083-.774-2.44-1.141-3.68-1.598-1.403-.518-2.798-1.064-4.211-1.552l-.021-.007-.212-.087c-.615-.255-1.233-.506-1.849-.76-1.386-.569-2.77-1.145-4.159-1.708-2.25-.912-4.778-1.328-7.129-1.92-2.276-.572-4.594-1-6.888-1.49-2.367-.506-4.872-.46-7.282-.616-2.272-.146-4.568 1.037-6.705 1.722l-1.904.611c-.138.044-.956.271-.808.287-1.288.14-2.702-.028-3.989-.036-.918-.006-1.74-.164-2.5.368-1.248.874-2.483 1.77-3.724 2.656-1.892 1.35-3.607 2.842-5.37 4.36-.67.578-1.431 1.12-2.006 1.79-.895 1.046-1.667 2.228-2.49 3.329-1.43 1.91-2.882 3.473-4.58 5.158-.731.726-1.849 1.505-2.4 2.383-.582.93-.797 2.37-1.145 3.404l-1.055 3.139c-.373 1.108 1.704 2.438 2.579 2.673l3.484.938c1.158.313 2.387.807 3.584.942 1.758.199 3.61.098 5.427.027.653 1.588 1.31 3.177 2.093 4.693 1.212 2.355 2.223 5.012 3.922 7.058 1.694 2.04 3.368 4.096 5.116 6.09 1.9 2.165 3.6 4.276 5.957 5.939 1.29.91 2.556 1.935 3.904 2.763.094.115.275.246.348.322l1.846 1.918c1.006 1.044 1.964 2.272 3.12 3.156 1.161.888 2.463 1.627 3.685 2.424l2.062 1.35.384.25c1.291 1.033 2.656 1.983 3.98 2.971 2.309 1.722 4.8 2.848 7.393 4.1.408.197.823.427 1.245.607l.002.002c.255.207.553.375.825.558l4.346 2.94c2.098 1.419 4.569 2.543 6.866 3.595 1.192.548 2.439.995 3.654 1.49 1.08.44 2.347 1.182 3.522 1.3 1.537.153 3.194-.052 4.738-.078.967-.014 1.897.003 2.845-.18 2.752-.529 5.437-.985 8.093-1.863 2.748-.906 5.427-1.87 8.122-2.922.504-.196 1.29-.356 1.786-.662-.08-.011-.154-.076-.2-.236.01.034.206.086.384.127.205-.169.174-.075.067.015l.21.048c1.717.495 3.433.99 5.149 1.482.925.268 2.01.813 2.932.451.741-.291 1.46-.724 2.172-1.077.586-.291 1.457-.547 1.965-.975.776-.653.61-2.946.725-3.918.061-.5.253-1.142.106-1.643-.152-.516-.683-1.017-.995-1.434z" transform="translate(1 28)"/>
            <path fill="#000" d="M111.565 75.717l-.037-.05-.003-.002.04.052M53.785 109.606l.06.034-.096-.06c.012.007.025.018.036.026" transform="translate(1 28)"/>
            <path fill="#C58FFF" d="M141.707 43.459L134.093 48.972 125.274 51.575 116.05 51.876 108.048 50.551 100.095 48.849 91.957 48.906 83.831 48.392 75.828 49.987 68.732 53.881 62.026 58.412 57.054 64.641 53.691 71.84 51.054 79.271 56.488 83.058 63.42 79.339 71.367 75.008 78.997 70.183 87.675 67.62 96.582 68.673 104.698 72.315 112.827 77.333 119.725 83.973 125.315 92.397 131.984 88.171 139.589 84.966 147.708 83.407 155.884 83.308 156.884 74.626 155.818 65.863 152.476 57.706 148.076 50.021z" transform="translate(1 28)"/>
            <path fill="#000" d="M117.744 84.792c.017.029.07.083.16.161-.006-.01-.012-.015-.018-.024-.047-.046-.096-.09-.142-.137M132.958 89.61c.065-.027.136-.076.218-.15l-.02.008c-.06.05-.125.098-.198.143M133.08 47.535c-.053.016-.117.048-.17.095l.047-.015c.039-.028.078-.054.123-.08" transform="translate(1 28)"/>
            <path fill="#000" d="M142.598 82.747c-1.993.383-3.747.739-5.613 1.525-2.094.883-4.388 1.606-6.367 2.733-1.543.877-3.037 1.86-4.528 2.84l-3.848-5.8c-1.454-2.192-3.646-3.886-5.531-5.7-.829-.796-1.624-1.726-2.576-2.377-1.14-.78-2.365-1.46-3.54-2.185-2.23-1.378-4.346-2.719-6.732-3.79-2.56-1.149-5.159-2.732-7.97-3.064l-5.727-.676c-1.197-.142-2.265-.372-3.447-.043-2.801.784-5.788 1.45-8.495 2.51-1.195.467-2.293 1.371-3.368 2.05-1.44.91-2.874 1.83-4.32 2.732-4.393 2.743-9.128 5.075-13.732 7.495l-3.367-2.347c.56-1.582 1.123-3.165 1.684-4.748l.461-1.298c.107-.303.42-.936.067-.228.343-.688.65-1.393.975-2.087l1.616-3.46c.182-.39.386-.777.55-1.175.08-.199.225-.472.19-.449 1.128-1.61 2.501-3.108 3.726-4.64.247-.31.53-.611.751-.941.031-.048.085-.1.133-.154.703-.357 1.385-.965 2.022-1.395 1.47-.994 2.914-2.072 4.434-2.991 1.75-1.058 3.599-1.976 5.391-2.958.349-.19.702-.377 1.047-.575.64-.07 1.359-.323 1.94-.44 1.253-.248 2.507-.498 3.76-.748.458-.091.923-.169 1.377-.275l.071-.016c.788.22 5.602.304 6.075.334 1.364.086 2.688.115 4.056.105l3.83-.027 1.414-.01c.05 0 .168-.01.294-.02.076.008.338.015.478.046.513.114 1.027.22 1.54.33l3.744.802c1.423.305 2.839.573 4.273.81 2.07.344 4.193.873 6.286 1.041 1.577.128 3.251-.09 4.833-.14 1.791-.06 3.901.154 5.645-.32 1.953-.531 3.886-1.147 5.827-1.72 1.355-.399 2.8-.643 3.958-1.48l5.419-3.926c1.618 1.683 3.232 3.37 4.88 5.02.08.191.217.377.32.556l1.428 2.494c.83 1.448 1.746 2.874 2.499 4.365 1.287 2.549 2.031 5.371 3.27 7.946.013.137.042.275.05.41.057.784.191 1.569.287 2.347.221 1.823.341 3.693.667 5.5.018.094.022.222.024.305l-.04.348-.322 2.8-.428 3.729-5.048.06c-2.132.026-4.204.57-6.293.97m-2.296 3.724c-.122.11-.71.133 0 0m-15.296-36.509c-.03.01-.061.016-.09.027-.611.203-.418.033.09-.027M153.7 66.28l.018.04c.145.3.016.288-.018-.04m4.797 3.803c-.179-1.475-.21-3.062-.548-4.51-.309-1.317-1.033-2.609-1.543-3.855-.63-1.536-1.189-3.13-1.899-4.631-.52-1.103-1.214-2.149-1.82-3.207-.85-1.486-1.63-3.05-2.566-4.485-.807-1.234-2.09-2.262-3.108-3.313l-3.582-3.69c-.309-.317-.732-.472-1.183-.514-.592-.128-1.256-.05-1.811.353l-4.602 3.331c-.85.615-1.716 1.212-2.55 1.846-.036.03-.121.076-.206.127.107-.034.146-.006-.123.08-.063.043-.114.087-.125.124.013-.044.043-.08.077-.11-.048.016-.09.03-.158.048-2.256.611-4.488 1.324-6.729 1.985-.31.091-.622.179-.932.275-.59-.001-1.203.073-1.776.093-2.216.072-4.475.283-6.693.219-1.582-.047-3.218-.49-4.78-.75l-3.083-.51c-.005 0-.007 0-.013-.002.062.01.109.017.103.015-.306-.12-.69-.148-1.01-.217-2.188-.468-4.372-.96-6.565-1.404-3.104-.629-6.464.063-9.625-.137l-6.893-.436c-1.594-.1-3.178.39-4.732.7-1.763.351-3.95.466-5.565 1.306-1.935 1.007-3.83 2.102-5.744 3.151-1.245.684-2.389 1.455-3.568 2.253-1.534 1.037-3.47 1.976-4.795 3.288-1.421 1.41-2.58 3.233-3.828 4.798-.997 1.247-1.67 2.322-2.349 3.773-.84 1.799-1.776 3.58-2.517 5.423-.752 1.87-1.36 3.812-2.033 5.71l-.682 1.927c-.225.63.317 1.163.767 1.477l5.432 3.786c.744.52 1.888.278 2.616-.114 4.854-2.604 9.736-5.168 14.54-7.864 2.32-1.302 4.528-2.835 6.777-4.257.26-.165.758-.365 1.026-.607.22-.047.453-.142.654-.201l5.21-1.54c.584-.172 1.174-.336 1.756-.518 1.434.329 3.033.347 4.486.518l2.687.318c.167.02.414.08.66.126-.333-.12-.445-.338-.061-.132.125.07.26.12.393.177.126.01.244.01.337-.014-.1.025-.197.036-.288.036.083.035.166.074.247.111l2.467 1.107c2.307 1.036 4.522 2 6.667 3.325l4.801 2.965c.368.226.732.468 1.107.684.134.153.304.29.446.427l4.172 4.015c.6.576 1.183 1.182 1.805 1.735.033.031.066.062.098.096-.032-.057.032-.016.141.135.036.036.07.074.107.103-.042-.033-.056-.05-.087-.078.01.014.016.018.025.034 1.728 2.75 3.596 5.42 5.391 8.125.697 1.05 2.244 1.158 3.264.513l5.881-3.728c.143-.09.323-.185.491-.287-.163.07-.24.025-.012-.053.072-.025.14-.06.212-.09.025-.02.064-.038.086-.061-.023.024-.044.033-.067.054l.417-.176 3.75-1.58 1.842-.776c.144-.061.993-.3 1.12-.458l.062-.013c.588-.104 1.174-.224 1.762-.338 1.44-.277 2.882-.552 4.323-.83.399-.076.918-.089 1.293-.247.018-.008.018-.012.032-.019 2.586-.003 5.173-.062 7.759-.094.885-.01 2.336-.382 2.462-1.486l.532-4.624c.168-1.46.524-3.018.483-4.494-.039-1.402-.346-2.851-.515-4.242" transform="translate(1 28)"/>
            <path fill="#000" d="M95.554 70.261c.106.038.235.068.38.067l-.049-.022c-.107-.01-.218-.024-.331-.045" transform="translate(1 28)"/>
            <path fill="#C58FFF" d="M82.171 112.525L74.727 110.985 71.87 112.882 71.798 105.338 63.621 103.773 60.957 105.571 61.258 105.22 61.247 96.547 52.229 94.721 44.263 100.11 37.823 107.257 39.395 115.372 47.651 117.389 50.793 115.257 52.118 122.307 59.522 124.036 63.08 121.618 64.353 127.873 71.023 129.468 77.236 125.215 82.203 119.695z" transform="translate(1 28)"/>
            <path fill="#5CFFE4" d="M133.072 45.856L140.828 53.964 145.799 64.01 148.284 74.888 148.079 86.073 151.622 89.277 162.754 86.37 173.902 83.191 175.22 73.426 174.882 63.716 172.547 54.291 168.522 45.45 162.762 37.626 156.011 30.415 144.838 35.904 133.577 41.004z" transform="translate(1 28)"/>
            <path fill="#000" d="M152.646 87.878l-2.421-2.19c.058-3.236.118-6.47.177-9.705.049-2.688-.906-5.363-1.501-7.97-.313-1.37-.516-2.828-.952-4.166-.335-1.032-.958-2.02-1.438-2.987l-2.745-5.549c-.367-.741-.654-1.513-1.2-2.13-2.34-2.644-4.892-5.124-7.337-7.672l.43-4.13c5.781-2.621 11.535-5.262 17.233-8.063.777-.38 1.553-.761 2.33-1.143 2.035 2.074 4.181 4.129 5.882 6.44l4.448 6.04c.854 1.16 1.372 2.235 1.975 3.559.967 2.125 1.986 4.238 2.906 6.385l.013.059c.085.353.174.705.263 1.058l.932 3.767c.384 1.547.97 3.162 1.11 4.752.21 2.397.168 4.842.253 7.247.13 3.733-.602 7.448-1.134 11.146-6.394 1.813-12.796 3.562-19.224 5.252m24.429-22.898c-.05-1.435-.339-2.626-.687-4.034-.553-2.229-.984-4.534-1.667-6.726-.53-1.7-1.47-3.333-2.205-4.95-.674-1.478-1.233-3.13-2.11-4.5-1.28-2.003-2.849-3.871-4.259-5.786-2.4-3.26-5.331-6.085-8.096-9.038-.893-.955-2.59-.63-3.622-.124-3.63 1.783-7.262 3.557-10.886 5.347l-.06.025c-.33.14-.655.296-.982.444l-3.424 1.552c-2.145.971-4.298 1.927-6.434 2.914-1.145.529-1.204 1.066-1.32 2.196l-.362 3.467c-.075.127-.084.261-.019.4.025.222.184.395.436.52l5.162 5.397c.713.745 1.626 1.479 2.222 2.323.426.603.7 1.388 1.026 2.049 1.3 2.625 2.692 5.225 3.905 7.891l.015.028c.005.035.01.083.021.15.083.553.252 1.107.377 1.652l1.137 4.976c.435 1.904.906 3.587.87 5.526-.055 3.036-.294 6.127-.167 9.16.039.957.891 1.437 1.58 2.06 1.275 1.153 2.304 2.587 4.193 2.417.938-.086 1.885-.435 2.79-.671 1.653-.433 3.309-.864 4.963-1.296 5.054-1.32 10.069-2.776 15.093-4.209.623-.178 1.381-.422 1.478-1.148l.81-6.002c.201-1.482.536-2.986.483-4.486l-.261-7.524" transform="translate(1 28)"/>
            <path fill="#C58FFF" d="M42.806 46.63L35.678 54.514 30.622 63.897 28.14 74.278 28.418 84.942 23.865 89.161 13.361 86.118 2.764 83.162 1.228 73.437 1.668 63.704 4.024 54.266 7.885 45.314 13.513 37.311 20.649 30.781 31.381 35.448 41.936 40.655z" transform="translate(1 28)"/>
            <path fill="#000" d="M2.549 74.58c.008-.109.003-.086 0 0M35.37 51.766c-1.704 1.885-2.698 4.315-3.897 6.542-.68 1.258-1.545 2.533-2.081 3.861-.358.885-.484 1.925-.707 2.853l-1.38 5.772c-.195.815-.453 1.611-.46 2.452-.028 3.339.167 6.694.26 10.033-1.383 1.297-2.721 2.723-4.208 3.893-.055.044-.08.072-.097.095-.01 0-.013-.003-.026-.004-.27-.012-.587-.17-.846-.245l-3.316-.96c-3.466-1.004-6.932-2-10.407-2.969l-4.566-1.275-.572-3.617c-.168-1.066-.337-2.132-.504-3.199-.021-.133-.019-.314-.014-.417-.002.048-.008.112-.017.219.02-.237.021-.475.032-.711l.336-7.437c.018-.419.047-.839.057-1.258l.001-.125c.002.001.004 0 .006-.01.195-.872.434-1.736.65-2.603.548-2.197.959-4.492 1.66-6.646.534-1.647 1.381-3.244 2.066-4.834.626-1.45 1.133-3.076 1.964-4.422 1.232-1.994 2.721-3.87 4.07-5.788l.964-1.37c.085-.12.5-.67.388-.551-.108.117.419-.357.527-.455l1.26-1.155 5.177-4.736c3.46 1.498 6.956 2.93 10.375 4.515 2.998 1.39 5.946 2.902 8.905 4.383l.498 3.423-6.099 6.746m8.74-3.706c.019-.177-.008-.38-.073-.599-.254-1.811-.47-3.636-.796-5.432-.537-2.956-3.17-3.722-5.508-4.875-3.687-1.819-7.348-3.606-11.114-5.244l-6.653-2.895c-.15-.1-.306-.117-.466-.052l-4.604 4.213c-1.096 1.002-2.249 1.907-3.102 3.122L7.49 42.414c-.844 1.2-1.345 2.33-1.932 3.69-.912 2.115-1.985 4.22-2.755 6.39-.598 1.684-.902 3.525-1.335 5.258C1.076 59.324.464 60.97.353 62.594.184 65.027.13 67.476.02 69.912c-.184 4.1.857 8.197 1.495 12.238.16 1.014 1.158 2.577 2.195 2.866 4.115 1.149 8.238 2.274 12.341 3.464 2.763.8 5.57 1.872 8.392 2.43.81.16 1.154-.472 1.753-1.026 1.024-.95 2.313-1.865 3.188-2.954.459-.569.324-1.141.304-1.873l-.125-4.786c-.037-1.385-.029-2.778-.109-4.162-.01-.162 0-.32.001-.378.068-.345.168-.69.25-1.03.689-2.88 1.33-5.776 2.068-8.645.488-1.906 1.857-3.732 2.784-5.453.725-1.344 1.488-2.674 2.177-4.037.05-.1.105-.208.164-.306l.063-.075c.356-.43.753-.834 1.129-1.248 1.955-2.164 3.91-4.327 5.867-6.49l.003-.006c.108-.036.169-.15.148-.381" transform="translate(1 28)"/>
            <path fill="#000" d="M13.888 69.41c-1.118-.328-2.404-.165-3.502.158-1.09.32-2.214.808-2.977 1.683-1.08 1.24-1.35 3.071-.406 4.478 1.168 1.743 3.286 1.977 5.197 1.544 1.242-.28 2.574-.796 3.441-1.771.653-.734 1.006-1.6 1.02-2.588-.023-1.678-1.194-3.038-2.773-3.503M166.788 69.2c-1.138-.35-2.48-.083-3.568.306-.933.333-1.78.836-2.396 1.622-.966 1.23-1.078 3.109-.283 4.451.37.623.917 1.163 1.598 1.432 1.035.41 2.186.312 3.244.031 1.182-.314 2.316-.85 3.081-1.831.552-.708.796-1.597.808-2.487-.02-1.578-.94-3.052-2.484-3.525" transform="translate(1 28)"/>
            <g fill="#C58FFF">
                <path d="M13.736 8.985c1.004 1.293 1.938 2.729 3.05 3.93.485.523 1.115.607 1.803.832l11.666 3.806c1.769.578 3.114.596 5.048.27 1.29-.217 2.576-.453 3.864-.68L50.6 15.13c.33-.058 2.19-.301 1.918-.756-.272-.452-3.612-.688-3.954-.627-3.406.6-7.827 1.225-13.262 1.877-4.426-.89-8.06-1.798-10.904-2.726-.55-.18-1.303-.29-1.805-.59.065.038.092.057-.074-.114-.222-.229-.404-.522-.6-.772l-4.83-6.224-3.84-4.95c-.404-.52-2.35-.073-2.896.003-.205.029-2.9.64-2.787.785l6.17 7.95zM13.278 27.609c.435.334.96.912 1.471 1.126.573.236 1.435.048 2.025.02l9.65-.445 7.791-.36c.747-.035 1.738-.154 2.35-.63.414-.321.74-1.5 0-1.468-5.442.253-11.115.552-16.558.804-.534.025-3.258-.129-3.496-.311-2.51-1.918-4.712-3.372-7.222-5.29l-6.11-4.668c-.699-.534-3.552.792-3.138 1.109l13.237 10.113z" transform="translate(1 28) translate(11.484 133)"/>
            </g>
            <g fill="#C58FFF">
                <path d="M37.566 20.93c-1.517-1.63-2.795-3.557-4.86-4.443l-10.59-4.545c-.9-.387-1.671-.82-2.655-.86-1.256-.052-2.521-.02-3.778-.03l-10.975-.084c-1.325-.01-2.75.17-4.017.557-.86.263-.492 1.651.592 1.66l9.242.07c1.635.013 5.813.432 5.975.467 4.113.894 6.42 1.87 9.886 3.358.54.233 1.078.483 1.626.7.11.042.24.083.34.145.136.084-.164-.129.02.017.996.792 1.833 1.971 2.699 2.901l7.259 7.804c.478.514 2.292.08 2.895-.003.22-.03 2.872-.692 2.787-.784l-6.446-6.93zM37.396.918c-.52-.28-1.11-.742-1.696-.876-.657-.15-1.69.147-2.36.247-3.14.47-6.279.942-9.418 1.413L16.277 2.85c-.339.05-1.959.402-1.958.876 0 .54 1.444.835 1.783.784 6.123-.92 11.362-1.37 17.486-2.29l15.094 7.594c.58.312 1.565-.016 2.133-.22.147-.053 1.484-.63 1.006-.888L37.396.918z" transform="translate(1 28) rotate(-6 99.777 -734.783)"/>
            </g>
            <path fill="#000" d="M80.505 119.493c.118-.225.431-.394 0 0m-.029.086c.005.083.016.147.038.169-.05-.048-.05-.109-.038-.169m-2.35 2.554c-.706.785-1.475 1.546-2.133 2.37-.017.009-.026.009-.047.019-.342.167-.666.455-.978.669l-4.14 2.835-4.93-1.179-1.097-5.39 4.165-4.01c.236-.228.472-.456.71-.683.198-.192.384-.514.306-.804-.077-.29-.4-.48-.666-.543-.794-.19-1.762.06-2.352.63l-4.866 4.685c-.045.026-.096.05-.134.075l-2.637 1.79-5.656-1.32-1.133-6.036 4.627-4.456.71-.683c.2-.192.384-.514.306-.803-.077-.29-.4-.48-.666-.544-.794-.19-1.76.062-2.351.63l-5.016 4.83c-.183.07-.349.148-.47.23l-2.213 1.5-6.518-1.592c-.451-2.324-.901-4.648-1.35-6.973.917-1.02 1.836-2.038 2.755-3.058l2.273-2.522c.237-.263.477-.523.711-.79.03-.034.12-.119.196-.195.099-.064.224-.15.257-.17.3-.189.588-.397.88-.596l2.694-1.822 3.084-2.087 7.113 1.439.005 3.698.003 3.002c0 .222-.045.519-.003.75-.004.004-.006.004-.01.01-.477.555-.31 1.258.292 1.61.7.41 1.603.156 2.227-.266l1.774-1.198 6.27 1.2.064 6.607c.013 1.489 1.944 1.273 2.805.702l1.942-1.29 5.558 1.15.023 5.236c0 .073-.04.47-.034.73-.852.773-1.582 1.76-2.35 2.613m5.749-6.417l-.016-3.301c-.003-.68-.486-1.039-1.084-1.14-.016-.003-.027-.008-.043-.011-2.16-.448-4.322-.894-6.482-1.341-1.05-.217-1.71-.286-2.716.305l-.048-5c-.006-.688-.498-1.031-1.127-1.15l-6.792-1.302c-.957-.182-1.71-.377-2.568-.05-.027-.436-.057-.86-.058-1.25l-.006-5.04c0-.693-.503-1.025-1.126-1.15l-8.218-1.664c-1.075-.218-1.897-.099-2.836.529-1.252.836-2.494 1.688-3.743 2.532-1.964 1.33-3.76 2.459-5.34 4.213l-3.497 3.879c-.572.635-1.92 1.663-2.04 2.593-.055.423.155.998.233 1.402l.525 2.714.84 4.333c.102.526.66.71 1.101.816l7.116 1.74c1.12.272 1.886.439 2.958-.266.201-.134.399-.273.598-.407l.95 5.053c.098.52.664.712 1.102.815 2.29.535 4.575 1.125 6.878 1.607 1.176.245 2.328-.306 3.405-1.028.283 1.39.568 2.78.85 4.172.107.524.657.71 1.101.816 2.101.501 4.2 1.1 6.32 1.51 1.97.382 4.198-1.85 5.713-2.888 1.547-1.059 2.774-1.964 4.018-3.346l2.8-3.112c.49-.544 1.128-1.059 1.249-1.806.19-1.19-.013-2.574-.017-3.777" transform="translate(1 28)"/>
        </g>
    </g>
</svg>
