<svg xmlns="http://www.w3.org/2000/svg" width="180" height="180" viewBox="0 0 180 180">
    <g fill="none" fill-rule="evenodd">
        <g>
            <g>
                <g>
                    <path d="M0 180L180 180 180 0 0 0z" transform="translate(-302 -14567) translate(252 8097) translate(50 6470)"/>
                    <g>
                        <path fill="#FFF" d="M39.587 13.753l-4.04-2.622-4.863-.328-4.807-.654-4.792-.791-4.694-1.29-4.376-.901-4.39.535-3.75 2.233-1.22 4.123 2.617 3.512 4.636.691-4.074 2.114-2.619 3.522.554 4.267 2.908 3.272 4.321.901 4.056.358-2.69 4.021 2.17 4.295 4.512 1.666 4.866-.79 4.548-2.593c.93-.243 1.434-.141 1.512.306.589 3.382 3.075 4.92 4.524 5.717 2.057 1.13 2.967 1.06 2.732-.21l1.196-4.97 2.465-3.622 2.605-3.506 2.38-3.656-.741-4.27-.711-4.283-2.031-3.839-2.804-3.208z" transform="translate(-302 -14567) translate(252 8097) translate(50 6470) translate(27.18 36.36)"/>
                        <path fill="#000" d="M40.967 13.139c-.053-.06-.118-.111-.19-.154l-.015-.011c-1.81-1.175-3.327-2.454-5.419-2.839-2.638-.485-5.486-.437-8.16-.83-4.737-.695-9.525-2.734-14.274-3.03-3.884-.242-8.95 1.027-10.778 4.635-1.395 2.751-1.015 4.085.987 6.237 1.121 1.204 2.31 1.548 3.708 1.747-3.431 2.058-6.457 4.878-4.582 9.433 1.847 4.489 6.529 4.873 10.79 5.196l-2.077 3.103c-.096.153-.125.316-.088.49 1.932 3.824 3.185 6.209 8.002 6.497 3.109.184 5.835-1.111 8.435-2.573l.71 2.808c.13.506 1.525 5.812 1.939 5.755 3.792-.528 7.869-.665 10.835-3.407 2.287-2.114 2.823-11.229 4.583-13.823.92-1.357 1.83-2.401 1.902-3.962.081-1.792-.705-4.066-1.004-5.87-.641-3.868-2.786-6.519-5.304-9.402M38 42.099c-.593.643 1.363 3.43 0 4.097-.076.042-3.708 1.356-6.845 0-1.794-1.824-.91-6.155-1.2-7.303-.25-.986-1.916-.443-2.448-.14l-2.275 1.297c-.589.337-1.173.734-1.787 1.02-2.246.605-3.604.66-5.28.06-2.084-.746-3.472-1.218-3.876-3.963-.208-1.407 1.126-2.82 2.172-4.382.41-.615-.359-.99-.851-1.034-3.961-.35-8.557-.129-10.377-4.224-.972-2.188-.339-3.61.7-5.302.24-.394.54-.874.873-1.26.041-.009.212-.121.456-.285.994-.675 2.194-1.14 3.266-1.694.971-.506 1.22-1.477-.064-1.67-2.975-.443-3.948-.005-5.12-2.116-.964-1.738-.949-.879-.825-2.52.04-.534.987-2.693.638-2.447.626-.622 2.136-1.412 2.985-1.77-.867.402 2.238-.24 2.828-.255 1.096-.025 3.245.452 4.995.88 3.781.925 7.453 1.741 11.319 2.273 2.05.283 4.126.333 6.17.611 1.643.224 2.946 1.243 4.809 2.463 3.613 4.162 8.157 11.939 4.761 17.047-1.698 2.555-2.951 8.375-5.024 10.617" transform="translate(-302 -14567) translate(252 8097) translate(50 6470) translate(27.18 36.36)"/>
                        <path fill="#000" d="M12.893 31.651s4.473-1.445 6.008-2.326c.128-.072.288-.067.41.017.749.528 1.176.99 1.41 1.3.152.202.082.49-.147.6l-5.618 2.73-2.063-2.321zM7.398 17.172s3.914.1 5.362-.168c.121-.023.247.027.318.127.444.62.65 1.102.749 1.409.064.202-.071.41-.282.433l-5.167.592-.98-2.393z" transform="translate(-302 -14567) translate(252 8097) translate(50 6470) translate(27.18 36.36)"/>
                        <path fill="#A9FF03" d="M7.961 86.188L4.846 82.72 2.928 78.496 1.684 74.115 6.481 74.408 11.187 75.286 15.889 76.147 20.674 76.602 25.307 77.866 30.027 78.69 34.679 79.835 39.149 81.182 40.041 86.046 40.759 91.061 41.7 96.047 42.257 101.092 42.72 106.15 43.653 111.148 43.877 115.99 41.26 112.254 38.409 108.373 35.276 104.708 31.809 101.354 28.199 98.168 24.318 95.347 20.582 92.503 16.636 89.954 12.29 88.138 8.219 85.768" transform="translate(-302 -14567) translate(252 8097) translate(50 6470) translate(27.18 36.36)"/>
                        <path fill="#000" d="M40.77 80.745c-.049-.298-.42-.566-.683-.645-12.134-3.652-25.184-6.369-37.84-7.148-.794-.048-2.5.46-2.179 1.597 1.407 4.985 2.955 8.485 6.417 12.341.332.37.911.455 1.486.366 13.255 6.534 24.666 14.857 33.523 26.846.81 1.093 3.27.242 3.099-1.14-1.341-10.752-2.104-21.502-3.824-32.217M9.52 85.602c-.124-.06-4.743-5.613-5.675-10.113 10.581.87 21.556 3 31.66 5.953.312.091 1.42.291 2.057.53-.139.14.167.957.238 1.283.292 1.334.45 2.726.633 4.081.42 3.107.866 6.214 1.275 9.321.5 3.795 1.019 9.818 1.341 13.632-8.717-10.13-19.33-18.76-31.53-24.687" transform="translate(-302 -14567) translate(252 8097) translate(50 6470) translate(27.18 36.36)"/>
                        <path fill="#A9FF03" d="M123.365 25.181L123.589 30.248 122.429 35.245 121.757 40.041 116.857 40.543 111.83 41.268 107.358 43.686 102.562 45.549 99.177 49.419 95.99 53.288 92.697 57.093 90.424 61.593 88.116 66.05 85.789 70.537 84.308 75.497 81.184 79.654 78.637 84.08 75.28 87.954 72.814 92.513 69.527 96.456 65.94 100.132 62.281 103.739 58.342 107.036 53.937 109.722 49.946 112.94 45.473 115.491 42.406 111.554 40.019 107.283 39.161 102.317 41.051 97.707 42.956 93.035 45.678 88.815 48.778 84.881 52.107 81.133 55.395 77.366 58.545 73.486 61.849 69.73 64.28 65.228 68.232 62.033 71.208 57.983 74.762 54.45 78.323 50.943 81.595 47.243 85.301 43.958 89.077 40.733 93.362 38.162 96.559 34.204 100.654 31.382 104.374 28.082 108.24 24.956 112.527 22.502 117.931 23.759z" transform="translate(-302 -14567) translate(252 8097) translate(50 6470) translate(27.18 36.36)"/>
                        <path fill="#000" d="M125.004 25.061c-.002-.035-.013-.062-.017-.096.121-.367-.038-.71-.69-.881-3.469-.909-8.986-3.371-12.49-2.546-4.112.968-8.03 5.508-11.128 8.121-1.628 1.372-3.65 2.364-5.195 3.798-1.951 1.81-2.77 3.578-4.527 4.753-3.814 2.55-7.439 5.285-10.717 8.549-3.33 3.316-6.79 6.795-9.936 10.291-1.399 1.555-2.449 3.401-3.93 4.87-1.84 1.818-3.345 2.606-4.597 4.888-4.486 8.178-12.35 14.317-17.722 21.935-2.508 3.556-6.08 9.446-6.521 13.85-.514 5.139 3.566 9.899 6.46 13.614.478.613 1.577.604 2.198.249 6.035-3.443 12.308-7.533 17.445-12.232 2.565-2.348 5.111-4.91 7.426-7.501 2.556-2.86 3.987-6.043 6.238-9.052 2.26-3.02 4.241-6.126 6.468-9.168 2.233-3.05 2.808-6.212 4.483-9.54 1.666-3.314 3.336-6.647 5.097-9.909 1.76-3.261 4.603-6.1 7.007-8.938 1.086-1.28 2.838-3.41 3.533-3.84 1.765-1.088 4.074-1.586 5.948-2.578 3.349-1.77 7.232-1.997 11.78-2.46.727-.077 1.664-.496 1.779-1.316.715-5.11 1.837-9.687 1.608-14.861m-18.24 17.594c-1.613.764-3.614 1.052-5.098 2.037-2.654 1.761-4.896 5.57-6.943 8.005-2.468 2.933-4.1 5.29-5.846 8.705-1.548 3.022-3.482 6.063-4.717 9.22-.684 1.749-.902 3.594-1.827 5.214-.901 1.579-2.236 2.946-3.2 4.504-4.098 6.618-8.589 13.278-14.094 18.84-5.582 5.643-12.081 10.504-18.92 14.541-2.484-3.13-5.333-6.722-5.171-10.853.124-3.157 2.754-8.32 4.626-11.302 4.74-7.548 11.585-13.55 16.975-20.608 1.237-1.62 1.862-3.752 3.144-5.29.673-.81 2.94-2.135 4.06-3.374 3.08-3.413 5.992-6.842 9.218-10.17 2.92-3.014 5.698-5.944 8.892-8.688 1.892-1.627 4.039-2.652 5.98-4.167 1.567-1.223 2.448-3.004 3.894-4.36 1.63-1.529 3.751-2.591 5.456-4.078 1.92-1.676 3.811-3.498 5.908-4.954 1.01-.701 2.34-1.634 3.497-2.054.826.032 1.771.418 2.57.608 2.2.52 4.383 1.093 6.569 1.667.082 4.45-.774 8.505-1.442 12.885-2.905.211-6.116.32-8.765 1.166-1.682.536-3.177 1.752-4.767 2.506" transform="translate(-302 -14567) translate(252 8097) translate(50 6470) translate(27.18 36.36)"/>
                        <path fill="#A9FF03" d="M84.187 1.379L78.104 1.463 72.748 4.282 66.794 5.506 62.219 9.535 56.499 11.788 52.217 16.054 48.651 20.89 44.797 25.515 42.547 31.107 39.879 36.457 38.8 42.373 36.708 48.446 32.499 53.305 29.062 58.697 24.216 62.843 19.187 66.762 13.125 68.912 7.743 72.271 2.481 74.096 7.914 76.289 13.222 80.254 19.273 82.908 24.3 87.145 29.346 92.181 35.183 96.43 39.451 101.896 44.803 99.914 49.975 96.873 55.284 94.075 59.967 90.324 64.526 86.446 69.181 82.59 72.659 77.657 75.686 72.479 79.212 67.555 81.713 62.04 83.88 55.984 86.589 50.056 91.289 45.511 96.158 41.347 100.011 35.944 106.201 33.594 111.695 30.37 117.576 27.933 124.043 25.465 119.192 20.946 115.293 16.494 110.7 12.764 105.736 9.582 101.169 5.648 95.572 3.553 89.785 2.24 83.983 1.291" transform="translate(-302 -14567) translate(252 8097) translate(50 6470) translate(27.18 36.36)"/>
                        <path fill="#000" d="M116.536 15.545c-3.025-2.863-6.656-4.727-9.924-7.228-3.53-2.7-5.633-4.51-10.017-5.84C92.691 1.293 88.552.745 84.536.09c-.273-.045-.544-.013-.8.067-1.734-.024-3.63-.212-5.287.089-1.838.335-3.34 1.56-5.037 2.32-3.374 1.517-6.653 1.256-9.605 3.855-2.845 2.505-6.364 3.093-9.207 5.406-3.04 2.474-5.045 5.695-7.439 8.722-4.81 6.083-8.057 12.809-9.721 20.406-1.012 4.618-2.592 7.313-5.489 10.914-2.827 3.517-4.023 6.116-7.175 8.808-1.745 1.488-3.527 2.928-5.365 4.304-1.427 1.067-3.499 1.46-6.105 2.619-4.615 2.053-6.59 3.783-11.132 5.356-.974.337-2.063 1.67-.621 2.252 4.086 1.648 6.708 3.787 10.427 5.996 3.694 2.195 6.806 3.163 10.11 6.073 5.549 4.891 11.344 9.527 15.883 15.34.377.482 1.777.795 2.337.588 13.026-4.826 27.152-13.65 34.697-25.593 2.03-3.213 3.871-6.577 5.756-9.856 2.04-3.551 3.086-7.593 4.592-11.364 1.765-4.417 3.563-6.684 7.075-9.87 1.474-1.338 7.388-7.41 8.915-8.824.478-.443.385-.45 1.945-.993 1.28-.445 2.653-.9 3.884-1.473 1.955-.91 3.686-2.281 5.613-3.25 3.945-1.988 8.319-3.387 12.442-4.961.861-.328.742-1.866.056-2.506-3.075-2.863-5.72-6.104-8.75-8.97M101.869 33.98c-2.89 1.816-6.037 4.463-9.438 7.942-3.31 3.05-5.71 5.595-7.2 7.634-2.352 3.215-3.355 7.854-4.794 11.518-1.452 3.698-3.198 6.706-5.43 9.956-2.018 2.939-3.675 6.084-5.734 9.003-2.15 3.048-5.263 5.169-8.105 7.587-6.327 5.382-13.23 9.695-20.94 12.706-4.593-5.63-10.165-10.136-15.654-14.948-3.439-3.015-6.435-3.926-10.292-6.209-1.823-1.08-3.293-2.763-5.124-3.83-.967-.564-2.048-.991-3.139-1.39 2.554-1.137 4.8-2.425 7.508-3.849 2.044-1.075 6.694-2.54 9.672-4.859 2.657-2.067 5.624-4.138 7.69-6.777 1.298-1.658 2.197-3.622 3.501-5.274 1.22-1.543 2.971-2.913 3.905-4.65 1.935-3.595 1.976-7.651 3.089-11.451.962-3.288 3.053-7.602 4.68-10.669 1.64-3.092 4.796-6.518 7.063-9.258 1.101-1.33 2.328-2.618 3.621-3.77 1.27-1.13 3.125-1.345 5.474-2.591 1.71-.906 2.947-2.254 4.467-3.486 1.573-1.274-.001-.488 1.954-.988 1.285-.327 2.675-.399 3.933-.808 1.975-.644 3.634-2.003 5.577-2.718.232-.086.364-.138.452-.176.622-.044 1.359.024 1.9.015 1.184-.015 2.365-.032 3.548-.048h.004c3.602.576 7.294 1.083 10.78 2.145 4.274 1.299 6.278 3.3 9.766 5.862 3.24 2.38 6.717 4.18 9.602 7.058 2.491 2.485 4.799 5.044 7.304 7.499-3.29 1.224-6.636 2.419-9.795 3.922-3.37 1.603-5.508 2.178-9.845 4.902" transform="translate(-302 -14567) translate(252 8097) translate(50 6470) translate(27.18 36.36)"/>
                        <g>
                            <path fill="#000" d="M85.917 17.294c-.793-.94-3.749-.863-4.306-2.951-.558-2.092 1.88-3.86 2.127-4.902.086-.15.09-.299-.017-.437-.053-.105-.148-.186-.273-.246C78.816 4.952 74.088 2.8 68.67.196c-.81-.39-1.933-.011-2.584.512-.947.762-1.894 1.523-2.84 2.286-1.852-1.392-3.36-2.683-5.77-2.24-3.254.596-6.137 2.453-8.9 4.127-4.994 3.026-9.762 6.39-14.066 10.36-3.927 3.623-7.697 8.976-9.728 13.892-1.31 3.173-1.406 6.497-2.524 9.646-1.007 2.838-2.793 5.656-4.48 8.124-4.653 6.806-9.114 11.495-16.703 14.954-.34.154-1.427.826-.855 1.327.744.65 3.495 2.339 3.776 3.303-.082-.277-2.05 2.82-2.564 3.603-.203.308-.134.688.225.84 3.018 1.286 4.672 2.139 6.918 4.48 1.619 1.69 3.333 3.262 5.046 4.856.421.393 1.212.353 1.722.193 2.827-.878 3.154-1.496 5.084-.755 2.06.791 3.049 1.5 4.806 3.026.538.467 1.56.35 2.144.049 13.152-6.777 21.713-19.572 27.935-32.69.745-1.57 1.01-3.355 1.768-4.895.84-1.706 2.301-2.872 3.425-4.422 2.332-3.213 4.004-6.17 7.065-8.82 2.915-2.525 5.794-5.346 8.83-7.7 2.766-2.146 6.12-3.776 9.026-5.818.342-.24.864-.698.49-1.14M74.502 23.02c-2.805 2.034-5.313 4.862-7.997 7.095-2.612 2.174-5.064 4.39-7 7.197-2.032 2.948-4.792 5.865-5.951 9.203-2.336 6.718-6.41 13.646-10.619 19.355-4.486 6.084-9.086 11.157-15.603 14.83-3.788-3.03-6.612-3.51-11.26-2.247-2.21-2.178-4.434-5.015-6.822-6.807-1.163-.872-3.047-.97-4.103-1.912-.145-.129-.259-.183-.342-.201.144-.108.381-.376.717-.98.482-.866 1.106-1.68 1.651-2.51.124-.186.191-.51-.008-.685-1.092-.956-2.184-1.912-3.275-2.865 9.78-4.933 18.487-13.934 21.85-24.61.919-2.915.959-5.838 2.14-8.741 1.116-2.743 2.783-5.23 4.53-7.616 3.615-4.938 7.547-8.406 12.481-12.22 2.442-1.889 5.905-3.894 8.69-5.262 1.057-.52 2.427-1.257 3.812-1.636.197.023 1.058.692 1.993 1.332l2.32 1.585c.709.484 2.021-.059 2.583-.51l3.037-2.445c4.727 2.257 9.021 4.295 13.134 7.676-2.567 2.205-2.482 6.76 2.012 7.998-2.624 1.719-5.467 3.16-7.97 4.976" transform="translate(-302 -14567) translate(252 8097) translate(50 6470) translate(27.18 36.36) translate(20.7 6.57)"/>
                            <path stroke="#000" stroke-width=".5" d="M85.917 17.294c-.793-.94-3.749-.863-4.306-2.951-.558-2.092 1.88-3.86 2.127-4.902.086-.15.09-.299-.017-.437-.053-.105-.148-.186-.273-.246C78.816 4.952 74.088 2.8 68.67.196c-.81-.39-1.933-.011-2.584.512-.947.762-1.894 1.523-2.84 2.286-1.852-1.392-3.36-2.683-5.77-2.24-3.254.596-6.137 2.453-8.9 4.127-4.994 3.026-9.762 6.39-14.066 10.36-3.927 3.623-7.697 8.976-9.728 13.892-1.31 3.173-1.406 6.497-2.524 9.646-1.007 2.838-2.793 5.656-4.48 8.124-4.653 6.806-9.114 11.495-16.703 14.954-.34.154-1.427.826-.855 1.327.744.65 3.495 2.339 3.776 3.303-.082-.277-2.05 2.82-2.564 3.603-.203.308-.134.688.225.84 3.018 1.286 4.672 2.139 6.918 4.48 1.619 1.69 3.333 3.262 5.046 4.856.421.393 1.212.353 1.722.193 2.827-.878 3.154-1.496 5.084-.755 2.06.791 3.049 1.5 4.806 3.026.538.467 1.56.35 2.144.049 13.152-6.777 21.713-19.572 27.935-32.69.745-1.57 1.01-3.355 1.768-4.895.84-1.706 2.301-2.872 3.425-4.422 2.332-3.213 4.004-6.17 7.065-8.82 2.915-2.525 5.794-5.346 8.83-7.7 2.766-2.146 6.12-3.776 9.026-5.818.342-.24.864-.698.49-1.14M74.502 23.02c-2.805 2.034-5.313 4.862-7.997 7.095-2.612 2.174-5.064 4.39-7 7.197-2.032 2.948-4.792 5.865-5.951 9.203-2.336 6.718-6.41 13.646-10.619 19.355-4.486 6.084-9.086 11.157-15.603 14.83-3.788-3.03-6.612-3.51-11.26-2.247-2.21-2.178-4.434-5.015-6.822-6.807-1.163-.872-3.047-.97-4.103-1.912-.145-.129-.259-.183-.342-.201.144-.108.381-.376.717-.98.482-.866 1.106-1.68 1.651-2.51.124-.186.191-.51-.008-.685-1.092-.956-2.184-1.912-3.275-2.865 9.78-4.933 18.487-13.934 21.85-24.61.919-2.915.959-5.838 2.14-8.741 1.116-2.743 2.783-5.23 4.53-7.616 3.615-4.938 7.547-8.406 12.481-12.22 2.442-1.889 5.905-3.894 8.69-5.262 1.057-.52 2.427-1.257 3.812-1.636.197.023 1.058.692 1.993 1.332l2.32 1.585c.709.484 2.021-.059 2.583-.51l3.037-2.445c4.727 2.257 9.021 4.295 13.134 7.676-2.567 2.205-2.482 6.76 2.012 7.998-2.624 1.719-5.467 3.16-7.97 4.976" transform="translate(-302 -14567) translate(252 8097) translate(50 6470) translate(27.18 36.36) translate(20.7 6.57)"/>
                        </g>
                        <path fill="#C58FFF" d="M92.057 44.337L90.013 43.747 86.858 48.099 83.747 52.421 80.506 56.65 77.656 61.166 74.175 65.23 70.892 69.55 71.292 74.457 71.991 79.15 75.683 81.213 79.685 83.064 82.032 78.437 84.641 74.225 86.53 69.649 88.343 65.043 90.544 60.604 93.092 56.357 96.257 52.557 99.425 48.701 95.82 46.371z" transform="translate(-302 -14567) translate(252 8097) translate(50 6470) translate(27.18 36.36)"/>
                        <path fill="#000" d="M94.377 43.068c-.01-.004-.824.684-.833.68-.038-.035.112-1.248.03-1.273-.683-.195-1.566.79-2.247.593-.768-.22-2.293.06-2.791.748-5.176 7.138-10.15 14.482-15.69 21.308-3.208 3.953-3.734 4.962-3.132 10.026.35 2.945-.43 4.965 2.066 6.41 1.955 1.131 3.883 1.462 5.932 2.41.754.35 3.186-.397 3.575-1.164 3.039-5.992 5.903-11.738 8.607-17.893 2.729-6.203 6.749-11.094 11.008-16.28.105-.127.241-.38.038-.51-2.422-1.565-4.026-3.681-6.563-5.055M88.82 61.106c-1.93 3.564-3.294 7.35-4.836 11.087-1.343 3.253-3.26 6.265-4.966 9.367-1.655-.663-3.494-1.424-4.553-2.453-1.368-1.33-1.346-3.21-1.568-5.219-.295-2.674-.621-4.014.813-6.17 1.171-1.763 2.634-3.355 4.002-4.962 4.673-5.487 8.652-11.856 12.862-17.789.043.013.087.027.132.038 1.681.91 3.347 1.813 4.967 2.83.86.538 1.878 1.044 1.872 1.424-.011.805-2.015 2.46-2.59 3.153-2.328 2.817-4.388 5.466-6.135 8.694" transform="translate(-302 -14567) translate(252 8097) translate(50 6470) translate(27.18 36.36)"/>
                        <path fill="#C58FFF" d="M92.43 43.757L86.401 40.281 80.007 37.38 74.205 33.543 68.507 29.549 62.516 26.003 56.75 22.095 51.044 18.089 50.269 17.782 47.591 23.939 43.492 29.066 40.234 34.813 38.312 41.125 36.953 47.316 34.05 51.938 39.764 56.978 46.476 60.95 52.297 66.199 58.583 70.789 65.306 74.76 71.608 79.337 72.131 79.532 75.397 73.27 78.043 66.825 80.515 60.289 84.089 54.724 87.253 48.911 91.78 44.156" transform="translate(-302 -14567) translate(252 8097) translate(50 6470) translate(27.18 36.36)"/>
                        <path fill="#000" d="M95.286 43.138c-7.43-4.283-14.866-7.857-21.918-12.802-3.113-2.182-6.476-3.948-9.634-6.063-3.348-2.24-6.897-5.636-10.608-7.11-.694-.275-4.712.104-5.05.883-1.306 3-2.348 5.744-4.388 8.296-2.12 2.65-4.137 5.414-5.537 8.54-1.127 2.514-1.749 5.42-2.385 8.112-.667 2.828-.738 4.719-1.9 6.858-.403.742-.865 1.519-1.407 2.381-.056.102-.454.589-.355.65 3.145 2.774 5.932 5.168 9.527 7.295 3.358 1.988 5.84 4.627 8.865 7.072 3.27 2.64 6.793 4.869 10.401 7 3.078 1.817 6.015 4.998 9.287 6.227.741.277 3.133-.462 3.538-1.24 6.318-12.11 6.318-22.297 19.517-35.222.09-.096.096-.166.05-.22.484-.249.803-.5.668-.578M71.296 77.85c-1.82-1.209-3.281-2.85-5.05-3.977-3.281-2.094-6.56-3.935-9.707-6.233-2.974-2.172-5.45-4.946-8.4-7.108-2.651-1.944-5.698-3.19-8.229-5.313-.757-.636-4.105-2.897-4.144-3.776-.053-1.268 2.313-3.281 2.803-4.529 1.378-3.51 1.568-7.588 2.885-11.181 1.15-3.133 2.95-6.071 5.016-8.697 1.995-2.536 3.255-4.846 4.514-7.587 2.768 1.627 5.444 4 7.976 5.718 3.277 2.22 6.785 4.054 10.026 6.327 6.954 4.876 13.022 7.519 20.347 11.722-2.363 2.22-6.694 8.147-11.102 17.316-2.73 5.581-4.245 11.696-6.935 17.318" transform="translate(-302 -14567) translate(252 8097) translate(50 6470) translate(27.18 36.36)"/>
                        <path fill="#FFF" d="M125.085 71.97L124.695 67.061 122.923 62.557 119.288 59.464 114.578 58.098 109.579 58.135 104.65 59.157 99.622 59.052 94.613 58.399 90.257 55.706 89.303 60.561 87.697 65.126 85.074 69.254 84.355 73.815 88.351 76.387 85.359 80.264 84.404 84.809 86.335 88.83 90.504 90.037 93.917 87.232 93.333 92.043 95.161 96.675 97.7 100.902 102.15 102.87 105.55 99.704 107.359 95.367 109.377 99.564 111.759 103.901 115.581 107.014 119.998 108.585 124.579 107.136 127.963 103.494 129.118 99.023 129.257 94.458 128.556 89.948 128.384 85.342 127.122 80.925 125.883 76.515z" transform="translate(-302 -14567) translate(252 8097) translate(50 6470) translate(27.18 36.36)"/>
                        <path fill="#000" d="M126.663 71.546c-.274-3.443-.419-7.168-2.717-9.93-2.46-2.953-6.15-4.027-9.832-4.18-4.14-.173-7.797 1.088-11.498.983-4.417-.124-6.534-1.334-10.267-3.642-.575-.355-3.968.134-4.125.929-.623 3.168-1.155 6.472-2.56 9.42-.689 1.442-3.876 4.166-3.987 6.807 0 5.27 5.005 4.49 5.075 4.765.195.772-2.412 2.803-2.827 3.664-1.244 2.585-1.292 4.91.072 7.309 2.185 3.84 5.286 3.362 8.155 1.725-.26 2.807-.093 4.619 1.432 7.703 1.899 3.848 3.24 4.62 7.082 6.318.842.373 2.257-.03 2.917-.644 1.71-1.593 2.72-2.706 3.577-4.093 2.005 4.13 4.17 7.78 8.868 9.585 4.76 1.828 10.59-.226 13.274-4.766 2.625-4.44 1.162-10.133.797-14.888-.448-5.836-2.42-11.278-3.436-17.065m-3.088 35.273c-.131.064-.288.137-.494.216-.73.284-1.546.567-2.317.734l-.034.008c-.079-.04-.176-.085-.318-.135-.74-.262-1.521-.47-2.235-.794-5.105-2.316-6.94-7.118-9.24-11.904-.374-.781-2.873.06-3.137.689-1.103 2.648-2.045 4.21-3.716 5.977-2.498-1.21-3.85-2.326-5.346-5.357-1.718-3.48-1.716-5.55-1.262-9.289.126-1.05-2.661.093-2.993.365l-2.037 1.675c-2.292-.722-4.135-1.673-4.43-4.714-.307-3.163 2.022-5.737 3.77-8.001.092-.122.247-.323.05-.452-1.84-1.181-3.477-1.636-3.71-3.637-.255-2.207 1.032-3.984 2.098-5.716 1.673-2.723 2.477-5.67 3.122-8.728 2.12 1.125 3.94 1.695 6.984 1.933 3.926.306 6.876-.427 10.694-.873 3.34-.392 8.078.176 10.985 3.072 2.958 2.947 3.18 6.495 3.499 10.504 1.568 8.932 5.465 18.256 3.904 27.464-.492 2.9-1.595 5.06-3.837 6.963" transform="translate(-302 -14567) translate(252 8097) translate(50 6470) translate(27.18 36.36)"/>
                        <path fill="#000" d="M108.937 94.944s-1.567-4.97-2.14-7.091c-.098-.367-.551-.497-.834-.243-.68.604-1.256 1.203-1.612 1.592-.245.268-.338.637-.25.988l1.767 7.036 3.069-2.282zM95.415 87.478s.198-1.8.535-3.55c.058-.302-.205-.563-.51-.524-1.338.169-2.056.563-2.424.865-.224.184-.356.452-.383.74l-.284 2.962 3.066-.493z" transform="translate(-302 -14567) translate(252 8097) translate(50 6470) translate(27.18 36.36)"/>
                    </g>
                </g>
            </g>
        </g>
    </g>
</svg>
