<svg width="90" height="91" viewBox="0 0 90 91" fill="none" xmlns="http://www.w3.org/2000/svg">
<path d="M76.8624 71.3895C76.0614 69.2655 75.2311 67.1502 74.4589 65.0149C74.1192 64.0763 73.8141 63.123 73.4923 62.178C73.2403 61.4388 72.9885 60.6992 72.7368 59.9594C72.6072 59.5786 72.4515 59.1973 72.3453 58.8092C72.2697 58.5334 72.2319 58.2418 72.177 57.962C72.0351 57.2376 71.8932 56.5135 71.7513 55.7898C71.6034 55.0357 71.4555 54.2818 71.3076 53.528C71.2315 53.139 71.1897 52.719 71.0745 52.3391C70.9912 52.0629 70.84 51.7931 70.7253 51.5292C70.4349 50.8603 70.1445 50.1918 69.8541 49.5235C69.5418 48.8037 69.2293 48.0841 68.9167 47.3646C68.7655 47.0165 68.5707 46.6634 68.4546 46.3008C68.3677 46.0301 68.3421 45.7238 68.2881 45.4449L67.8655 43.2459L67.4335 40.9978C67.3593 40.6115 67.3165 40.1988 67.2085 39.8202C67.1284 39.5427 66.9876 39.271 66.8787 39.0044L66.0565 36.9847C65.6164 35.9027 65.1831 34.818 64.7358 33.7392C63.8992 31.7217 63.0015 29.7292 62.1798 27.7054C61.7878 26.7399 61.4305 25.7585 61.0548 24.7857L60.2313 22.6472C60.1048 22.3182 60.0063 21.9392 59.8398 21.6293C59.7012 21.3745 59.3286 21.1907 59.1085 21.0228L57.4435 19.7534L54.1527 17.2445C53.5956 16.82 52.9377 16.542 52.3194 16.218L48.3144 14.1164L47.5309 13.7069C47.5242 13.7032 47.5165 13.7005 47.5093 13.6969C47.4662 13.6694 47.4196 13.6481 47.3707 13.6336C46.8411 13.4662 46.0104 13.6905 45.5433 13.9521C43.2627 15.2393 40.9983 16.5552 38.6713 17.7536C37.2943 18.4621 35.9299 19.206 34.5372 19.8817C33.1935 20.5337 31.8151 21.122 30.4561 21.7413C29.8819 22.0029 29.2969 22.2486 28.7304 22.5275C28.2772 22.75 27.8551 23.0685 27.4303 23.3415C26.0061 24.2515 24.5575 25.1328 23.1553 26.076C22.7634 26.3395 22.4875 26.7745 22.1901 27.1357C21.5514 27.9105 20.9127 28.6855 20.274 29.4608L19.6134 30.2625C19.5166 30.3794 19.3861 30.5064 19.3434 30.6511C19.2669 30.904 19.2534 31.1971 19.2084 31.4555C19.1337 31.9041 19.0587 32.3528 18.9834 32.8014L18.5284 35.5314C18.5055 35.6679 18.4213 35.9086 18.4519 36.0496C18.4852 36.2012 18.6562 36.3954 18.7336 36.5265L21.4197 41.0765C21.5755 41.3514 21.7164 41.6347 21.8418 41.925L22.9861 44.4421C23.4676 45.5009 23.9037 46.5761 24.4999 47.573L27.1801 52.0574C27.3601 52.3568 27.5014 52.6776 27.6558 52.9902L28.9608 55.6365C29.4558 56.6416 29.9508 57.6216 30.3558 58.6654C30.9664 60.237 31.5483 61.8236 32.1882 63.3833C32.725 64.6923 33.3843 65.9618 33.9814 67.244C34.2469 67.8141 34.5664 68.3815 34.7869 68.973C34.9485 69.4084 35.0232 69.8993 35.1361 70.3498C35.8876 73.3528 36.6624 76.3496 37.4604 79.3401C37.5951 79.8443 37.7301 80.3487 37.8654 80.8535C37.9104 81.0204 38.2078 81.0691 38.3329 81.0719C40.7058 81.1219 43.0917 81.2561 45.465 81.1892L50.3731 81.0527C50.8969 81.0377 51.3964 81.045 51.9081 80.8949C52.471 80.7301 53.029 80.5463 53.5893 80.3721C56.1372 79.5798 58.6881 78.7978 61.242 78.0261C63.8718 77.2339 66.475 76.3749 69.0832 75.5118C69.5418 75.3602 70.0282 75.2388 70.4656 75.0226C70.8859 74.8142 71.2981 74.5867 71.7139 74.3693L76.0146 72.1175L76.3228 71.9559C76.4601 71.8822 76.9564 71.6365 76.8624 71.3895ZM46.194 80.0631H46.1337C46.2997 80.0554 46.3731 80.0649 46.194 80.0608V80.0631ZM69.864 74.1117C69.6147 74.2423 69.3604 74.3674 69.1129 74.5026C69.0535 74.5226 68.9941 74.5481 68.937 74.5658L65.9926 75.54L64.1953 76.1342L65.7627 74.3988C66.2797 73.8715 66.7923 73.3824 67.3152 72.8814C67.7332 72.4837 68.1607 72.0974 68.5905 71.7139C69.0099 71.3376 69.4801 70.9263 69.8284 70.5964C69.951 70.486 70.0481 70.3498 70.1128 70.1974C70.1497 70.1064 70.1304 69.9153 70.0642 69.8334C69.9981 69.7515 69.8118 69.6919 69.7321 69.7269C69.5235 69.819 69.3311 69.9449 69.1624 70.0995L68.5351 70.6992C68.3191 70.9103 68.1031 71.1219 67.8795 71.3248C67.2004 71.9414 66.4845 72.5138 65.823 73.1539L65.3086 73.6544L64.779 74.23L63.7224 75.3971L62.6244 76.6256L62.1258 76.7757C60.6831 77.2103 59.2377 77.6352 57.7977 78.0789C57.9759 77.9063 58.134 77.7136 58.2688 77.5047C58.5978 76.9623 59.0514 76.5492 59.5036 76.1397L60.1363 75.5591C60.3291 75.3776 60.4979 75.1718 60.6385 74.9467C61.0696 74.6941 61.3995 74.3388 61.7037 73.9538L62.1505 73.3646C62.2999 73.1681 62.4394 72.9765 62.6455 72.7827C63.2305 72.2135 63.7089 71.5269 64.4289 71.111C64.5418 71.0459 64.6192 70.929 64.7101 70.8303C64.8343 70.6983 64.8415 70.5391 64.698 70.3461C63.9105 70.1459 63.8511 70.1887 63.4609 71.2398C63.2782 71.2489 63.0757 71.2284 62.9052 71.2794C62.7643 71.3212 62.6086 71.4113 62.5506 71.5414C62.3382 72.0419 61.912 72.3786 61.5916 72.6726C61.489 72.7636 61.3864 72.8668 61.3351 73.0006C61.1682 73.437 60.8563 73.709 60.4977 73.9388C60.3964 74.0034 60.2803 74.0558 60.2025 74.1449C59.7466 74.6732 59.4087 75.1946 58.7355 75.6947C58.6455 75.7597 58.5888 75.8767 58.5168 75.9677L57.9151 76.7375L57.4296 77.3345C57.3459 77.436 56.7915 78.0284 56.2987 78.543L51.9472 79.898L50.3925 79.9435L50.4955 79.8479L51.4617 78.9725C51.724 78.7377 52.0269 78.5525 52.3005 78.3287C52.6207 78.0681 52.9264 77.7898 53.2162 77.4951C53.5131 77.2044 53.8245 76.9292 54.1491 76.6706C54.816 76.1501 55.3533 75.5149 55.8249 74.8138C56.1223 74.4302 56.4099 74.0253 56.8302 73.6981L56.8491 73.6804C57.2217 73.3478 57.4165 72.9155 57.2676 72.5884C56.9125 72.5638 56.6178 72.7249 56.3316 73.1344L56.3055 73.1712C56.1669 73.3482 55.9995 73.5998 55.8802 73.6353C54.9294 74.0034 54.9478 74.5503 54.4758 74.8038C54.1113 75.6046 53.4255 76.0582 52.8027 76.5783C52.1821 77.1243 51.5238 77.5847 50.9217 78.1139C50.4586 78.5234 50.0118 78.9525 49.5717 79.3879L49.2409 79.7141L49.0758 79.8784L48.9997 79.9548L48.9799 79.9794L48.9768 79.9835L46.8046 80.0449C46.5796 80.0513 46.3546 80.0531 46.1296 80.0627L45.7863 80.0554L45.6936 80.0531L46.0765 79.6145C46.5909 79.0189 47.0917 78.4078 47.6173 77.8209L49.1991 76.0691C49.7166 75.5422 50.2287 75.0527 50.7516 74.5522C51.1696 74.1545 51.5971 73.7682 52.0269 73.3846C52.4463 73.0079 52.917 72.5966 53.2653 72.2672C53.3876 72.1565 53.4845 72.0202 53.5492 71.8677C53.5861 71.7767 53.5668 71.586 53.5011 71.5037C53.4354 71.4213 53.2482 71.3622 53.1685 71.3972C52.9599 71.4892 52.7675 71.6149 52.5988 71.7694L51.9751 72.3691C51.7587 72.5797 51.5427 72.7918 51.3195 72.9942C50.64 73.6108 49.9218 74.1832 49.263 74.8238L48.7482 75.3243L48.2185 75.9003L47.1601 77.0683L45.06 79.4152C44.8863 79.6209 44.713 79.8247 44.5411 80.0258L42.5683 79.9839L41.2606 79.9562L41.4294 79.7924C41.6014 79.6296 41.7825 79.4767 41.9716 79.3347C42.3204 79.077 42.6528 78.7976 42.967 78.4979C43.2465 78.1235 43.507 77.7335 43.7626 77.3418L44.497 76.2093C44.6163 76.0241 44.7175 75.8239 44.8476 75.6483C45.0078 75.4335 45.1864 75.2315 45.3565 75.024C45.442 74.9203 45.5244 74.8147 45.6022 74.7055C45.6392 74.659 45.6673 74.6059 45.685 74.549C45.7147 74.4552 45.7516 74.3639 45.7953 74.276C45.8612 74.1763 45.9343 74.0817 46.014 73.993L46.545 73.4233C46.95 72.9983 47.3667 72.5811 47.764 72.1493L47.8599 72.0488C47.8758 72.0339 47.8926 72.02 47.9103 72.0073L48.003 71.945C48.067 71.9082 48.1273 71.8651 48.183 71.8162C48.2192 71.7905 48.2506 71.7585 48.2757 71.7216C48.3067 71.6679 48.4075 71.5851 48.4795 71.5278L48.6843 71.3558C48.7594 71.2912 48.8332 71.2248 48.9039 71.157C49.1856 70.884 49.4155 70.5705 49.4754 70.1186C50.0154 70.0622 50.3304 69.9653 50.5243 69.7223C50.7514 69.4348 50.9936 69.1597 51.2497 68.8983C51.5053 68.6394 51.7591 68.3651 52.0431 68.1294C52.2726 67.9337 52.3518 67.7026 52.1961 67.405C51.859 67.1812 51.5661 67.2016 51.3375 67.4915C50.9361 68.0188 50.3556 68.3009 49.9029 68.7582C49.6027 69.0653 49.3363 69.3465 49.2454 69.7474C48.8535 69.9517 48.4804 70.1446 48.1204 70.3334L47.8504 70.4726L47.7154 70.5418C47.6821 70.5554 47.6574 70.56 47.6286 70.5695C47.5238 70.6049 47.4169 70.6336 47.3086 70.6555C47.2965 70.6578 47.2834 70.6651 47.2852 70.6806C47.2938 70.7288 47.2955 70.778 47.2902 70.8266C47.2573 71.1488 47.0022 71.0086 46.6242 71.4695C46.4289 71.7139 46.1089 71.8467 45.9357 72.1065C45.721 72.425 45.5176 72.7558 45.3124 73.0834C45.2445 73.1835 45.2602 73.1922 45.2328 73.2459L45.1779 73.3746C45.1432 73.4584 45.1042 73.5403 45.0609 73.6199C45.0381 73.6802 45.0115 73.739 44.9812 73.796L44.8426 74.0835L44.5056 74.675C44.2747 75.0772 44.0722 75.4399 43.8049 75.8667C43.3963 76.5037 42.9499 77.1234 42.3991 77.6252C42.3398 77.6801 42.2862 77.7411 42.2394 77.8072C42.063 77.9783 41.9091 78.2017 41.7408 78.3905C41.6175 78.527 41.5131 78.6863 41.3808 78.8137L40.668 79.4885L40.3687 79.766C40.0987 78.7532 39.8275 77.7403 39.5551 76.7275C39.5898 76.697 39.624 76.6684 39.6568 76.642C39.8737 76.4641 39.8053 76.3594 39.4215 76.005H39.3643C39.0535 74.8335 38.7496 73.659 38.4526 72.4815C38.3764 72.1766 38.3002 71.8719 38.224 71.5674C38.481 71.3239 38.7483 71.0855 38.989 70.8243C39.6222 70.1227 40.2328 69.397 40.8489 68.6772C41.2737 68.1735 41.6553 67.7376 42.0526 67.2881C42.4648 66.8244 42.5359 66.6124 42.3064 66.4809C41.8906 66.2421 41.8047 66.6365 41.6121 66.8185L40.7359 67.6603C40.5933 67.8045 40.4367 67.9333 40.3044 68.0889C39.8094 68.669 39.3661 69.3101 38.8162 69.8256C38.5125 70.1059 38.2906 70.4776 38.0359 70.8107C37.9342 70.4036 37.8324 69.9964 37.7304 69.589C37.6219 69.1559 37.5504 68.6859 37.3951 68.2668C37.2349 67.8336 37.0207 67.4114 36.8101 66.9928L37.1067 66.6525C37.6215 66.0569 38.1223 65.4458 38.6479 64.8588L40.2301 63.1085C40.7472 62.5816 41.2597 62.092 41.7826 61.591C42.2007 61.1938 42.6282 60.8075 43.0579 60.424C43.4773 60.0472 43.948 59.6359 44.2963 59.3065C44.4187 59.1959 44.5156 59.0595 44.5803 58.907C44.6172 58.8137 44.5978 58.6254 44.5317 58.543C44.4655 58.4606 44.2792 58.4015 44.1996 58.4365C43.991 58.5285 43.7985 58.6542 43.6299 58.8087L43.0048 59.4102C42.7888 59.6209 42.5728 59.8329 42.3496 60.0354C41.6701 60.6515 40.9501 61.2248 40.2931 61.8654L39.7783 62.3659L39.2487 62.9419L38.1921 64.1095L36.3921 66.1192C36.0321 65.3457 35.6721 64.5722 35.3121 63.7987C35.2306 63.6235 35.1519 63.4484 35.0745 63.2727C35.3422 62.9961 35.61 62.7194 35.8701 62.4351L35.9659 62.3345C35.9818 62.3197 35.9985 62.3059 36.0159 62.2931L36.109 62.2308C36.1731 62.1941 36.2334 62.1511 36.289 62.1025C36.3251 62.0766 36.3565 62.0446 36.3817 62.0078C36.4128 61.9541 36.5136 61.8713 36.5856 61.814L36.7903 61.6415C36.8655 61.5769 36.9393 61.511 37.0099 61.4432C37.2916 61.1702 37.5216 60.8567 37.5814 60.4049C38.1214 60.348 38.4364 60.2515 38.6304 60.0086C38.8576 59.7209 39.0997 59.4457 39.3558 59.1841C39.6114 58.9257 39.8652 58.6508 40.1491 58.4151C40.3786 58.2199 40.4578 57.9888 40.3021 57.6908C39.9651 57.4669 39.6721 57.4879 39.4435 57.7777C39.0421 58.3046 38.4616 58.5867 38.0089 59.044C37.7088 59.3515 37.4424 59.6327 37.3515 60.0331C36.9595 60.2379 36.5865 60.4308 36.2265 60.6192L35.9565 60.7589L35.8237 60.828C35.7904 60.8412 35.7657 60.8462 35.7369 60.8553C35.6322 60.8909 35.5253 60.9196 35.4169 60.9413C35.4048 60.944 35.3917 60.9509 35.3935 60.9663C35.4022 61.0147 35.4037 61.064 35.398 61.1128C35.3656 61.4345 35.11 61.2926 34.7325 61.7558C34.6703 61.8309 34.5999 61.8988 34.5228 61.9582C34.3617 61.5587 34.2046 61.1565 34.0476 60.7516C33.8535 60.252 33.6594 59.7515 33.4653 59.2501C33.6961 59.0631 33.9477 58.9015 34.1785 58.7127C34.4989 58.452 34.8048 58.1736 35.0947 57.8787C35.3916 57.5892 35.7026 57.315 36.0267 57.057C36.6936 56.5369 37.2309 55.9017 37.7025 55.2006C38.0004 54.8166 38.2875 54.4121 38.7082 54.0845L38.7271 54.0667C39.0993 53.7346 39.2941 53.3023 39.1452 52.9747C38.7901 52.9506 38.4954 53.1112 38.2092 53.5207L38.1835 53.5576C38.0449 53.7346 37.8775 53.9862 37.7578 54.0217C36.807 54.3898 36.8254 54.9367 36.3534 55.1897C35.9893 55.9909 35.3031 56.4445 34.6803 56.9641C34.1551 57.4251 33.6025 57.8286 33.0801 58.2609L32.9811 58.0061C32.8402 57.6421 32.716 57.2667 32.5482 56.9141C32.4264 56.6584 32.3034 56.4034 32.1792 56.1493C32.2719 55.9986 32.3029 55.7852 32.3731 55.5955C32.0581 55.4972 31.9267 55.4545 31.843 55.4631C31.3273 54.4166 30.8026 53.3701 30.2865 52.3236C29.7883 51.3135 29.2033 50.3671 28.6251 49.4011L28.4428 49.0963L28.5094 49.0226C29.0269 48.4957 29.539 48.0061 30.0619 47.5052C30.48 47.1079 30.9075 46.7217 31.3372 46.3381C31.7566 45.9613 32.2273 45.55 32.5756 45.2206C32.6979 45.1098 32.7949 44.9735 32.86 44.8211C32.8969 44.7301 32.8776 44.5395 32.8114 44.4571C32.7453 44.3748 32.5585 44.3156 32.4789 44.3507C32.27 44.4437 32.0776 44.5707 31.9092 44.7265L31.2846 45.328C31.0681 45.5387 30.8521 45.7507 30.6289 45.9532C29.9494 46.5697 29.2312 47.1421 28.5724 47.7823L28.0581 48.2828L27.9964 48.3496L27.154 46.9419C26.9767 46.6452 26.7868 46.3572 26.6437 46.0423L26.5897 45.9236C26.884 45.9445 27.0424 45.7662 27.1945 45.6196C27.4195 45.4049 27.5914 45.1387 27.7683 44.8662C27.8038 44.8116 27.7471 44.6346 27.6819 44.5695C27.6166 44.5044 27.4596 44.4594 27.4011 44.4944C26.9803 44.7429 26.6383 45.1075 26.4151 45.5455L25.1398 42.7381L25.9354 41.9455L27.2778 40.0518C27.3812 39.9108 27.4716 39.7605 27.5478 39.6027C27.5698 39.555 27.588 39.5055 27.6022 39.4549C27.6106 39.368 27.5875 39.2809 27.537 39.2101C27.4584 39.1096 27.344 39.0443 27.2184 39.0281C27.0771 38.9771 26.9106 39.0808 26.7684 39.2178C26.6218 39.369 26.4968 39.5402 26.3971 39.7265C26.2288 40.0177 26.1213 40.4213 25.9174 40.6055C25.6813 40.8198 25.462 41.0523 25.2613 41.3008C25.0728 41.4623 24.8928 41.6329 24.7164 41.8077L24.4842 41.2971C24.0126 40.2607 23.3992 39.307 22.8192 38.3274L21.4044 35.9268C21.3594 35.8526 21.1596 35.3808 21.0691 35.3585C21.0672 35.3578 21.0652 35.3578 21.0633 35.3585C21.0781 35.277 21.0889 35.1947 21.1024 35.1137C21.267 34.9698 21.4445 34.8417 21.6325 34.731C21.7455 34.6664 21.8233 34.549 21.9142 34.4508C22.038 34.3188 22.0452 34.1591 21.9016 33.9662C21.6316 33.8979 21.4516 33.8584 21.3085 33.8752C21.3895 33.3917 21.4702 32.9079 21.5506 32.4237L21.7756 31.0628C21.8179 30.8112 21.9336 30.4804 21.9156 30.2238C21.9156 30.2147 21.9156 30.207 21.9156 30.2006C21.9394 30.1692 21.9606 30.1369 21.9858 30.1096L22.6833 29.2633L24.562 26.9833L25.1812 26.2317C25.1209 26.2735 25.0768 26.2735 25.1997 26.1984L25.2321 26.178C25.2509 26.1612 25.2662 26.1408 25.2771 26.1179C25.2709 26.1359 25.2619 26.1528 25.2505 26.168C25.8571 25.7939 26.4516 25.399 27.0505 25.015L29.5336 23.427L30.3013 22.9366C30.3045 22.9342 30.3078 22.932 30.3112 22.9302C31.3912 22.4802 32.4537 21.9788 33.5157 21.4806C32.4901 22.5402 31.2931 23.7665 31.2301 23.8279C31.0501 23.9999 30.4381 24.6364 30.2401 24.7934C30.0736 24.9235 29.9026 25.0491 29.7451 25.1943L28.4707 26.375L27.1018 27.6185C26.6766 28.0039 26.214 28.3506 25.8274 28.7746C25.6227 28.9994 25.4202 29.2219 25.2042 29.4298C24.9878 29.6628 24.7516 29.8759 24.4981 30.0668C24.247 30.2511 24.0508 30.5382 23.8749 30.8135C23.721 31.0551 23.5054 31.3072 23.716 31.729C24.1737 31.6644 24.4536 31.3736 24.7173 31.071C25.0089 30.7366 25.3023 30.4063 25.6056 30.0841C25.9071 29.7807 26.2171 29.5095 26.538 29.2369C27.8835 28.1063 29.3028 26.9014 30.4836 25.8222C30.8166 25.5219 31.1401 25.2093 31.4601 24.8935L35.7477 20.4418C36.4056 20.126 37.0558 19.7984 37.7088 19.4626C38.4895 19.0604 39.2757 18.6668 40.0582 18.2664L40.0056 18.3119L39.1195 19.2875C38.6749 19.7425 38.2645 20.1929 37.9864 20.789C37.86 21.0529 37.7452 21.2872 37.3731 21.4005C37.0792 21.517 36.8304 21.8587 36.5631 22.0984L36.6693 22.6535L36.7273 22.8938C36.7868 22.8876 36.8458 22.878 36.9042 22.8651C37.3443 22.7987 37.6242 22.5798 37.855 22.245C38.0908 21.9183 38.1736 21.714 38.3658 21.5133L40.7152 19.1018L41.2795 18.6445L41.905 18.1477C42.0805 18.0066 42.2538 17.8628 42.4221 17.7132C42.7634 17.4146 43.0795 17.0879 43.3671 16.7363C43.5259 16.5397 43.7644 16.421 43.9597 16.2581C44.1078 16.1416 44.2536 16.0237 44.3935 15.9004C44.8363 15.6465 45.2794 15.394 45.7228 15.1429L45.8866 15.0519L47.8963 16.1065C47.6697 16.6567 47.3056 17.1379 46.8397 17.5029C46.41 17.8424 46.099 18.3456 45.7192 18.7592C45.3822 19.145 44.9835 19.4417 44.7823 19.9486C44.7315 20.076 44.5776 20.1761 44.4444 20.2275C43.9494 20.4095 43.5637 20.728 43.2145 21.0865C42.8734 21.4391 42.5071 21.8905 42.319 22.0939C42.3155 22.2115 42.2927 22.3278 42.2515 22.4379C42.2167 22.5582 42.1525 22.6677 42.0648 22.7564C41.9788 22.8474 41.8933 22.8897 41.6976 23.0294C41.3898 23.2305 41.4028 23.6054 41.6107 23.7815C41.7871 23.9303 42.0297 23.8688 42.3109 23.5681C42.3231 23.5485 42.4266 23.4471 42.4189 23.3952C42.436 23.1654 42.5287 23.0071 42.6826 22.917C42.7488 22.8886 42.8187 22.8699 42.8901 22.8615C42.9909 22.8533 43.08 22.7455 43.1601 22.6654L44.0295 21.8646C44.3301 21.5898 44.6135 21.2963 44.8782 20.986C45.2778 20.495 45.7867 20.1742 46.2282 19.7465C46.8739 19.1164 47.5471 18.5094 48.1272 17.8123C48.2941 17.6112 48.4521 17.4051 48.6222 17.2136C48.7074 17.1165 48.7975 17.0241 48.8922 16.9365C48.9624 16.871 49.0348 16.8076 49.1095 16.7463L51.2848 17.8879C51.4081 17.9556 51.5253 18.0338 51.6354 18.1217C51.6192 18.1445 51.6034 18.1672 51.5868 18.1909C51.4441 18.3643 51.2947 18.5326 51.1404 18.6982C50.9982 18.852 50.7952 19.0554 50.6998 19.1382C50.5149 19.3043 50.4532 19.6528 50.3961 19.9372C50.3731 20.0528 50.5135 20.2179 50.6256 20.4609C50.8956 20.217 51.1053 20.0286 51.3132 19.8403L52.2906 18.8998L52.4377 18.7328L53.1226 19.2547L54.55 20.3421L54.1792 20.8017L53.4304 21.6029L53.2747 21.7658L53.1685 21.8714L52.9498 22.0743L52.4998 22.4688C52.1097 22.8201 51.576 23.0812 51.3622 23.534C51.1053 24.0754 50.6157 24.2797 50.3128 24.7256C49.7278 25.5209 49.0078 26.1784 48.2239 26.7563C47.9589 26.9501 47.8734 27.199 48.0021 27.4606C48.1011 27.6626 48.4197 27.7463 48.6379 27.532C48.9439 27.2313 49.3503 27.077 49.6414 26.7895C50.2845 26.1421 50.8838 25.4517 51.4351 24.7229C51.5359 24.5968 51.6268 24.4499 51.7551 24.3657C52.5254 23.8785 53.2411 23.3081 53.8894 22.6645C53.9763 22.5776 54.1923 22.3423 54.3678 22.143L54.9078 21.5315L55.1143 21.2744L55.3749 20.9664L56.6898 21.9674L57.169 22.3314C57.1879 22.346 57.214 22.3714 57.2379 22.3906C57.2635 22.4879 57.3675 22.6872 57.3814 22.7236L57.4152 22.8114C57.1794 22.8719 56.9679 23.0389 56.7609 23.3333L56.7352 23.3702C56.5966 23.5472 56.4288 23.7988 56.3095 23.8343C55.3587 24.2024 55.3771 24.7493 54.9051 25.0022C54.5406 25.8035 53.8548 26.2571 53.232 26.779C52.6119 27.325 51.9531 27.785 51.351 28.3146C50.8879 28.7241 50.4411 29.1532 50.001 29.5886L49.6702 29.9149L49.5051 30.0791L49.429 30.1556L49.4092 30.1801C49.3872 30.2106 49.3449 30.2552 49.3377 30.2711C49.3352 30.2826 49.3311 30.2936 49.3255 30.3039C49.3238 30.3143 49.3206 30.3244 49.3161 30.3339C49.3093 30.3435 49.308 30.3594 49.3021 30.3694C49.2963 30.3794 49.3125 30.3608 49.2855 30.3931L49.2076 30.4841L49.0528 30.6702L48.4368 31.4146C48.0718 31.8609 47.4441 32.6144 47.6169 32.4679C47.6173 32.4787 47.6148 32.4894 47.6097 32.4988C47.6058 32.5208 47.5941 32.5405 47.5768 32.5543L47.386 32.8082C47.4112 32.6972 47.436 32.5862 47.458 32.4752C47.5587 31.9714 47.6292 31.4619 47.6691 30.9495C47.6961 30.6065 47.7069 30.2625 47.7069 29.9181C47.7215 29.8601 47.7215 29.7994 47.7069 29.7415C47.6249 29.4334 47.5073 29.1362 47.3563 28.8561C47.1786 28.5168 46.9689 28.1958 46.7299 27.8974C46.2471 27.3036 45.6499 26.8259 45.0105 26.415C44.893 26.339 44.7738 26.2681 44.6505 26.1998C44.6955 26.1511 44.7405 26.1024 44.7855 26.0528L44.8813 25.9523C44.8972 25.9375 44.9139 25.9237 44.9313 25.9109L45.0244 25.8485C45.0885 25.8119 45.1488 25.7689 45.2044 25.7202C45.2405 25.6943 45.2717 25.6621 45.2967 25.6251C45.3277 25.5715 45.4285 25.4886 45.501 25.4318L45.7057 25.2593C45.7804 25.1947 45.8542 25.1287 45.9249 25.0609C46.207 24.7879 46.437 24.4744 46.4968 24.0226C47.0368 23.9658 47.3518 23.8693 47.5453 23.6263C47.7727 23.3387 48.015 23.0635 48.2712 22.8019C48.5268 22.5434 48.7806 22.2686 49.0641 22.0329C49.294 21.8377 49.3728 21.6066 49.2175 21.3086C48.8805 21.0847 48.5875 21.1052 48.3589 21.3955C47.9575 21.9224 47.377 22.2045 46.9243 22.6617C46.6242 22.9693 46.3578 23.2505 46.2669 23.6509C45.8745 23.8552 45.5019 24.0481 45.1419 24.2369L44.8719 24.3766L44.7391 24.4458C44.7058 24.459 44.6811 24.464 44.6518 24.4731C44.5473 24.5086 44.4405 24.5373 44.3323 24.5591C44.3202 24.5591 44.3067 24.5686 44.3089 24.5841C44.3176 24.6323 44.3191 24.6815 44.3134 24.7302C44.281 25.0523 44.0254 24.9122 43.6479 25.3735C43.5667 25.4687 43.4746 25.5536 43.3734 25.6265C43.1871 25.5601 42.9985 25.4994 42.8077 25.4445C42.4616 25.3429 42.1082 25.2685 41.7507 25.222C41.4372 25.1793 41.1218 25.1531 40.8057 25.1433C40.8314 25.0809 40.8336 25.0111 40.8119 24.9471C40.7902 24.8831 40.746 24.8294 40.6878 24.7961C40.5442 24.701 40.3179 24.6405 40.1761 24.6815C39.885 24.7688 39.7261 24.9426 39.691 25.1974C39.651 25.202 39.6105 25.2061 39.5704 25.2115C39.2856 25.2516 39.0025 25.3089 38.7231 25.3763C38.4451 25.4488 38.171 25.5358 37.9018 25.637C37.7377 25.6967 37.5771 25.7658 37.4208 25.844C37.1536 25.9731 36.8931 26.1157 36.64 26.2712C36.3867 26.4309 36.145 26.6066 35.9034 26.7849C35.5771 27.0267 35.2707 27.2948 34.9872 27.5866C34.3801 28.2118 33.8577 28.903 33.4765 29.6919C33.2748 30.0981 33.104 30.5193 32.9658 30.9518C32.8482 31.3344 32.7589 31.7252 32.6985 32.1212C32.6293 32.5802 32.5941 33.0437 32.5932 33.508C32.2201 33.2273 32.0401 33.4206 31.8601 33.6122C31.6999 33.7828 31.753 33.9717 31.915 34.1655C32.4519 34.0922 32.4676 34.0904 32.5932 33.5672C32.5944 33.9635 32.6184 34.3594 32.6652 34.7529C32.748 35.4509 32.8789 36.1516 33.2308 36.7672C33.4005 37.077 33.6049 37.366 33.8401 37.6285C34.0432 37.8466 34.268 38.0428 34.5111 38.2141C34.8111 38.4328 35.13 38.6239 35.4637 38.7851C35.8232 38.948 36.1947 39.0824 36.5748 39.1869C36.8873 39.2765 37.2059 39.3434 37.5279 39.3871C37.9487 39.4478 38.3731 39.4802 38.7982 39.484C39.6954 39.4862 40.5889 39.3684 41.4555 39.1336C41.7669 39.049 42.0765 38.9489 42.3789 38.8333C42.0396 39.1423 41.8744 39.2883 41.6382 39.5222C41.1193 40.0354 40.6666 40.6251 40.1878 41.1852C39.9826 41.4236 40.0303 41.6775 40.2697 42.0552C40.429 41.9856 40.6 41.9642 40.7377 41.8422C40.9455 41.6506 41.1325 41.4371 41.2953 41.2052C41.6913 40.6592 42.1503 40.1951 42.6367 39.7579L45.2188 37.4124L45.3453 37.2472C45.8704 36.5551 46.4644 35.9191 46.9621 35.1997L47.5471 34.3247L47.9971 33.6345L48.2221 33.2878L48.2775 33.2018C48.2977 33.1704 48.318 33.139 48.3094 33.149L48.3054 33.1417L48.2847 33.1062L48.2797 33.0953C48.2757 33.0862 48.2757 33.0817 48.2721 33.0744V33.0685C48.2721 33.0658 48.2667 33.0712 48.2748 33.0607L48.3198 33.0089L48.4926 32.8009L49.1856 31.9683L49.8795 31.1366L49.9614 31.0387V31.0342V31.0228C49.9614 31.0155 49.9614 31.0101 49.9587 31.0005C49.9598 30.995 49.9598 30.9892 49.9587 30.9837L50.0307 30.9013L50.4577 30.4918L50.9352 30.0482L51.9013 29.1728C52.1637 28.9375 52.4665 28.7524 52.7401 28.5289C53.0604 28.2683 53.3662 27.99 53.6563 27.6954C53.9532 27.4047 54.2644 27.1294 54.5887 26.8705C55.2556 26.3504 55.7929 25.7152 56.2645 25.0141C56.562 24.6301 56.8495 24.2256 57.2703 23.898L57.2892 23.8802C57.4398 23.7494 57.5646 23.5908 57.6568 23.4129L57.6784 23.4684L58.6774 26.0656C58.6747 26.0656 58.6725 26.0697 58.6693 26.0715C58.5033 26.177 58.3565 26.3108 58.2355 26.4669C58.2076 26.5028 58.173 26.5497 58.1536 26.5802L58.1644 26.5938L58.204 26.6393C58.216 26.6529 58.2271 26.6671 58.2373 26.6821C58.2454 26.6967 58.245 26.7026 58.2373 26.703H58.2337L58.1982 26.7381C58.1451 26.7927 58.0929 26.8486 58.0429 26.9064C57.552 27.4756 57.0529 28.0348 56.5201 28.5576C56.3307 28.7428 56.233 29.0363 56.0886 29.2761C55.9824 29.4385 55.8651 29.5933 55.7376 29.7392C55.3414 30.1562 54.9174 30.5452 54.4686 30.9036L53.7936 31.4355L53.7085 31.5006L53.5488 31.6334L53.227 31.9032L52.5169 32.5047L52.3734 32.6285L51.3676 33.6832L51.1174 33.9494L50.9712 34.0981L50.7111 34.363C50.3646 34.7163 50.0247 35.0765 49.6914 35.4436L48.9889 36.2303L47.9044 37.4674L46.7065 39.1964L46.0999 40.0855L45.7462 40.6256L45.6598 40.7621C45.6369 40.7989 45.5851 40.8785 45.5995 40.8603L45.6045 40.8799C45.6184 40.9033 45.6245 40.9306 45.6216 40.9577C45.6135 40.9691 45.6 40.9759 45.5617 40.9545C45.5496 40.9477 45.5464 40.9518 45.546 40.9577V40.9632C45.546 40.9668 45.5545 40.9586 45.5221 40.9909L45.3871 41.1274C45.1311 41.3654 45.0541 41.683 45.1207 42.1166C45.5613 42.2008 45.7548 41.9005 45.9757 41.6884L46.1017 41.5651C46.1104 41.557 46.1199 41.5498 46.1301 41.5438C46.1481 41.5283 46.1653 41.5117 46.1814 41.4942L46.2201 41.4341C46.2248 41.4233 46.2313 41.4135 46.2394 41.405C46.257 41.3809 46.2201 41.4427 46.3429 41.2685C46.6021 40.9104 46.9185 40.5996 47.1705 40.237C47.6425 39.5249 48.1155 38.8083 48.5907 38.0958L48.9232 37.7104L50.2431 36.2325C50.5236 35.9259 50.8104 35.6259 51.1035 35.3326C51.3285 35.1078 51.5535 34.9067 51.7987 34.6833L53.0718 33.4166L53.8264 32.7887C54.0064 32.6381 54.1797 32.4811 54.3529 32.3223L54.627 32.0579C54.7998 31.8814 54.9876 31.7205 55.1881 31.577C55.5742 31.314 55.9081 30.9941 56.2294 30.6606L56.7055 30.1528L57.1506 29.6346C57.5317 29.2074 57.8908 28.7555 58.263 28.3196C58.4484 28.1017 58.6383 27.8879 58.8358 27.6826L58.9839 27.5334C58.9893 27.5287 58.9958 27.5253 59.0028 27.5234C59.0197 27.5181 59.0374 27.5161 59.055 27.5175C59.0927 27.5186 59.1301 27.5251 59.1661 27.5366C59.1832 27.5239 59.2008 27.5093 59.2183 27.4952L59.2872 27.6745C59.5621 28.3897 59.851 29.0995 60.1471 29.8061L60.0283 29.9576L59.3308 30.8417C59.244 30.9523 59.2053 31.1224 59.095 31.1921C58.8858 31.3254 58.7377 31.5024 58.5856 31.7121C58.3894 31.9751 58.2049 32.2522 57.9934 32.4984C57.7958 32.7048 57.5628 32.8735 57.3058 32.9961C57.2278 33.0391 57.1666 33.1079 57.1326 33.1909C56.9076 33.764 56.5346 34.2655 56.0526 34.6432C55.6228 34.9827 55.3123 35.4863 54.9325 35.8995C54.5955 36.2853 54.1963 36.582 53.9956 37.0893C53.9443 37.2163 53.7909 37.3168 53.6577 37.3678C53.1627 37.5498 52.777 37.8683 52.4278 38.2273C52.0863 38.5799 51.7204 39.0312 51.5323 39.2342C51.5286 39.3518 51.5058 39.468 51.4648 39.5782C51.43 39.6985 51.3658 39.808 51.2781 39.8967C51.1917 39.9877 51.1062 40.0295 50.9109 40.1697C50.6031 40.3712 50.6161 40.7461 50.824 40.9218C51.0004 41.071 51.2425 41.0091 51.5242 40.7088C51.5359 40.6893 51.6399 40.5878 51.6318 40.5355C51.6489 40.308 51.742 40.1478 51.8959 40.0577C51.9619 40.0288 52.0319 40.0101 52.1034 40.0022C52.2042 39.9936 52.2928 39.8862 52.3734 39.8061L53.2428 39.0049C53.5431 38.73 53.8261 38.4364 54.0901 38.1258C54.4893 37.6353 54.9982 37.3145 55.4401 36.8864C56.0859 36.2567 56.7591 35.6497 57.3391 34.9522C57.5061 34.7515 57.664 34.5454 57.8341 34.3539C57.9201 34.2567 58.0111 34.1642 58.1068 34.0768C58.2317 33.9598 58.363 33.8502 58.5001 33.7482C58.6404 33.6509 58.7696 33.5381 58.8853 33.412L58.8907 33.4061C59.1054 33.1213 59.3277 32.8469 59.5558 32.5794C59.7187 32.3914 59.8884 32.2099 60.0621 32.0334C60.2992 31.7936 60.5445 31.5624 60.792 31.3331C61.1335 32.1289 61.4782 32.9256 61.8157 33.72C61.8892 33.8938 61.9623 34.0677 62.0349 34.2415C61.9516 34.2237 61.867 34.2129 61.782 34.2092C61.6641 34.3775 61.534 34.5627 61.422 34.7242C61.5385 35.0905 61.7509 35.1979 61.9845 35.0573C62.0959 34.9894 62.1917 34.8982 62.2653 34.7897C62.6475 35.7104 63.0244 36.6329 63.3961 37.5575C63.1261 37.9342 62.7409 38.139 62.4867 38.513C61.9017 39.3088 61.1817 39.9663 60.3982 40.5441C60.1327 40.738 60.0477 40.9868 60.1759 41.248C60.2749 41.45 60.5935 41.5337 60.8118 41.3199C61.1178 41.0191 61.5241 40.8649 61.8157 40.5773C62.4566 39.9304 63.0541 39.2409 63.604 38.5135C63.6432 38.4639 63.6814 38.4111 63.7206 38.3597C63.9165 38.845 64.1127 39.3293 64.3092 39.8125C64.4068 40.0518 64.531 40.2943 64.6003 40.5432C64.6534 40.7339 64.6903 40.9313 64.7268 41.1302C64.3186 41.4546 63.9087 41.7672 63.5217 42.1066C63.0586 42.5161 62.6118 42.9456 62.1694 43.3806L61.8387 43.7073L61.674 43.8715L61.5975 43.948L61.5777 43.9725C61.5556 44.0026 61.5133 44.0476 61.5061 44.0635C61.5035 44.075 61.4994 44.086 61.494 44.0963C61.4922 44.1067 61.489 44.1168 61.4845 44.1263C61.4778 44.1359 61.4764 44.1518 61.4706 44.1618C61.4647 44.1718 61.4814 44.1527 61.4539 44.185L61.3765 44.276L61.2213 44.4621L60.6052 45.2065C60.2403 45.6524 59.6125 46.4063 59.7853 46.2598C59.7859 46.2706 59.7834 46.2814 59.7781 46.2908C59.7745 46.3127 59.7628 46.3324 59.7453 46.3458L59.1913 47.0829L58.5946 47.8723L57.5146 49.3702C57.2748 49.7092 57.097 50.1087 56.85 50.4399L56.7415 50.5855C56.1655 51.1209 55.5886 51.6567 55.0108 52.193C54.3192 52.8337 54.1284 52.9888 53.8039 53.3101C53.2851 53.8233 52.8324 54.413 52.3536 54.9726C52.1484 55.2115 52.1961 55.4654 52.4355 55.843C52.5948 55.773 52.7658 55.752 52.9035 55.6296C53.1115 55.4383 53.2985 55.2247 53.461 54.9926C53.857 54.4466 54.316 53.9825 54.8025 53.5453L57.385 51.1993L57.5115 51.0341C58.0366 50.3425 58.6302 49.7065 59.1279 48.9866L59.7129 48.1117L60.1629 47.4214L60.3879 47.0747L60.4432 46.9887C60.4558 46.9723 60.4667 46.9546 60.4756 46.936L60.4711 46.9282L60.4504 46.8932L60.4455 46.8823C60.4414 46.8732 60.4414 46.8686 60.4383 46.8613L60.436 46.8554C60.436 46.8527 60.4311 46.8582 60.4387 46.8477L60.4837 46.7958L60.6601 46.592L61.3531 45.7593L62.047 44.928L62.1289 44.8302V44.8252V44.8138C62.1287 44.8063 62.1278 44.7989 62.1262 44.7915C62.1271 44.786 62.1271 44.7803 62.1262 44.7747L62.1978 44.6928L62.6248 44.2833L63.1023 43.8397L64.0684 42.9647C64.3308 42.7295 64.6336 42.5443 64.9072 42.3209L64.9432 42.2918C65.1814 43.5294 65.4193 44.767 65.6569 46.0046L65.3977 46.2243L65.2542 46.3481L64.2489 47.4023L63.9982 47.6685L63.8524 47.8173L63.5919 48.0821C63.2454 48.4361 62.9055 48.7963 62.5722 49.1627L61.8697 49.9494L60.7852 51.1866L59.5873 52.9156L58.9884 53.8014L58.6342 54.3411L58.5478 54.4776C58.526 54.5091 58.506 54.5419 58.488 54.5759L58.4929 54.5954C58.5068 54.6186 58.5127 54.6458 58.5096 54.6728C58.5015 54.6841 58.4884 54.6914 58.4502 54.6696C58.4376 54.6632 58.4344 54.6669 58.434 54.6728V54.6787C58.434 54.6819 58.4425 54.6741 58.4101 54.7064L58.2751 54.8407C58.0191 55.0786 57.9421 55.3962 58.0087 55.8294C58.4493 55.9136 58.6432 55.6133 58.8637 55.4017L58.9893 55.2779C58.9979 55.2698 59.0075 55.2626 59.0176 55.2565C59.0358 55.2412 59.0529 55.2246 59.0689 55.2069L59.1076 55.1473C59.1123 55.1364 59.1189 55.1264 59.127 55.1178C59.145 55.0941 59.1076 55.1555 59.2309 54.9813C59.4897 54.6232 59.8065 54.3124 60.0585 53.9498C60.5305 53.2377 61.0035 52.5211 61.4782 51.8081L61.8108 51.4227L63.1311 49.9449C63.4116 49.6382 63.6982 49.3384 63.991 49.0453C64.216 48.8178 64.441 48.6195 64.6863 48.3961L65.9143 47.1739C66.0417 47.5088 66.2149 47.8369 66.3562 48.1617L67.2112 50.1355C67.1829 50.1674 67.1568 50.196 67.1338 50.2211C67.1301 50.3387 67.1072 50.455 67.0659 50.565C67.0314 50.6854 66.9673 50.795 66.8796 50.8835C66.7932 50.9745 66.7077 51.0164 66.5124 51.1565C66.2041 51.3581 66.2176 51.733 66.4255 51.9086C66.6019 52.0579 66.844 51.9965 67.1257 51.6957C67.1374 51.6761 67.2414 51.5747 67.2333 51.5224C67.2504 51.2949 67.3435 51.1347 67.4974 51.0446C67.5279 51.0309 67.5593 51.0197 67.5915 51.0109L68.1571 52.3127C68.2611 52.5525 68.3983 52.7977 68.4721 53.0493C68.5063 53.1649 68.5338 53.2832 68.5585 53.4033C68.5288 53.4338 68.4982 53.4679 68.4685 53.5062C68.2728 53.7505 67.9528 53.8833 67.7796 54.1432C67.5649 54.4617 67.362 54.7924 67.1563 55.12C67.0884 55.2201 67.1041 55.2288 67.0771 55.2825L67.0218 55.4112C66.9874 55.495 66.9483 55.5767 66.9048 55.656C66.882 55.7165 66.8556 55.7754 66.8256 55.8326L66.687 56.1201L66.3495 56.7116C66.1186 57.1138 65.9161 57.4765 65.6493 57.9033C65.2407 58.5403 64.7943 59.16 64.243 59.6614C64.1838 59.7163 64.1304 59.7773 64.0837 59.8434C63.9069 60.0145 63.7534 60.2379 63.5847 60.4262C63.4614 60.565 63.357 60.7225 63.2247 60.8498L62.5051 61.5292L61.9678 62.0269L61.0152 62.9051C60.9616 62.9542 60.9252 63.0266 60.8658 63.1139C60.9162 63.2345 60.963 63.3655 61.0264 63.4884C61.0403 63.5122 61.0591 63.5326 61.0816 63.5483C61.104 63.5641 61.1296 63.5746 61.1565 63.5794C61.282 63.5821 61.4328 63.6053 61.5246 63.5439C61.7461 63.392 61.953 63.2192 62.1424 63.0279C62.3647 62.8077 62.5677 62.5579 62.7801 62.3236C62.8179 62.2781 62.9281 62.1684 63.0051 62.0884L63.2647 61.8367C63.4358 61.6738 63.6161 61.5209 63.8047 61.379C64.1533 61.1213 64.4856 60.8418 64.7997 60.5423C65.0791 60.1678 65.3397 59.7779 65.5957 59.3861L66.3297 58.2536C66.4489 58.0684 66.5502 57.8682 66.6807 57.6926C66.8404 57.4778 67.0191 57.2754 67.1892 57.0679C67.2747 56.9646 67.357 56.859 67.4349 56.7494C67.472 56.703 67.5001 56.6499 67.5177 56.5929C67.5474 56.4991 67.5842 56.4078 67.6279 56.3199C67.6938 56.2201 67.7671 56.1255 67.8471 56.0369L68.3776 55.4672C68.5321 55.3061 68.6871 55.1457 68.8425 54.9858C69.0873 56.2346 69.3322 57.4839 69.5773 58.7336C69.594 58.8183 69.6088 58.9043 69.6223 58.9907C69.6151 58.9948 69.607 58.9989 69.5998 59.0035C69.4711 59.0863 69.4095 59.2078 69.4104 59.3761C69.4104 59.5035 69.5125 59.6837 69.6192 59.776C69.6552 59.8074 69.7393 59.8097 69.8163 59.7929C69.9225 60.1196 70.0471 60.4431 70.1574 60.7666C70.3842 61.4339 70.6113 62.1013 70.8387 62.7686L70.1551 63.7173C69.9157 64.0567 69.7375 64.4557 69.4909 64.7874L69.382 64.933C68.806 65.4684 68.2291 66.0042 67.6513 66.5405C66.9597 67.1812 66.7689 67.3363 66.4444 67.6576C65.926 68.1708 65.4733 68.7605 64.9945 69.3201C64.7889 69.559 64.8366 69.8129 65.076 70.1905C65.2353 70.1205 65.4063 70.0995 65.544 69.9771C65.7521 69.7857 65.9392 69.5721 66.102 69.3401C66.498 68.7941 66.957 68.33 67.443 67.8928L70.0255 65.5468L70.152 65.3816C70.5075 64.913 70.894 64.4716 71.2617 64.0094C71.376 64.3458 71.4904 64.6819 71.605 65.0176C71.7787 65.5282 71.9587 66.0365 72.145 66.5428L71.5474 67.4264L71.1933 67.966L71.1069 68.1025C71.0852 68.1342 71.0652 68.167 71.047 68.2008L71.052 68.2199C71.0658 68.2433 71.0717 68.2707 71.0686 68.2977C71.0605 68.3091 71.0475 68.3164 71.0092 68.2946C70.9966 68.2877 70.9935 68.2918 70.993 68.2977V68.3037C70.993 68.3068 71.0011 68.2991 70.9692 68.3314L70.8342 68.4652C70.5786 68.7036 70.5012 69.0212 70.5678 69.4543C71.0083 69.5385 71.2023 69.2382 71.4228 69.0262L71.5483 68.9029C71.5571 68.8949 71.5666 68.8877 71.5767 68.8815C71.5947 68.866 71.6119 68.8495 71.628 68.8319L71.6671 68.7723C71.6715 68.7613 71.6779 68.7512 71.686 68.7427C71.704 68.7191 71.6667 68.7805 71.79 68.6062C72.0294 68.2745 72.3183 67.9833 72.5595 67.6539C72.9231 68.6185 73.2966 69.5795 73.6638 70.5423L73.5603 70.6815C73.4995 70.7379 73.4415 70.7961 73.3803 70.8489L73.3083 70.9181L73.0248 71.2043C72.8201 71.4141 72.636 71.6436 72.4753 71.8895C72.2125 72.3045 71.9133 72.6302 71.5191 72.8905C71.238 73.0774 70.9987 73.3216 70.8166 73.6076L69.864 74.1117ZM35.6122 30.4895C35.6343 30.4222 35.6572 30.353 35.6806 30.288C35.7532 30.0857 35.8342 29.8868 35.9236 29.6915C36.213 29.104 36.5785 28.558 37.0104 28.068C37.2984 27.7651 37.6105 27.4866 37.9437 27.2354C38.1408 27.0964 38.3449 26.9679 38.5552 26.8505C38.6412 26.8109 38.7289 26.774 38.8171 26.7399C38.9053 26.7058 38.9971 26.6885 39.0871 26.6666C39.2095 26.6466 39.3328 26.6311 39.457 26.6211C39.6849 26.6144 39.9129 26.6202 40.1401 26.6384C40.5096 26.6868 40.8748 26.7644 41.2323 26.8705C41.565 26.9818 41.8898 27.116 42.2043 27.2722L42.2007 27.2809C42.1659 27.3647 42.1267 27.4466 42.0832 27.5261C42.0606 27.5866 42.0341 27.6456 42.004 27.7027L41.8654 27.9898L41.5279 28.5813C41.2975 28.9839 41.095 29.3461 40.8277 29.7729C40.4191 30.4099 39.9727 31.0296 39.4219 31.5315C39.3625 31.5863 39.3089 31.6473 39.2622 31.7135C39.0853 31.8841 38.8054 33.3838 38.9922 33.245C39.3409 32.9874 39.6734 32.7079 39.9876 32.4083C40.267 32.0334 40.5276 31.6439 40.7832 31.2517L41.5176 30.1196C41.6211 29.9581 41.7115 29.7857 41.8186 29.6278C41.8636 29.6819 41.9208 29.7447 41.9919 29.8171L42.0319 29.858L42.0441 29.8639C42.2893 29.989 42.3447 30.0145 42.3042 29.9217C42.2496 29.823 42.1834 29.7313 42.1071 29.6487C42.0524 29.588 41.9922 29.5327 41.9271 29.4835C42.0715 29.2961 42.2281 29.1168 42.3771 28.9339C42.4621 28.8302 42.5449 28.7251 42.6228 28.6154C42.6595 28.5688 42.6875 28.516 42.7056 28.4593C42.7348 28.3655 42.7716 28.2742 42.8154 28.1863C42.8817 28.0868 42.9549 27.9923 43.0345 27.9033L43.1169 27.8151C43.6258 28.1794 44.0774 28.6194 44.4565 29.12C44.5465 29.2438 44.6334 29.3721 44.713 29.5036C45.0924 30.1178 45.4092 32.087 44.8237 33.6809C44.6298 34.2092 44.308 34.7019 44.1307 35.0873L43.1268 36.6411L42.9117 36.8231C42.7803 36.9464 42.6417 37.0643 42.5017 37.1749L42.4873 37.1844L42.3703 37.2841C41.9721 37.7272 39.6825 38.371 38.5548 37.8678C38.4195 37.8375 38.2845 37.8027 38.1498 37.7636C37.7081 37.6169 37.2867 37.414 36.8956 37.1598C36.5636 36.9211 36.2679 36.6344 36.0181 36.309C35.6712 35.9154 35.4916 35.2411 35.4597 35.1123C35.3476 34.647 35.2734 34.1731 35.2378 33.6955C35.218 33.4511 35.2081 33.2059 35.2068 32.9606C35.2163 32.3515 35.2903 31.7452 35.4273 31.152C35.4609 31.1505 35.4933 31.139 35.5204 31.1188C35.6509 31.0069 35.7108 30.8049 35.8138 30.6151C35.7503 30.5675 35.6829 30.5255 35.6122 30.4895Z" fill="#5CFFE4"/>
<path d="M25.2487 26.1689L25.232 26.1789C25.214 26.1985 25.1947 26.2167 25.1839 26.2299L25.1812 26.2326C25.2068 26.2151 25.2296 26.1936 25.2487 26.1689Z" fill="#5CFFE4"/>
<path d="M61.3521 54.8471L61.3642 54.8535C61.6095 54.9786 61.6649 55.0037 61.6244 54.9113C61.57 54.8124 61.5038 54.7207 61.4272 54.6382C61.2873 54.4826 61.1086 54.3652 61.0537 54.3816C60.9727 54.4066 61.0564 54.5463 61.312 54.8062L61.3521 54.8471Z" fill="#5CFFE4"/>
<path d="M57.161 56.1015C56.9524 56.1936 56.76 56.3195 56.5913 56.4741L55.9663 57.0757C55.7503 57.2863 55.5343 57.4979 55.3106 57.7008C54.6316 58.3174 53.9134 58.8898 53.2542 59.5299L52.7398 60.0304L52.2102 60.606L51.1536 61.7731L49.053 64.1195C48.7042 64.5336 48.3559 64.9331 48.018 65.348C47.7885 65.6306 47.5977 65.9395 47.7534 66.5383C48.09 66.2922 48.369 66.1288 48.6025 65.9104C48.859 65.6715 49.1007 65.4186 49.3347 65.1569L50.07 64.3138C50.5848 63.7182 51.0856 63.1072 51.6112 62.5202L53.1925 60.7685C53.71 60.2411 54.2226 59.752 54.7455 59.251C55.1635 58.8533 55.591 58.4671 56.0207 58.0839C56.4401 57.7072 56.9104 57.2959 57.2587 56.966C57.3813 56.8557 57.4784 56.7195 57.5431 56.567C57.58 56.476 57.5606 56.2849 57.4945 56.203C57.4283 56.1211 57.2398 56.0678 57.161 56.1015Z" fill="#5CFFE4"/>
<path d="M47.0104 66.643C46.5213 67.098 45.9511 67.5343 45.9646 68.5162C46.7485 68.2719 47.1076 67.6553 47.4717 67.0802C47.5136 67.0142 47.4443 66.7936 47.3655 66.7217C47.2867 66.6498 47.0698 66.5893 47.0104 66.643Z" fill="#5CFFE4"/>
<path d="M44.5733 69.2824C44.2506 69.6168 43.9167 69.9399 43.6125 70.2912C43.5315 70.3822 43.5387 70.5642 43.4888 70.7703C43.7408 70.7676 43.9604 70.8326 44.0765 70.7507C44.4169 70.5147 44.7307 70.2417 45.0125 69.9367C45.1475 69.7884 45.1754 69.5331 45.2568 69.3138C44.7137 69.1441 44.711 69.1395 44.5733 69.2824Z" fill="#5CFFE4"/>
<path d="M42.2009 72.5538C42.8408 72.4838 42.9065 72.4105 42.87 71.7722C42.3719 71.8227 42.1829 72.072 42.2009 72.5538Z" fill="#5CFFE4"/>
<path d="M48.2236 48.7705C48.274 48.8911 48.3204 49.0221 48.3838 49.145C48.3978 49.1688 48.4167 49.1892 48.4392 49.2049C48.4617 49.2206 48.4874 49.2312 48.5143 49.236C48.6394 49.2387 48.7906 49.2619 48.8824 49.2005C49.104 49.0486 49.3109 48.8758 49.5003 48.6845C49.7221 48.4648 49.9255 48.2145 50.1375 47.9802C50.1757 47.9347 50.286 47.825 50.3625 47.7449L50.6217 47.4933C50.793 47.3306 50.9733 47.1778 51.1617 47.0356C51.5105 46.778 51.8429 46.4985 52.1571 46.1989C52.4366 45.8244 52.6971 45.4345 52.9527 45.0427L53.6916 43.9075C53.8109 43.7223 53.9121 43.5221 54.0422 43.3465C54.2019 43.1317 54.381 42.9297 54.5511 42.7218C54.6366 42.6185 54.719 42.5129 54.7968 42.4033C54.8338 42.3567 54.8618 42.3036 54.8796 42.2467C54.9093 42.1531 54.946 42.0618 54.9894 41.9737C55.0556 41.8742 55.1288 41.7796 55.2086 41.6907L55.7396 41.1211C56.1446 40.6961 56.5613 40.2789 56.9586 39.8471L57.0545 39.7465C57.0703 39.7317 57.087 39.7179 57.1044 39.7051L57.1976 39.6428C57.2616 39.606 57.3219 39.5628 57.3776 39.514C57.4137 39.4881 57.445 39.4561 57.4703 39.4194C57.5013 39.3657 57.6021 39.2829 57.6741 39.2255L57.8789 39.0536C57.954 38.9889 58.0278 38.9225 58.0985 38.8547C58.3802 38.5817 58.6101 38.2682 58.67 37.8164C59.21 37.76 59.525 37.6631 59.7189 37.4201C59.9461 37.1325 60.1883 36.8573 60.4443 36.5956C60.6999 36.3372 60.9537 36.0628 61.2377 35.8272C61.4672 35.6315 61.5464 35.4004 61.3907 35.1028C61.0536 34.8789 60.7607 34.8994 60.5321 35.1892C60.1307 35.7166 59.5502 35.9987 59.0975 36.456C58.7973 36.7631 58.5309 37.0443 58.44 37.4447L57.315 38.0312L57.045 38.1704L56.91 38.2396C56.8767 38.2532 56.852 38.2578 56.8232 38.2673C56.7184 38.3026 56.6115 38.3314 56.5032 38.3533C56.4911 38.3556 56.478 38.3629 56.4798 38.3783C56.4884 38.4265 56.4901 38.4757 56.4848 38.5244C56.4519 38.8461 56.1963 38.7064 55.8188 39.1673C55.6235 39.4116 55.3035 39.5445 55.1303 39.8043C54.9156 40.1228 54.7122 40.4536 54.507 40.7812C54.4391 40.8813 54.4548 40.8899 54.4274 40.9436L54.3725 41.0724C54.3377 41.156 54.2987 41.2377 54.2555 41.3172C54.2328 41.3777 54.2061 41.4367 54.1758 41.4937L54.0372 41.7813L53.7002 42.3728C53.4693 42.775 53.2668 43.1376 52.9995 43.5644C52.5909 44.2014 52.1445 44.8211 51.5937 45.3225C51.5345 45.3775 51.4809 45.4385 51.4339 45.5045C51.2575 45.6756 51.1036 45.899 50.9353 46.0878C50.812 46.2243 50.7076 46.3836 50.5753 46.511L49.8616 47.1885L49.3257 47.684L48.3726 48.5621C48.3195 48.6108 48.2848 48.685 48.2236 48.7705Z" fill="#5CFFE4"/>
<path d="M42.9645 54.1982C42.9272 54.221 42.8718 54.2346 42.8592 54.2728C42.6869 54.8061 42.1788 55.0009 41.8746 55.4017C41.723 55.6019 41.6006 55.7917 41.7135 56.1339C42.2333 56.1384 42.2306 56.1712 42.5159 55.8781C42.8507 55.5414 43.1751 55.1956 43.496 54.843C43.6917 54.6282 43.7043 54.4257 43.5581 54.2515C43.4118 54.0772 43.1945 54.0613 42.9645 54.1982Z" fill="#5CFFE4"/>
<path d="M45.3229 52.7413C45.5661 52.6706 45.7962 52.5602 46.0042 52.4146C46.173 52.3027 46.1671 52.0847 46.0429 51.7376C45.8278 51.7116 45.5871 51.6115 45.4521 51.6834C45.2604 51.7872 45.116 51.9955 45.0062 52.1985C44.8964 52.4014 45.1303 52.7918 45.3229 52.7413Z" fill="#5CFFE4"/>
<path d="M46.6311 50.3166C46.4093 50.459 46.2801 50.8963 46.3832 51.1925C46.4529 51.3936 46.6401 51.475 46.7589 51.4199C47.0707 51.2693 47.3727 51.0837 47.3376 50.5555C47.0928 50.3194 46.8772 50.1592 46.6311 50.3166Z" fill="#5CFFE4"/>
<path d="M48.2745 49.4722C47.9824 49.2656 47.6814 49.1787 47.4568 49.4562C47.2737 49.6773 47.1976 49.9612 47.478 50.2861C48.2119 50.2724 48.2758 50.2037 48.2745 49.4722Z" fill="#5CFFE4"/>
<path d="M44.8419 53.3629C44.8671 53.2669 44.863 53.048 44.8248 53.0239C44.674 52.9329 44.4445 52.81 44.3676 52.866C44.152 53.0216 43.9441 53.2359 44.1849 53.7255C44.5345 53.7505 44.7541 53.6523 44.8419 53.3629Z" fill="#5CFFE4"/>
<path d="M48.9041 53.8187C48.8289 53.982 49.0351 54.2382 49.2047 54.1995C49.5994 54.1085 49.9522 53.9643 49.9374 53.3933C49.6354 53.1736 49.4207 53.1868 49.2623 53.331C49.1122 53.468 48.9905 53.6338 48.9041 53.8187Z" fill="#5CFFE4"/>
<path d="M57.5285 44.554C57.4898 44.5176 57.425 44.5267 57.3661 44.5363C57.3124 44.5423 57.2591 44.5512 57.2063 44.5631C57.1205 44.5814 57.0382 44.614 56.9629 44.6596C56.8347 44.7424 56.773 44.8643 56.7739 45.0322C56.7739 45.1596 56.8761 45.3398 56.9823 45.4322C57.0444 45.4863 57.2468 45.4545 57.3152 45.3867C57.4221 45.2904 57.5055 45.1703 57.5587 45.0359C57.5848 44.9617 57.5978 44.8835 57.5973 44.8047C57.5901 44.731 57.6001 44.5995 57.5285 44.554Z" fill="#5CFFE4"/>
<path d="M56.4993 46.0833C56.4208 45.9828 56.3064 45.9175 56.1807 45.9013C56.0399 45.8504 55.8729 45.9541 55.7307 46.0911C55.5843 46.2424 55.4593 46.4136 55.3595 46.5997C55.1916 46.8909 55.0836 47.2945 54.8802 47.4788C54.644 47.6931 54.4245 47.9255 54.2237 48.174C53.5739 48.7301 53.0213 49.3921 52.3927 49.9695L52.0853 50.2616L51.8801 50.4786L51.4832 50.9282C51.2186 51.2285 50.9432 51.5197 50.6066 51.7435C50.2547 51.9742 49.9654 52.4133 50.2529 53.0767C50.5567 53.0263 50.838 52.8835 51.0593 52.6672L53.0983 50.6142L54.8982 48.8211L56.241 46.9273C56.3443 46.7862 56.4347 46.6359 56.511 46.4783C56.5335 46.4307 56.5517 46.3812 56.5655 46.3304C56.5691 46.3011 56.5691 46.2714 56.5655 46.2421C56.5569 46.1844 56.5342 46.1298 56.4993 46.0833Z" fill="#5CFFE4"/>
<path d="M46.8722 55.4513C46.7575 55.5004 46.6648 55.6037 46.5649 55.6984C46.3849 55.8685 46.3075 56.0705 46.4749 56.4459C47.3159 56.2999 47.4378 56.1306 47.3416 55.5241C47.1476 55.4035 46.9946 55.4003 46.8722 55.4513Z" fill="#5CFFE4"/>
<path d="M47.986 54.3507C47.863 54.4827 47.7814 54.6486 47.7515 54.8275C47.7182 55.0418 47.968 55.2648 48.1565 55.2024C48.4715 55.0978 48.7122 54.9158 48.6722 54.4904C48.1471 54.2306 48.1223 54.206 47.986 54.3507Z" fill="#5CFFE4"/>
<path d="M59.2495 41.9101C59.2153 41.8914 59.1986 41.8646 59.1626 41.8646C59.1288 41.8671 59.0955 41.8743 59.0636 41.8859C59.0062 41.9093 58.9564 41.9485 58.9201 41.9992C58.8436 42.1007 58.7999 42.2495 58.7554 42.4087C59.2157 42.7473 59.4133 42.7846 59.5982 42.5421C59.6398 42.486 59.6638 42.4187 59.6671 42.3487C59.6418 42.3012 59.6116 42.2565 59.5771 42.2154C59.4779 42.1031 59.3682 42.0009 59.2495 41.9101Z" fill="#5CFFE4"/>
<path d="M45.5671 56.8591C45.3043 56.9715 45.1535 57.1812 45.3101 57.5871C45.6783 57.7072 45.8232 57.4961 45.9497 57.289C45.9884 57.2249 45.9542 57.0306 45.8929 56.9678C45.8155 56.89 45.6409 56.8295 45.5671 56.8591Z" fill="#5CFFE4"/>
<path d="M57.9206 43.2163C57.8528 43.2947 57.816 43.3956 57.8174 43.4997C57.8188 43.6038 57.8583 43.7037 57.9283 43.7801C58.0664 43.9262 58.3117 43.9112 58.4526 43.7433C58.5876 43.5822 58.5255 43.4184 58.4134 43.2964C58.2154 43.0999 58.0592 43.0575 57.9206 43.2163Z" fill="#5CFFE4"/>
<path d="M41.8952 49.8712C41.7854 50.0032 41.7382 50.2148 41.9402 50.4254C42.4861 50.3344 42.5838 50.2639 42.6153 49.6519C42.203 49.428 42.055 49.6974 41.8952 49.8712Z" fill="#5CFFE4"/>
<path d="M49.9745 42.5288C50.204 42.3436 50.1743 42.1739 49.8192 41.7203C49.3431 42.1999 49.2598 42.4155 49.4335 42.6271C49.6072 42.8387 49.8048 42.6676 49.9745 42.5288Z" fill="#5CFFE4"/>
<path d="M49.0611 59.6095L49.5079 59.0203C49.6573 58.8238 49.7968 58.6322 50.0029 58.4384C50.5879 57.8692 51.0658 57.1826 51.7858 56.7667C51.8988 56.7016 51.9766 56.5847 52.0675 56.486C52.1913 56.354 52.1989 56.1948 52.0549 56.0018C51.2679 55.8016 51.2085 55.8444 50.8179 56.8955C50.6379 56.9046 50.4327 56.8841 50.2626 56.935C50.1217 56.9769 49.9656 57.067 49.908 57.1971C49.6956 57.6976 49.269 58.0348 48.9486 58.3283C48.838 58.4149 48.7499 58.5275 48.6921 58.6563C48.5256 59.0927 48.2137 59.3648 47.8546 59.595C47.7534 59.6591 47.6373 59.7115 47.5594 59.8007C47.104 60.3289 46.7661 60.8503 46.0929 61.3508C46.0029 61.4154 45.9462 61.5328 45.8742 61.6238L45.2721 62.3942L44.7865 62.9911C44.6398 63.1686 44.5138 63.3747 44.3365 63.5126C44.0404 63.7401 43.9369 64.0513 43.9648 64.5359C44.3082 64.4631 44.5557 64.3598 44.7478 64.1505C45.0453 63.8251 45.3945 63.5399 45.6249 63.1613C45.9538 62.6189 46.4074 62.2058 46.8592 61.7963C47.0713 61.6015 47.2824 61.4082 47.4924 61.2162C47.685 61.0344 47.8538 60.8285 47.9946 60.6033C48.4266 60.3498 48.7564 59.9945 49.0611 59.6095Z" fill="#5CFFE4"/>
<path d="M43.6501 65.1938C43.6501 65.0805 43.4624 64.9476 43.3616 64.9963C43.1636 65.0923 43.0264 65.2415 43.0151 65.5755C43.1317 65.6123 43.2293 65.6733 43.2671 65.6483C43.3974 65.5572 43.518 65.4527 43.6271 65.3366C43.6559 65.3102 43.6501 65.2438 43.6501 65.1938Z" fill="#5CFFE4"/>
<path d="M49.0996 43.4839C49.1414 43.4179 49.0721 43.1972 48.9938 43.1249C48.9155 43.0525 48.6955 42.9929 48.6388 43.0466C48.1492 43.5016 47.5795 43.938 47.5925 44.9198C48.3751 44.6751 48.7351 44.059 49.0996 43.4839Z" fill="#5CFFE4"/>
<path d="M45.7044 47.1544C46.045 46.9184 46.3589 46.6453 46.6404 46.3399C46.7754 46.192 46.8038 45.9368 46.8848 45.7175C46.3416 45.5473 46.3394 45.5432 46.2012 45.6861C45.8786 46.0205 45.5451 46.3435 45.2405 46.6948C45.1595 46.7858 45.1667 46.9678 45.1172 47.1739C45.3687 47.1712 45.5883 47.2358 45.7044 47.1544Z" fill="#5CFFE4"/>
<path d="M44.498 48.1758C44.0003 48.2263 43.8108 48.4775 43.8288 48.9575C44.4687 48.8875 44.5344 48.8142 44.498 48.1758Z" fill="#5CFFE4"/>
<path d="M40.6979 56.7981C40.58 56.9664 40.4499 57.1512 40.3379 57.3131C40.4544 57.6771 40.6668 57.7868 40.9004 57.6462C41.0583 57.5525 41.2482 57.3523 41.2527 57.1821C41.2586 56.8632 40.9796 56.8154 40.6979 56.7981Z" fill="#5CFFE4"/>
<path d="M40.3301 75.5168C40.7432 75.4713 40.7504 75.4608 40.7036 74.9421C40.1537 75.0527 40.1614 75.0404 40.3301 75.5168Z" fill="#5CFFE4"/>
<path d="M55.6075 68.5417C55.5702 68.5644 55.5148 68.5781 55.5027 68.6158C55.3299 69.1495 54.8219 69.3438 54.5181 69.7451C54.366 69.9453 54.2436 70.135 54.3566 70.4772C54.8763 70.4817 54.8736 70.514 55.1589 70.2215C55.4937 69.8848 55.8186 69.539 56.1394 69.1864C56.3347 68.9716 56.3478 68.7692 56.2015 68.5949C56.0553 68.4206 55.8375 68.4047 55.6075 68.5417Z" fill="#5CFFE4"/>
<path d="M58.0951 66.0269C57.9029 66.1306 57.7585 66.339 57.6491 66.5419C57.5398 66.7448 57.7729 67.1334 57.9641 67.0847C58.2073 67.014 58.4374 66.9036 58.6454 66.758C58.8146 66.6461 58.8083 66.4282 58.6841 66.081C58.4708 66.0551 58.2301 65.955 58.0951 66.0269Z" fill="#5CFFE4"/>
<path d="M59.4 65.7612C59.7123 65.6106 60.0138 65.4249 59.9791 64.8966C59.7343 64.6637 59.5183 64.5035 59.2722 64.6609C59.0508 64.8034 58.9212 65.2406 59.0242 65.5368C59.0958 65.737 59.283 65.8185 59.4 65.7612Z" fill="#5CFFE4"/>
<path d="M60.9173 63.8156C60.6253 63.6086 60.3242 63.5221 60.0997 63.7996C59.917 64.0208 59.8405 64.3047 60.1209 64.6295C60.8552 64.6159 60.9186 64.5472 60.9173 63.8156Z" fill="#5CFFE4"/>
<path d="M57.4677 67.3673C57.3174 67.2763 57.0874 67.1534 57.0109 67.2094C56.795 67.365 56.5871 67.5793 56.8282 68.069C57.1774 68.094 57.3975 67.9957 57.4848 67.7049C57.51 67.6103 57.5059 67.3914 57.4677 67.3673Z" fill="#5CFFE4"/>
<path d="M67.5415 63.1622L68.8843 61.2685C68.9876 61.1274 69.078 60.9771 69.1543 60.8194C69.1767 60.7717 69.1951 60.7223 69.2092 60.6715C69.2128 60.6413 69.2128 60.6107 69.2092 60.5805C69.2008 60.5242 69.1792 60.4707 69.1462 60.4244C69.0676 60.324 68.9533 60.2587 68.8276 60.2424C68.6863 60.1915 68.5194 60.2952 68.3776 60.4322C68.231 60.5835 68.1059 60.7547 68.0059 60.9409C67.8381 61.2321 67.7301 61.6357 67.5267 61.8199C67.2902 62.0347 67.0707 62.2677 66.8701 62.517C66.2203 63.073 65.6673 63.735 65.0391 64.3124L64.7313 64.6046L64.5261 64.8216L64.1292 65.2711C63.8646 65.5714 63.5892 65.8626 63.2525 66.086C62.9011 66.3172 62.6113 66.7563 62.8988 67.4197C63.2026 67.3694 63.484 67.2265 63.7053 67.0102L65.7442 64.9572L67.5415 63.1622Z" fill="#5CFFE4"/>
<path d="M59.5158 69.797C59.4006 69.8462 59.3079 69.9495 59.2085 70.0441C59.0285 70.2143 58.9511 70.4163 59.1185 70.7917C59.9594 70.6457 60.0814 70.4764 59.9855 69.8698C59.7907 69.747 59.6377 69.7438 59.5158 69.797Z" fill="#5CFFE4"/>
<path d="M60.6292 68.6941C60.5065 68.8263 60.4251 68.9921 60.3952 69.1709C60.3614 69.3852 60.6112 69.6081 60.8002 69.5458C61.1152 69.4412 61.356 69.2592 61.3155 68.8337C60.7903 68.5739 60.7656 68.5494 60.6292 68.6941Z" fill="#5CFFE4"/>
<path d="M58.2103 71.2025C57.9475 71.3149 57.7963 71.5247 57.9534 71.9306C58.321 72.0507 58.4664 71.8396 58.5924 71.6325C58.6315 71.5684 58.5973 71.3741 58.5357 71.3113C58.4583 71.2335 58.2841 71.1711 58.2103 71.2025Z" fill="#5CFFE4"/>
<path d="M53.3114 65.5605C52.919 65.7379 52.6814 66.0496 52.7754 66.6611C53.3226 66.6124 53.6034 66.318 53.7542 65.8612C53.6399 65.6223 53.4896 65.4799 53.3114 65.5605Z" fill="#5CFFE4"/>
<path d="M55.2549 63.9953C54.8454 63.7715 54.6978 64.0408 54.5349 64.2147C54.4251 64.3466 54.3778 64.5582 54.5799 64.7689C55.1271 64.677 55.2248 64.6073 55.2549 63.9953Z" fill="#5CFFE4"/>
<path d="M57.1543 62.1499C57.3838 61.9647 57.3541 61.795 56.9986 61.3413C56.5229 61.8209 56.4397 62.0366 56.6129 62.2481C56.7862 62.4597 56.9846 62.2895 57.1543 62.1499Z" fill="#5CFFE4"/>
<path d="M62.7779 56.3477C63.0695 56.0861 63.3386 55.7985 63.6099 55.5128C63.8741 55.2334 64.1764 54.9213 64.4145 54.7302C64.6314 54.5527 64.5625 54.4476 64.1791 54.0959C63.938 54.0959 63.7449 54.1414 63.6036 54.2483C63.4389 54.3775 63.308 54.5846 63.2436 54.8626C63.2234 54.9458 63.0636 54.9786 62.9624 55.0163C62.3045 55.2602 62.1182 55.6347 62.3176 56.4268C62.4724 56.4046 62.6762 56.4396 62.7779 56.3477Z" fill="#5CFFE4"/>
<path d="M60.1155 59.059C60.3032 58.9389 60.3955 58.7123 60.2843 58.422C59.972 58.1867 59.6709 58.2031 59.4338 58.417C59.0647 58.7509 58.5675 59.0057 58.6363 59.7747C59.355 59.8493 59.675 59.3411 60.1155 59.059Z" fill="#5CFFE4"/>
<path d="M61.8064 57.3487C61.923 57.2154 62.0166 57.0475 61.86 56.8482C61.7034 56.6489 61.5 56.5925 61.2993 56.6839C60.9064 56.8659 60.7224 57.1922 60.8043 57.76C61.3218 57.9129 61.5639 57.6244 61.8064 57.3487Z" fill="#5CFFE4"/>
<path d="M65.4616 53.032C64.9116 53.1426 64.9215 53.1303 65.0876 53.6067C65.5012 53.5589 65.5079 53.5503 65.4616 53.032Z" fill="#5CFFE4"/>
<path d="M23.0506 32.9629C23.0584 32.8339 23.0236 32.7058 22.9516 32.5989C22.9066 32.538 22.737 32.502 22.6749 32.5398C22.5115 32.6376 22.3765 32.7823 22.165 32.9648C22.2744 33.1286 22.3405 33.3156 22.458 33.3852C22.6501 33.4989 22.7833 33.3492 22.8886 33.2032C22.9462 33.124 23.0439 33.0539 23.0506 32.9629Z" fill="#5CFFE4"/>
<path d="M36.2492 24.2515C36.4706 23.9553 36.6187 23.6099 36.6812 23.2441C36.0062 23.0585 35.5738 23.6131 35.5112 24.7161C35.8402 24.6087 36.0832 24.4567 36.2492 24.2515Z" fill="#5CFFE4"/>
<path d="M33.6335 26.9692C33.4674 26.8973 33.345 26.8755 33.2532 26.8928C33.1259 26.9483 33.019 27.0428 32.9476 27.163C32.8437 27.3232 32.7676 27.5079 32.9535 27.7249C33.557 27.6403 33.7523 27.4438 33.6335 26.9692Z" fill="#5CFFE4"/>
<path d="M23.0762 37.4683C22.8188 37.5789 22.6987 37.7778 22.9088 38.1536C23.1905 38.2187 23.3521 38.0963 23.4367 37.9056C23.4744 37.8205 23.416 37.6422 23.3489 37.5416C23.3102 37.4797 23.1455 37.4383 23.0762 37.4683Z" fill="#5CFFE4"/>
<path d="M24.2012 36.4073C24.4491 36.6179 24.6629 36.647 24.8249 36.4496C24.9815 36.2703 24.9347 36.0628 24.6831 35.8126C24.3902 35.9277 24.2295 36.102 24.2012 36.4073Z" fill="#5CFFE4"/>
<path d="M29.7293 31.6025C29.8719 31.4328 29.8881 31.1598 29.5821 30.9418C29.129 31.0169 28.7722 31.2963 28.5359 31.6698C28.1858 32.2322 27.7331 32.6745 27.28 33.1258C27.0185 33.3897 26.7989 33.6805 26.879 34.2429C27.0491 34.2178 27.1585 34.2274 27.239 34.1864C28.3352 33.6172 28.9535 32.5225 29.7293 31.6025Z" fill="#5CFFE4"/>
<path d="M30.9242 30.2407C31.1298 30.0257 31.3016 29.7802 31.4336 29.5127C31.5034 29.3675 31.3733 29.1778 31.1785 29.1646C30.8221 29.1409 30.5084 29.2187 30.3788 29.6041C30.3028 29.8248 30.2254 30.0436 30.1538 30.2893C30.5273 30.5414 30.7478 30.4245 30.9242 30.2407Z" fill="#5CFFE4"/>
<path d="M28.6349 43.1558C28.4885 43.2027 28.3576 43.2892 28.2565 43.4061C28.0193 43.6063 27.923 43.9316 27.8848 44.3757C28.3456 44.4085 28.6741 44.2747 28.9103 44.0335C28.9828 43.926 29.0421 43.8098 29.0867 43.6877C29.1317 43.5635 29.12 43.3292 29.0417 43.2382C28.9634 43.1472 28.7474 43.1167 28.6349 43.1558Z" fill="#5CFFE4"/>
<path d="M41.8599 45.54C42.2779 45.1424 42.7054 44.7561 43.1352 44.3725C43.555 43.9958 44.0253 43.5845 44.3736 43.255C44.496 43.1444 44.5931 43.008 44.658 42.8555C44.6949 42.7645 44.6755 42.5739 44.6094 42.4915C44.5432 42.4092 44.3565 42.35 44.2773 42.3851C44.0685 42.4769 43.8759 42.6027 43.7071 42.7573L43.0825 43.3615C42.8661 43.5722 42.6501 43.7842 42.4269 43.9867C41.7478 44.6037 41.0292 45.1756 40.3704 45.8162L39.856 46.3167L39.3264 46.8928L38.2694 48.0594L36.1692 50.4063C35.82 50.8203 35.4722 51.2198 35.1342 51.6348C34.9047 51.9178 34.7139 52.2263 34.8696 52.8251C35.2062 52.5789 35.4848 52.4156 35.7188 52.1976C35.9748 51.9583 36.2169 51.7053 36.4505 51.4441L37.1862 50.6006C37.701 50.005 38.2019 49.3939 38.7274 48.807L40.3087 47.0557C40.8249 46.5301 41.337 46.041 41.8599 45.54Z" fill="#5CFFE4"/>
<path d="M34.1265 52.9265C33.6369 53.3815 33.0672 53.8179 33.0803 54.7998C33.8646 54.555 34.2233 53.9389 34.5878 53.3638C34.6292 53.2978 34.5603 53.0771 34.4816 53.0048C34.4028 52.9324 34.1832 52.871 34.1265 52.9265Z" fill="#5CFFE4"/>
<path d="M30.7932 40.4067C30.7563 40.4295 30.7032 40.4431 30.6883 40.4814C30.5155 41.0151 30.0075 41.2094 29.7037 41.6102C29.5521 41.8104 29.4297 42.0006 29.5426 42.3423C30.0619 42.3473 30.0597 42.3796 30.345 42.087C30.6793 41.7503 31.0042 41.4045 31.3251 41.0515C31.5204 40.8372 31.5334 40.6347 31.3872 40.46C31.2409 40.2853 31.0236 40.2702 30.7932 40.4067Z" fill="#5CFFE4"/>
<path d="M33.1521 38.9481C33.3952 38.8774 33.6253 38.767 33.8334 38.6213C34.0021 38.5094 33.9963 38.2915 33.8721 37.9447C33.657 37.9183 33.4162 37.8187 33.2812 37.8906C33.0891 37.9943 32.9451 38.2027 32.8353 38.4052C32.7255 38.6077 32.9595 39.0008 33.1521 38.9481Z" fill="#5CFFE4"/>
<path d="M32.6539 39.2324C32.5032 39.1414 32.2737 39.019 32.1967 39.0749C31.9812 39.2305 31.7732 39.4444 32.014 39.934C32.3637 39.959 32.5833 39.8607 32.671 39.57C32.6962 39.4753 32.6917 39.2569 32.6539 39.2324Z" fill="#5CFFE4"/>
<path d="M49.8151 21.2662C49.9731 21.1725 50.163 20.9723 50.1675 20.8021C50.1751 20.4836 49.8975 20.4354 49.6144 20.4181C49.496 20.5869 49.3664 20.7717 49.2544 20.9332C49.37 21.2995 49.582 21.4073 49.8151 21.2662Z" fill="#5CFFE4"/>
<path d="M37.0351 40.4085C37.4302 40.3175 37.7826 40.1728 37.7682 39.6018C37.4658 39.3821 37.2511 39.3953 37.0932 39.5395C36.9424 39.6764 36.8201 39.8421 36.7332 40.0272C36.6581 40.191 36.8641 40.4467 37.0351 40.4085Z" fill="#5CFFE4"/>
<path d="M35.173 41.733C34.9768 41.612 34.8238 41.6093 34.7014 41.6598C34.5862 41.7094 34.4935 41.8122 34.394 41.9069C34.214 42.077 34.1366 42.279 34.3063 42.6544C35.1473 42.5084 35.2693 42.3391 35.173 41.733Z" fill="#5CFFE4"/>
<path d="M35.9839 41.4113C36.2989 41.3062 36.5396 41.1243 36.4996 40.6988C35.9762 40.4395 35.9515 40.4145 35.8151 40.5592C35.692 40.6913 35.6104 40.8574 35.5806 41.0364C35.5473 41.2503 35.7971 41.4732 35.9839 41.4113Z" fill="#5CFFE4"/>
<path d="M33.3959 43.068C33.1331 43.18 32.9819 43.3897 33.1389 43.796C33.5066 43.9162 33.6519 43.7078 33.7784 43.4985C33.8171 43.4339 33.7829 43.24 33.7217 43.1768C33.6443 43.0985 33.4697 43.0366 33.3959 43.068Z" fill="#5CFFE4"/>
<path d="M38.6345 27.9525C38.7695 27.9047 38.8879 27.8101 38.9774 27.7577C38.9819 27.7518 38.9882 27.745 38.9882 27.745C39.0449 27.6615 39.0961 27.5744 39.1417 27.4843C39.2317 27.2759 39.2929 27.0188 39.0778 26.9205C38.9365 26.8555 38.6827 26.8909 38.5742 27.0001C38.5155 27.0616 38.4669 27.1321 38.4302 27.209C38.3507 27.324 38.2847 27.448 38.2336 27.5785C38.1355 27.8132 38.3803 28.043 38.6345 27.9525Z" fill="#5CFFE4"/>
<path d="M36.8272 29.4722C36.9118 29.5177 37.0738 29.4722 37.1422 29.4048C37.409 29.1387 37.2965 28.9389 36.7606 28.7223C36.7234 28.7835 36.6913 28.8477 36.6647 28.9143C36.6418 28.9867 36.6067 29.0763 36.6305 29.1418C36.6751 29.2633 36.7385 29.4258 36.8272 29.4722Z" fill="#5CFFE4"/>
<path d="M28.4977 37.426C28.1049 37.603 27.8677 37.9152 27.9613 38.5262C28.5085 38.478 28.7897 38.1836 28.94 37.7263C28.8244 37.4879 28.6754 37.345 28.4977 37.426Z" fill="#5CFFE4"/>
<path d="M29.7677 36.6338C30.3135 36.5428 30.4112 36.4723 30.4427 35.8604C30.0332 35.636 29.8851 35.9059 29.7227 36.0797C29.6138 36.2116 29.5652 36.4232 29.7677 36.6338Z" fill="#5CFFE4"/>
<path d="M35.825 46.8108C36.2556 46.5588 36.5855 46.203 36.8901 45.818L37.337 45.2265C37.4864 45.0304 37.6259 44.8384 37.832 44.645C38.417 44.0754 38.8949 43.3888 39.6149 42.9729C39.7278 42.9083 39.8057 42.7909 39.8966 42.6922C40.0203 42.5607 40.028 42.401 39.884 42.2081C39.0969 42.0079 39.0375 42.0511 38.6469 43.1017C38.4647 43.1108 38.2617 43.0908 38.0916 43.1417C37.9503 43.1831 37.7946 43.2737 37.737 43.4038C37.5246 43.9043 37.098 44.241 36.7776 44.5345C36.6671 44.6212 36.5791 44.7338 36.5211 44.8625C36.3542 45.2989 36.0428 45.5714 35.6837 45.8012C35.5824 45.8653 35.4663 45.9181 35.3885 46.0069C34.9331 46.5351 34.5951 47.0565 33.9219 47.557C33.8319 47.6216 33.7752 47.739 33.7032 47.83L33.1011 48.6003L32.6156 49.1973C32.4684 49.3752 32.3429 49.5809 32.1656 49.7192C31.8695 49.9467 31.7655 50.2575 31.7934 50.742C32.1372 50.6692 32.3847 50.5664 32.5764 50.3571C32.8743 50.0313 33.2231 49.7465 33.4539 49.3675C33.7829 48.8256 34.2365 48.412 34.6883 48.0025L35.325 47.4237C35.5171 47.2421 35.6851 47.0361 35.825 46.8108Z" fill="#5CFFE4"/>
<path d="M31.1907 51.2052C30.9927 51.3008 30.8555 51.4505 30.8442 51.784C30.9608 51.8208 31.0584 51.8823 31.0962 51.8572C31.2263 51.7658 31.3469 51.6614 31.4563 51.5456C31.4824 51.5192 31.4761 51.4546 31.4774 51.4022C31.4815 51.2889 31.2915 51.1561 31.1907 51.2052Z" fill="#5CFFE4"/>
<path d="M67.1821 59.4526C67.1729 59.3449 67.1579 59.2378 67.1371 59.1318C67.0897 58.9053 67.0197 58.6843 66.9283 58.472C66.8792 58.3569 66.8243 58.2445 66.7658 58.1335C66.5723 57.7695 66.3883 57.3905 66.1637 57.0415C65.9942 56.7748 65.7997 56.5252 65.5828 56.2962C65.4824 56.1911 65.3771 56.0906 65.2678 55.9959C64.9852 55.7539 64.6904 55.525 64.397 55.2975C64.3409 55.2538 64.2836 55.2117 64.2251 55.171C64.0004 55.015 63.7609 54.882 63.5101 54.7738C63.1307 54.61 62.7451 54.4644 62.3563 54.3188C62.2919 54.2942 62.2271 54.2733 62.1614 54.2501C62.0323 54.2078 61.9009 54.1714 61.7686 54.1404C61.2502 54.0194 60.7143 53.9584 60.1909 53.8825C60.0529 53.8615 59.914 53.8453 59.7742 53.8338C59.6293 53.8226 59.4843 53.8156 59.3391 53.8128C58.7572 53.8033 58.1727 53.8324 57.5922 53.8538C56.7291 53.8852 55.8691 54.0472 55.0204 54.2178C54.9178 54.014 54.8149 53.8101 54.7117 53.6063C54.8589 53.5803 55.0056 53.5503 55.1518 53.5153C55.8675 53.4169 56.5641 53.2089 57.2178 52.8983C57.817 52.6604 58.3695 52.3165 58.8495 51.8827C59.3063 51.5701 59.6892 51.1593 59.9709 50.6797L60.307 49.823C60.4156 49.226 60.2752 48.6961 59.8858 48.2332L59.1708 47.6617C58.5023 47.3148 57.7662 47.1216 57.0153 47.0957C56.536 47.0229 56.0496 46.9847 55.5663 46.9551C55.0632 46.9248 54.5593 46.9113 54.0547 46.9146C53.3307 46.921 52.6057 46.9387 51.8826 46.9756C51.7147 46.9842 51.5469 46.9956 51.379 47.0088L51.2409 46.7358C51.0909 46.4415 50.9421 46.1469 50.7945 45.8517L50.7751 45.8139C50.6551 45.3438 50.4001 44.9862 50.0101 44.7411C49.6419 44.3758 49.1742 44.1302 48.6669 44.0358C48.0673 43.8599 47.4409 43.7969 46.8187 43.8497C46.1149 43.8263 45.4121 43.92 44.7384 44.1273L43.3807 44.6137C42.6039 44.9538 41.8953 45.4353 41.2905 46.0342L40.6411 46.8827C40.4784 47.1409 40.3682 47.4293 40.3172 47.731C40.2661 48.0328 40.2751 48.3418 40.3437 48.64C40.4463 48.8438 40.549 49.0473 40.6519 49.2506C40.9003 49.7429 41.1489 50.2349 41.3976 50.7266C41.1775 50.9054 40.9615 51.0879 40.7478 51.2685C40.4985 51.4756 40.2651 51.7016 40.0498 51.9446C40.0048 51.9974 39.9598 52.0506 39.9148 52.1052C39.6516 52.4315 39.3843 52.7568 39.1337 53.0939C39.0455 53.2126 38.9628 53.3351 38.8857 53.4616C38.5892 53.9489 38.3948 54.5081 38.1999 55.0363C38.1092 55.2807 38.0458 55.5345 38.0109 55.793C37.9937 55.9199 37.984 56.0476 37.9817 56.1757C37.972 56.5792 37.9845 56.9829 38.019 57.385C38.0433 57.6462 38.0969 57.9037 38.1788 58.1526C38.3484 58.6727 38.64 59.17 38.9055 59.6364C39.0375 59.8701 39.1901 60.0914 39.3614 60.2975C39.4733 60.4314 39.5966 60.5552 39.7299 60.6674C40.0714 60.9536 40.4418 61.2844 40.8391 61.5165C41.2702 61.7685 41.8075 61.9405 42.2454 62.108C42.4026 62.168 42.5638 62.2168 42.7278 62.254C42.8088 62.2722 42.8898 62.2877 42.9717 62.2995C43.4464 62.3773 43.9234 62.4647 44.4027 62.5138C44.5814 62.532 44.7608 62.5411 44.9404 62.5411C45.7239 62.5411 46.5258 62.5329 47.3079 62.4296L47.5356 62.8801L48.4239 64.6396C47.7868 64.7479 47.1673 64.9435 46.5825 65.2211C45.983 65.4588 45.4302 65.8029 44.9503 66.2371C44.4937 66.55 44.111 66.9611 43.8298 67.441C43.7176 67.7267 43.6054 68.0123 43.4932 68.2978C43.3852 68.8953 43.5256 69.4253 43.9144 69.8875L44.6295 70.4595C45.298 70.8062 46.0341 70.9993 46.785 71.025C46.8124 71.025 46.8394 71.025 46.8664 71.025C47.343 71.0196 47.8222 71.0137 48.2983 70.9845C48.4005 70.9782 48.5026 70.9682 48.6048 70.9572C48.9117 70.924 49.2172 70.8794 49.5223 70.8308C50.1438 70.732 50.7634 70.6165 51.3817 70.4959C51.5176 70.7652 51.6537 71.0346 51.7899 71.304L51.8088 71.3417C51.9288 71.8113 52.1838 72.1688 52.5738 72.4142C52.9417 72.7795 53.4094 73.0251 53.9166 73.1194C54.5163 73.2955 55.1429 73.3586 55.7652 73.3055C56.4689 73.3291 57.1718 73.2354 57.8455 73.0284L59.2027 72.542C59.9795 72.2016 60.688 71.72 61.2929 71.121L61.9423 70.2729C62.1051 70.0147 62.2152 69.7262 62.2663 69.4244C62.3173 69.1226 62.3083 68.8135 62.2397 68.5153L61.9315 67.9047L61.5292 67.1084C61.8649 66.9264 62.1997 66.7444 62.5291 66.5515C63.3125 66.0933 64.0001 65.5245 64.7003 64.9421C64.8808 64.7934 65.0524 64.634 65.2142 64.4649C65.2921 64.3834 65.3672 64.2997 65.4392 64.2128C65.6962 63.9034 65.9441 63.5853 66.1903 63.2673C66.2222 63.2259 66.2537 63.184 66.2839 63.1413C66.4057 62.9723 66.5124 62.7928 66.6029 62.6048C66.625 62.5593 66.6479 62.5138 66.6655 62.4642C66.8005 62.1384 66.9355 61.8086 67.0534 61.476C67.0875 61.3827 67.1165 61.2876 67.1402 61.1911C67.1886 60.9956 67.2148 60.7952 67.2185 60.5937C67.2269 60.2129 67.2147 59.832 67.1821 59.4526Z" fill="black"/>
<path d="M63.1953 60.0691C63.123 59.7972 63.024 59.5334 62.8996 59.2815C62.7635 58.9845 62.6024 58.6998 62.4181 58.4306C62.1876 58.1094 61.927 57.8114 61.6401 57.5406C61.4339 57.3398 61.2077 57.1611 60.9651 57.0074C60.6541 56.8072 60.3244 56.6382 59.9809 56.5028C59.6273 56.3707 59.2631 56.2695 58.8924 56.2002C58.6123 56.1467 58.3289 56.1134 58.0441 56.1006C57.6436 56.0769 57.242 56.0755 56.8413 56.0965C56.0992 56.142 55.3594 56.2707 54.6322 56.425C53.9833 56.5615 53.3421 56.7335 52.704 56.915C52.584 56.9493 52.464 56.9839 52.344 57.0188L51.4611 55.2702L49.905 52.1885L49.392 51.1725C49.4694 51.1543 49.5477 51.137 49.626 51.1215C49.9226 51.0808 50.2217 51.0616 50.521 51.0642C50.8317 51.0851 51.1404 51.1307 51.444 51.2007C51.7868 51.3003 52.1195 51.4327 52.4376 51.5961C52.5542 51.6624 52.6658 51.7373 52.7715 51.8204C52.8907 51.9137 53.0307 51.9762 53.1792 52.0024C53.3367 52.0555 53.5037 52.0737 53.6688 52.0556C53.8499 52.0496 54.028 52.0075 54.193 51.9318C54.3595 51.8817 54.5141 51.798 54.6475 51.6857C54.8604 51.5014 55.0845 51.2462 55.0939 50.9454L55.0723 50.6756C55.0226 50.4979 54.9141 50.3427 54.765 50.2361C54.6788 50.1698 54.5886 50.109 54.495 50.0541C54.1741 49.853 53.8374 49.6789 53.4883 49.5335C53.0104 49.3407 52.5135 49.2 52.006 49.1136C51.7605 49.0704 51.5125 49.043 51.2635 49.0317C50.8822 49.0076 50.4998 49.0093 50.1187 49.0367C49.7012 49.0752 49.2868 49.1428 48.8785 49.2392C48.7399 49.2715 48.6036 49.3092 48.4681 49.3506L47.655 47.7317C47.506 47.4369 47.3598 47.1402 47.2081 46.8472L47.1892 46.8094C47.0992 46.6274 46.9003 46.5897 46.7163 46.5697C46.4107 46.536 46.048 46.5929 45.7564 46.677C45.4527 46.7649 45.1264 46.8718 44.8722 47.0692L44.6922 47.2226C44.6505 47.258 44.6183 47.3034 44.5986 47.3547C44.5789 47.406 44.5722 47.4615 44.5792 47.5161L44.8875 48.1267C45.1653 48.6763 45.4428 49.2258 45.72 49.7751L46.0561 50.4399C45.7794 50.6114 45.5085 50.793 45.2434 50.98C44.5697 51.452 43.9496 51.9978 43.3944 52.6075C43.183 52.8391 42.9896 53.0868 42.8157 53.3483C42.6034 53.6593 42.4202 53.9897 42.2685 54.3352C42.0376 54.8884 41.8954 55.5082 41.9368 56.1097C41.9611 56.4614 41.9994 56.8008 42.1087 57.1366C42.2258 57.4863 42.3803 57.8219 42.5695 58.1376C43.0479 58.948 43.7598 59.59 44.6359 59.9271C44.8825 60.0169 45.1348 60.0898 45.391 60.1451C45.5543 60.1826 45.7196 60.2104 45.886 60.2283C46.3494 60.2781 46.8162 60.2867 47.281 60.2538C47.7822 60.212 48.2807 60.1418 48.7741 60.0436C49.1877 59.9667 49.5976 59.8716 50.0053 59.767C50.2306 59.7093 50.4556 59.6487 50.6803 59.585L51.7774 61.7571L53.334 64.8393L53.793 65.7493L53.7439 65.7634C52.9249 65.9876 52.099 66.1838 51.2662 66.3522C50.9134 66.4238 50.5597 66.4899 50.2051 66.5506C49.8163 66.6134 49.4248 66.6707 49.0351 66.6962H49.0167C48.8957 66.69 48.7745 66.7012 48.6567 66.7294C48.4763 66.7474 48.3012 66.8012 48.1414 66.8877C47.9896 66.9554 47.8539 67.0553 47.7436 67.1808C47.6276 67.2784 47.537 67.4034 47.4799 67.5448C47.3872 67.7996 47.3674 68.0971 47.5456 68.3255C47.7238 68.5539 48.0105 68.7255 48.298 68.741C48.5774 68.7582 48.8576 68.752 49.1359 68.7223C49.4455 68.6886 49.7542 68.6436 50.0616 68.5944C50.5984 68.5089 51.1335 68.4161 51.6667 68.3096C52.165 68.2101 52.6614 68.1008 53.1558 67.9816C53.6772 67.8557 54.196 67.7183 54.7123 67.5693L55.5849 69.2983C55.7338 69.5932 55.8801 69.8898 56.0317 70.1824L56.0506 70.2202C56.1406 70.4022 56.3395 70.4404 56.5236 70.4604C56.8291 70.4941 57.1918 70.4372 57.4834 70.353C57.7872 70.2652 58.1134 70.1583 58.3677 69.9608L58.5477 69.8075C58.5893 69.7721 58.6215 69.7266 58.6413 69.6753C58.661 69.6241 58.6677 69.5686 58.6606 69.514L58.3524 68.9034C58.0749 68.3537 57.7974 67.8043 57.5199 67.2549L57.2499 66.7176C57.6454 66.5651 58.0383 66.4041 58.4248 66.2298C58.934 66.003 59.4298 65.7467 59.9098 65.4622C60.4368 65.1469 60.9579 64.8097 61.4254 64.408C61.8412 64.0499 62.2453 63.6499 62.5536 63.1913C62.7268 62.9427 62.8774 62.6788 63.0036 62.4028C63.1158 62.1346 63.2 61.8552 63.2547 61.5692C63.2955 61.371 63.3137 61.1687 63.3087 60.9663C63.3036 60.664 63.2655 60.3631 63.1953 60.0691ZM48.2103 58.1208C47.7911 58.1872 47.3674 58.2204 46.9431 58.22C46.7351 58.2057 46.5283 58.1769 46.3243 58.1335C46.1729 58.0864 46.025 58.0281 45.882 57.9592C45.7245 57.8616 45.5764 57.7491 45.4396 57.6235C45.1993 57.3545 44.995 57.0546 44.8321 56.7317C44.708 56.4438 44.6244 56.1398 44.5837 55.8285C44.5758 55.5653 44.6003 55.3021 44.6566 55.045C44.7432 54.7698 44.8585 54.5047 45.0004 54.2542C45.2196 53.9199 45.4698 53.6074 45.7474 53.321C46.1373 52.9485 46.5548 52.6067 46.9962 52.2986L48.4609 55.1992L49.7569 57.7659C49.4698 57.8423 49.1818 57.9151 48.892 57.9806C48.6657 58.032 48.4384 58.0794 48.2103 58.1208ZM60.5938 61.7508C60.532 61.9431 60.4517 62.1289 60.354 62.3054C60.2116 62.5175 60.0516 62.7169 59.8756 62.9015C59.56 63.1962 59.2202 63.4633 58.86 63.7C58.1912 64.1063 57.4922 64.4596 56.7693 64.7565C56.6271 64.8172 56.4843 64.8751 56.3409 64.9303L56.2779 64.8061L54.7753 61.8345C54.2707 60.8359 53.7664 59.8372 53.2624 58.8383C53.91 58.6563 54.5616 58.482 55.2208 58.3451C55.3708 58.3148 55.5225 58.2858 55.6758 58.2582C56.2087 58.1727 56.7477 58.1321 57.2872 58.1367C57.5847 58.1555 57.8804 58.1975 58.1715 58.2623C58.4174 58.335 58.6565 58.4294 58.8861 58.5444C59.1448 58.6997 59.3862 58.8827 59.6061 59.0904C59.9249 59.4325 60.194 59.8187 60.4053 60.2374C60.5267 60.5175 60.6094 60.8132 60.651 61.116C60.6568 61.3292 60.6376 61.5422 60.5938 61.7508Z" fill="#C58FFF"/>
<path d="M47.88 21.9392C47.8534 21.491 47.8318 21.0401 47.7787 20.5942C47.7388 20.2633 47.6796 19.9352 47.6014 19.6114C47.3733 18.6623 46.9678 17.8073 46.5403 16.9346C45.9477 15.7234 45.126 14.6455 44.1909 13.6846C42.0874 11.5185 39.6671 9.69234 37.0147 8.27007C35.522 7.47473 33.9952 6.74218 32.3855 6.22257C31.4095 5.90634 30.4105 5.67657 29.4088 5.45908C28.7426 5.31498 28.0689 5.20865 27.391 5.14058C26.3321 5.03274 25.2589 5.01409 24.196 5.02956C23.5082 5.03773 22.8215 5.08879 22.1399 5.18244C21.0649 5.33441 19.9772 5.5155 18.9278 5.80852C18.5978 5.89952 18.2715 6.00311 17.949 6.11928C17.2533 6.36771 16.5509 6.61978 15.8718 6.91508C15.564 7.04976 15.2613 7.19581 14.9637 7.35324C14.4345 7.58121 13.9571 7.91647 13.5611 8.33832C13.157 8.65791 12.8344 9.07053 12.6201 9.54179C12.3886 9.93918 12.3066 10.4077 12.3893 10.8613C12.3647 11.3163 12.503 11.7282 12.8042 12.0971L13.4639 12.7259C14.046 13.1084 14.7103 13.3443 15.4011 13.4138L16.5756 13.4366C17.4176 13.3697 18.2402 13.1468 19.0025 12.7791C19.3391 12.6017 19.6825 12.4383 20.0326 12.2891C20.4979 12.1389 20.9696 12.012 21.4478 11.9082C22.0921 11.8231 22.7407 11.7759 23.3905 11.7667C24.2519 11.8141 25.1091 11.9226 25.9555 12.0916C27.3162 12.451 28.6402 12.94 29.9096 13.5522C31.6089 14.4585 33.2162 15.531 34.7084 16.7544C35.0384 17.0223 35.3605 17.2991 35.6746 17.5848C36.5705 18.483 37.3747 19.4813 37.9808 20.601C38.3159 21.3781 38.5407 22.1991 38.6486 23.0398C38.6543 23.568 38.6013 24.0951 38.4907 24.6114C38.0938 25.6547 37.4449 26.5729 36.8603 27.5175C36.5368 28.0402 36.2303 28.5767 36.0089 29.1555C35.7984 29.7089 35.627 30.2768 35.4959 30.8549C35.4285 31.1433 35.3879 31.4374 35.3749 31.7335C35.3578 32.1657 35.4059 32.6021 35.4392 33.0311C35.4508 33.1948 35.4735 33.3575 35.5072 33.518C35.5411 33.6781 35.5884 33.835 35.6485 33.9871C35.8126 34.4029 36.0082 34.8052 36.2335 35.1906C36.5097 35.5777 36.8927 35.8739 37.3346 36.0419C37.7894 36.3155 38.3022 36.4753 38.8305 36.5078C39.4292 36.5941 40.0387 36.5651 40.6269 36.4222C41.2567 36.3523 41.8685 36.166 42.4318 35.8726L43.4376 35.2593C44.0017 34.8492 44.4604 34.3082 44.775 33.6818L45.0355 32.8036C45.1022 32.2749 44.9837 31.7392 44.7007 31.2894C44.6701 31.1884 44.6449 31.086 44.6242 30.9823C44.6375 30.7335 44.67 30.4861 44.7214 30.2424C45.1534 29.1181 45.8824 28.1444 46.4958 27.1139C46.8472 26.5224 47.1546 25.9104 47.3571 25.2506C47.5407 24.6505 47.7342 24.0526 47.8242 23.4306C47.872 23.0973 47.896 22.761 47.8962 22.4242C47.8953 22.2618 47.8899 22.1002 47.88 21.9392Z" fill="black"/>
<path d="M43.9017 24.004C43.8687 23.1009 43.8361 22.1976 43.804 21.294C43.774 20.475 43.744 19.6549 43.714 18.8338C43.7082 18.6745 43.7037 18.5153 43.6965 18.3556C43.6888 18.1818 43.6776 18.0112 43.566 17.8674C43.5556 17.8546 43.543 17.8433 43.5322 17.831L43.3725 17.6581C42.8676 17.1093 42.3612 16.5609 41.8533 16.0128L39.9349 13.9371C39.6114 13.5867 39.2914 13.2323 38.9634 12.886C38.8045 12.7181 38.6295 12.6071 38.4409 12.4765L37.5481 11.8705L35.2194 10.283L34.3824 9.71288C34.2177 9.60049 34.062 9.48538 33.8716 9.41576C33.3055 9.20919 32.7255 9.03584 32.1535 8.84656L29.5201 7.97523L28.7038 7.70496C28.5336 7.6409 28.3553 7.60124 28.1742 7.58712L26.1001 7.50749L23.4091 7.40421L22.7341 7.37827H22.6959C22.4592 7.37008 22.2346 7.37145 22.0047 7.43378C21.9894 7.43788 21.6802 7.55481 21.6658 7.56027L21.6523 7.56528L21.4651 7.63398L19.2939 8.45298L16.9179 9.34979L16.5151 9.50176C16.2613 9.59776 15.9598 9.87622 15.8455 10.1269C15.7443 10.3494 15.7335 10.657 15.8982 10.8572C16.087 11.0764 16.3535 11.2116 16.6402 11.2335L16.9755 11.2399C17.2161 11.2208 17.4511 11.1571 17.6689 11.0519L19.4109 10.3945L22.1851 9.34797L22.2877 9.30929L23.6728 9.36253L26.673 9.47764L27.258 9.49994L28.8645 10.0318L31.7251 10.9787L32.2557 11.1543L33.6993 12.1376L36.1878 13.832L36.703 14.1828L38.134 15.7298L40.6162 18.4143L41.0689 18.9039L41.136 20.7621L41.2651 24.297C41.2741 24.5396 41.283 24.7823 41.2917 25.025L39.7563 28.3569C39.6843 28.513 39.6051 28.6682 39.5394 28.8274C39.4624 29.0153 39.444 29.2123 39.4147 29.4112L39.0867 31.6457L38.8261 33.4202C38.7883 33.68 38.9395 33.9348 39.1411 34.079C39.3783 34.2487 39.7486 34.312 40.0303 34.2824C40.3737 34.246 40.7391 34.1432 41.0109 33.9184C41.2327 33.7364 41.424 33.5148 41.4676 33.2172L42.0256 29.4144L42.085 29.0099L42.8095 27.4365C43.1434 26.7124 43.477 25.9885 43.8103 25.2648C43.8828 25.1078 43.9359 24.954 43.9296 24.7806C43.9203 24.5213 43.911 24.2624 43.9017 24.004Z" fill="#C58FFF"/>
<path d="M26.5498 20.783L25.6498 20.5205L23.5055 19.8921L20.9671 19.1491L18.8615 18.5321L18.2279 18.347L18.0659 18.2992L18.0286 18.2883L18.0205 18.286C17.8142 18.2287 17.5999 18.2065 17.3864 18.22C15.9464 18.2924 17.1497 18.2596 17.0314 18.2833C16.7312 18.3424 16.432 18.4034 16.1314 18.4653L13.9979 18.893L11.405 19.413L9.10643 19.8744L7.86038 20.1242L7.80233 20.136C7.63004 20.1757 7.4664 20.2469 7.31948 20.3462C7.17744 20.4176 7.05092 20.5169 6.94733 20.6383C6.79703 20.8126 6.64493 21.1102 6.72728 21.3527C6.77081 21.4752 6.84297 21.5853 6.93762 21.6735C7.03226 21.7618 7.1466 21.8256 7.27088 21.8596L7.57058 21.9233C7.80211 21.9458 8.03576 21.9253 8.25998 21.8627L9.17978 21.6744L11.3848 21.2326L14.0564 20.697L16.3568 20.2357C16.5413 20.1983 16.7258 20.1616 16.9103 20.1256L17.3531 20.2548L19.3831 20.8495L21.8545 21.5734L23.9834 22.1967C24.3281 22.2977 24.6724 22.4006 25.0184 22.4997L25.0328 22.5038C25.3564 22.5958 25.6987 22.5969 26.0228 22.507C26.195 22.4667 26.3583 22.3948 26.5048 22.295C26.6469 22.2235 26.7736 22.1242 26.8774 22.0029C27.0308 21.8104 27.1852 21.5479 27.0974 21.2885C27.0536 21.1657 26.9808 21.0554 26.8854 20.9674C26.79 20.8793 26.6748 20.816 26.5498 20.783Z" fill="#C58FFF"/>
</svg>
